<svg xmlns="http://www.w3.org/2000/svg" viewBox="0 0 815.08 68.23"><defs><style>.cls-1{fill:#585c5e;}.cls-2{fill:#609;}.cls-3{fill:#cf9;}.cls-4{fill:#9c3;}.cls-5{fill:#fc3;}.cls-6{fill:#3c9;}.cls-7{fill:#06f;}.cls-8{fill:#f60;}.cls-9{fill:#ffca33;}.cls-10{fill:#add211;}.cls-11{fill:#120740;}</style></defs><g id="Capa_2" data-name="Capa 2"><g id="Capa_1-2" data-name="Capa 1"><path class="cls-1" d="M30.46,38V16.32h-10V11.73H45v4.59h-10V38Z"/><path class="cls-1" d="M72.45,38,65.8,30.7H56V26.65h11a4.92,4.92,0,0,0,3.76-1.35,5.56,5.56,0,0,0,1.26-3.92,5,5,0,0,0-1.32-3.82,5.17,5.17,0,0,0-3.7-1.24H52.61V38H48.06V11.73H66.92a11.2,11.2,0,0,1,4,.67,8.17,8.17,0,0,1,3,1.91,8.4,8.4,0,0,1,1.88,3,11.56,11.56,0,0,1,.65,4A10,10,0,0,1,75,26.81,8,8,0,0,1,71,30L79,38Z"/><path class="cls-1" d="M90.26,38V28l-14-16.29h6.18l10.22,12.1L103,11.73h5.86L94.85,28V38Z"/><path class="cls-2" d="M10.35,68.23H5.92a5.87,5.87,0,0,1-4.37-1.56A6,6,0,0,1,0,62.32V49.6a5.92,5.92,0,0,1,1.55-4.37,5.9,5.9,0,0,1,4.37-1.55h4.43a5.92,5.92,0,0,1,4.35,1.55,5.89,5.89,0,0,1,1.57,4.37v1.83a.61.61,0,0,1-.69.69H13.17c-.43,0-.65-.23-.65-.69V49.75c0-1.88-.91-2.82-2.75-2.82H6.45c-1.83,0-2.75.94-2.75,2.82V62.16c0,1.89.92,2.83,2.75,2.83H9.77c1.84,0,2.75-.94,2.75-2.83V60.48c0-.46.22-.68.65-.68h2.41a.6.6,0,0,1,.69.68v1.84a5.92,5.92,0,0,1-1.57,4.35A5.88,5.88,0,0,1,10.35,68.23Z"/><path class="cls-2" d="M29.51,68.23H26.15a5.88,5.88,0,0,1-4.37-1.56,5.94,5.94,0,0,1-1.54-4.35V54.68a5.9,5.9,0,0,1,1.54-4.37,5.92,5.92,0,0,1,4.37-1.55h3.36a6,6,0,0,1,4.38,1.55,5.84,5.84,0,0,1,1.58,4.37v7.64a5.88,5.88,0,0,1-1.58,4.35A6,6,0,0,1,29.51,68.23ZM26.69,65H29a2.45,2.45,0,0,0,2.75-2.79V54.79A2.45,2.45,0,0,0,29,52H26.69a2.84,2.84,0,0,0-2.1.66,3,3,0,0,0-.65,2.12V62.2a3,3,0,0,0,.65,2.12A2.8,2.8,0,0,0,26.69,65Z"/><path class="cls-2" d="M42.92,68.23H40.51a.57.57,0,0,1-.65-.65V49.41a.58.58,0,0,1,.65-.65h2.41a.58.58,0,0,1,.65.65v1.37h.15c.61-1.35,1.89-2,3.86-2h1.68a5.69,5.69,0,0,1,4.27,1.53A6,6,0,0,1,55,54.68v12.9c0,.44-.23.65-.69.65h-2.4a.57.57,0,0,1-.65-.65V54.83A2.48,2.48,0,0,0,48.49,52H46.7q-3.14,0-3.13,3.24V67.58A.57.57,0,0,1,42.92,68.23Z"/><path class="cls-2" d="M60.18,52H58.34a.72.72,0,0,1-.51-.14.67.67,0,0,1-.14-.48v-2a.58.58,0,0,1,.65-.65h1.84a.34.34,0,0,0,.38-.38V44.94c0-.43.23-.65.68-.65h2.41a.58.58,0,0,1,.65.65v3.44c0,.25.14.38.42.38h3.55c.46,0,.69.22.69.65v2c0,.41-.23.62-.69.62H64.72c-.28,0-.42.12-.42.38V62.2c0,1.86,1,2.79,2.86,2.79h1.49c.46,0,.69.21.69.65v2c0,.41-.23.61-.69.61H66.59a6.2,6.2,0,0,1-4.43-1.52,5.68,5.68,0,0,1-1.6-4.32v-10A.33.33,0,0,0,60.18,52Z"/><path class="cls-2" d="M76.06,68.23H73.65a.57.57,0,0,1-.65-.65V49.41a.58.58,0,0,1,.65-.65h2.41a.58.58,0,0,1,.65.65v1.45h.15a3,3,0,0,1,1.47-1.53,5.15,5.15,0,0,1,2.43-.57h1.41a.58.58,0,0,1,.65.65v2c0,.49-.22.69-.65.62H79.88c-2.12,0-3.17,1.15-3.17,3.47v12.1A.57.57,0,0,1,76.06,68.23Z"/><path class="cls-2" d="M94.69,68.23H91.33A5.88,5.88,0,0,1,87,66.67a6,6,0,0,1-1.55-4.35V54.68a5.39,5.39,0,0,1,5.92-5.92h3.36a6,6,0,0,1,4.37,1.55,5.8,5.8,0,0,1,1.59,4.37v7.64a5.85,5.85,0,0,1-1.59,4.35A5.94,5.94,0,0,1,94.69,68.23ZM91.87,65H94.2c1.83,0,2.74-.93,2.74-2.79V54.79A2.44,2.44,0,0,0,94.2,52H91.87a2.84,2.84,0,0,0-2.1.66,2.94,2.94,0,0,0-.65,2.12V62.2a2.93,2.93,0,0,0,.65,2.12A2.8,2.8,0,0,0,91.87,65Z"/><path class="cls-2" d="M108.28,68.23h-2.4a.57.57,0,0,1-.65-.65V42a.58.58,0,0,1,.65-.65h2.4a.57.57,0,0,1,.65.65V67.58A.57.57,0,0,1,108.28,68.23Z"/><path class="cls-2" d="M117.18,68.23h-2.4a.57.57,0,0,1-.65-.65V42a.57.57,0,0,1,.65-.65h2.4a.58.58,0,0,1,.65.65V67.58A.57.57,0,0,1,117.18,68.23Z"/><path class="cls-2" d="M136.62,68.23h-8.25a5.4,5.4,0,0,1-5.92-5.91V54.68a5.39,5.39,0,0,1,5.92-5.92h3.13a6,6,0,0,1,4.39,1.55,5.87,5.87,0,0,1,1.57,4.37v4.85a.61.61,0,0,1-.69.69H126.53c-.28,0-.42.12-.42.38v1.64A2.47,2.47,0,0,0,128.9,65h7.72a.6.6,0,0,1,.68.68v1.91C137.3,68,137.07,68.23,136.62,68.23ZM126.53,57.62h6.84a.34.34,0,0,0,.38-.38V54.79a3,3,0,0,0-.65-2.12A2.84,2.84,0,0,0,131,52h-2.1a2.84,2.84,0,0,0-2.1.66,3,3,0,0,0-.65,2.12v2.45A.34.34,0,0,0,126.53,57.62Z"/><path class="cls-2" d="M144.71,68.23H142.3a.57.57,0,0,1-.65-.65V49.41a.58.58,0,0,1,.65-.65h2.41a.58.58,0,0,1,.65.65v1.45h.15A3,3,0,0,1,147,49.33a5.15,5.15,0,0,1,2.43-.57h1.41a.58.58,0,0,1,.65.65v2c0,.49-.22.69-.65.62h-2.29c-2.12,0-3.17,1.15-3.17,3.47v12.1A.57.57,0,0,1,144.71,68.23Z"/><path class="cls-3" d="M137.77,20a4.41,4.41,0,1,0,4.32-4.49A4.4,4.4,0,0,0,137.77,20Z"/><path class="cls-2" d="M147.25,2.68a11.39,11.39,0,0,1-1.71,3.38l-.14.21a14,14,0,1,1-14.25,22.16l-2.24,3.48A17.92,17.92,0,1,0,147.25,2.68Z"/><path class="cls-4" d="M142.77.29a4.76,4.76,0,0,0-1.49,1.3c-2.47,3-4.92,6-7.38,8.92l-7.76,9.36c-.59.7-1.17,1.41-1.76,2.12l-.9,1.08c-.42.51-.42.52-.85,0q-2.56-3-5.15-6a3.64,3.64,0,0,0-6,.54,3.72,3.72,0,0,0,.6,4.38c1.78,2.05,3.53,4.12,5.3,6.17,1,1.21,2.06,2.43,3.11,3.63a3.57,3.57,0,0,0,2.59,1.31,3.52,3.52,0,0,0,3.3-1.71c.32-.49.63-1,.94-1.47l2.39-3.71q6.54-10.16,13.05-20.3l.4-.62a12.67,12.67,0,0,0,1.73-3.14L145,2a1.85,1.85,0,0,0,0-1.08C144.49-.24,143.59-.12,142.77.29Z"/><path class="cls-1" d="M449.25,55.17V33.64h-9.91V29.08h24.37v4.56h-9.9V55.17Z"/><path class="cls-1" d="M491,55.17l-6.6-7.25h-9.76v-4h10.87a4.91,4.91,0,0,0,3.74-1.34,5.55,5.55,0,0,0,1.25-3.9,5,5,0,0,0-1.31-3.78,5.12,5.12,0,0,0-3.68-1.24H471.25V55.17h-4.52V29.08h18.73a11.32,11.32,0,0,1,4,.66,7.95,7.95,0,0,1,4.84,4.9,11.4,11.4,0,0,1,.65,4,9.87,9.87,0,0,1-1.42,5.47,7.93,7.93,0,0,1-4,3.18l7.86,7.93Z"/><path class="cls-1" d="M508.65,55.17v-9.9L494.79,29.08h6.14l10.16,12,10.19-12h5.82L513.21,45.27v9.9Z"/><circle class="cls-5" cx="510.76" cy="20.92" r="4.14"/><path class="cls-6" d="M523.43,8.58a17.9,17.9,0,0,0-29.85,17.67h5.34a12.86,12.86,0,1,1,23.69,0H528A17.92,17.92,0,0,0,523.43,8.58Z"/><path class="cls-6" d="M535.08,55.41h-1.85a6,6,0,0,1-4.55-1.67A6.59,6.59,0,0,1,527.1,49v-7.2a5.82,5.82,0,0,1,6.38-6.38h9.22c.49,0,.74.23.74.7V56.52a6.22,6.22,0,0,1-1.71,4.67A6.47,6.47,0,0,1,537,62.86h-7.74c-.47,0-.7-.22-.7-.66V60.06a.62.62,0,0,1,.7-.7h7.12c2,0,3-1,3-3V53.19h-.17C538.55,54.67,537.17,55.41,535.08,55.41Zm4.33-7v-9c0-.28-.16-.42-.46-.42h-4.9c-1.94,0-2.92,1-2.92,3.05v6.83c0,2,1,3,2.92,3h2Q539.41,51.87,539.41,48.41Z"/><path class="cls-6" d="M551.88,62.24h-2.6a.62.62,0,0,1-.7-.7V36.15a.62.62,0,0,1,.7-.7h2.6a.62.62,0,0,1,.7.7v1.48h.16c.66-1.46,2-2.18,4.16-2.18H559a6,6,0,0,1,4.55,1.64,6.6,6.6,0,0,1,1.58,4.74v8.23a6.59,6.59,0,0,1-1.58,4.71A6,6,0,0,1,559,56.44h-2.1q-3.17,0-4.16-2.18h-.16v7.28A.62.62,0,0,1,551.88,62.24Zm4.07-9.3h2.18c2,0,3-1,3-3V42q0-3-3-3.05H556q-3.37,0-3.37,3.5v7Q552.58,52.94,556,52.94Z"/><path class="cls-6" d="M577.4,56.44h-7.57a.62.62,0,0,1-.7-.7v-2c0-.44.23-.66.7-.66h6.91c1.78,0,2.68-.61,2.68-1.85v-.49a2.73,2.73,0,0,0-1.94-2.51L573,46.07a8.4,8.4,0,0,1-3-2.19,4.86,4.86,0,0,1-1-3.12q0-5.31,5.89-5.31h6.83c.44,0,.66.23.66.7v2c0,.47-.22.7-.66.7h-6a3.52,3.52,0,0,0-1.89.43,1.31,1.31,0,0,0-.66,1.14v.45c0,.88.7,1.65,2.1,2.3l4.53,2.31a6.41,6.41,0,0,1,2.94,2.24,6.29,6.29,0,0,1,.8,3.36Q583.53,56.44,577.4,56.44Z"/><path class="cls-1" d="M238.89,34V12.54H229V8h24.3v4.55h-9.88V34Z"/><path class="cls-1" d="M280.46,34l-6.58-7.23h-9.73v-4H275a4.88,4.88,0,0,0,3.72-1.34A5.53,5.53,0,0,0,280,17.54a5,5,0,0,0-1.31-3.77A5.13,5.13,0,0,0,275,12.54H260.82V34h-4.51V8H275a11.2,11.2,0,0,1,4,.66,8,8,0,0,1,4.83,4.89,11.33,11.33,0,0,1,.64,3.93A9.94,9.94,0,0,1,283,22.93a7.85,7.85,0,0,1-3.95,3.16L286.9,34Z"/><path class="cls-1" d="M298.1,34V24.13L284.29,8h6.12l10.12,12L310.69,8h5.8L302.64,24.13V34Z"/><path class="cls-7" d="M229.25,67.91H226.8c-.47,0-.7-.22-.7-.66V46.58a.34.34,0,0,0-.39-.39h-4.9c-.47,0-.71-.22-.71-.66v-2c0-.44.24-.66.71-.66h14.43c.47,0,.7.22.7.66v2c0,.44-.23.66-.7.66h-4.9c-.29,0-.43.13-.43.39V67.25A.58.58,0,0,1,229.25,67.91Z"/><path class="cls-7" d="M239.1,44.75V41.21a.55.55,0,0,1,.62-.62h2.53a.55.55,0,0,1,.62.62v3.54c0,.45-.21.67-.62.67h-2.53C239.3,45.42,239.1,45.2,239.1,44.75Zm0,22.5V48.72c0-.44.2-.66.62-.66h2.49a.58.58,0,0,1,.66.66V67.25a.69.69,0,0,1-.14.52.63.63,0,0,1-.48.14h-2.49A.58.58,0,0,1,239.1,67.25Z"/><path class="cls-7" d="M262,67.91h-8.41a5.52,5.52,0,0,1-6-6V54.09a5.49,5.49,0,0,1,6-6h3.19a6.12,6.12,0,0,1,4.48,1.58,6,6,0,0,1,1.59,4.45V59a.62.62,0,0,1-.7.7H251.74q-.42,0-.42.39V61.8a2.51,2.51,0,0,0,2.84,2.84H262a.62.62,0,0,1,.7.7v2C262.72,67.7,262.48,67.91,262,67.91ZM251.74,57.09h7a.34.34,0,0,0,.39-.39V54.21a3,3,0,0,0-.66-2.16,2.91,2.91,0,0,0-2.14-.68h-2.14a2.89,2.89,0,0,0-2.14.68,3,3,0,0,0-.67,2.16V56.7A.34.34,0,0,0,251.74,57.09Z"/><path class="cls-7" d="M270.27,67.91h-2.45a.59.59,0,0,1-.67-.66V48.72a.59.59,0,0,1,.67-.66h2.45a.58.58,0,0,1,.66.66v1.41h.15q.94-2.07,3.94-2.07h1.71a5.83,5.83,0,0,1,4.36,1.56,6.15,6.15,0,0,1,1.51,4.47V67.25c0,.44-.23.66-.7.66h-2.45a.58.58,0,0,1-.66-.66v-13c0-1.92-1-2.88-2.84-2.88h-1.83q-3.19,0-3.19,3.31V67.25A.58.58,0,0,1,270.27,67.91Z"/><path class="cls-7" d="M294.67,67.91h-2a5.67,5.67,0,0,1-4.3-1.58,6.19,6.19,0,0,1-1.49-4.45V54.09a6.19,6.19,0,0,1,1.49-4.47,5.7,5.7,0,0,1,4.3-1.56h2c2,0,3.29.69,3.89,2.07h.16V41.21a.58.58,0,0,1,.66-.66h2.49a.58.58,0,0,1,.66.66v26a.58.58,0,0,1-.66.66h-2.49a.58.58,0,0,1-.66-.66v-1.4h-.16C298,67.22,296.67,67.91,294.67,67.91Zm4.05-6.62V54.68q0-3.32-3.2-3.31h-2.06c-1.87,0-2.8,1-2.8,2.88v7.47c0,1.92.93,2.88,2.8,2.88h2.06Q298.71,64.6,298.72,61.29Z"/><path class="cls-7" d="M314.59,67.91h-1.51a5.52,5.52,0,0,1-6-6V54.09a5.5,5.5,0,0,1,6-6h8.71c.47,0,.7.22.7.66V67.25c0,.44-.23.66-.7.66h-2.45a.58.58,0,0,1-.66-.66v-1.4h-.16C317.9,67.22,316.59,67.91,314.59,67.91Zm4.09-6.62V51.76c0-.26-.14-.39-.43-.39h-4.63c-1.87,0-2.8,1-2.8,2.88v7.47c0,1.92.93,2.88,2.8,2.88h1.87Q318.69,64.6,318.68,61.29Z"/><path class="cls-7" d="M334.44,67.91h-7.16a.58.58,0,0,1-.66-.66V65.34c0-.41.22-.62.66-.62h6.54c1.68,0,2.53-.58,2.53-1.75V62.5a2.57,2.57,0,0,0-1.83-2.37l-4.24-2A7.8,7.8,0,0,1,327.4,56a4.6,4.6,0,0,1-.9-3c0-3.34,1.86-5,5.57-5h6.46c.41,0,.62.22.62.66v1.91c0,.44-.21.66-.62.66h-5.68a3.27,3.27,0,0,0-1.79.41,1.23,1.23,0,0,0-.63,1.07v.43c0,.83.66,1.56,2,2.18l4.28,2.18a5,5,0,0,1,3.54,5.29Q340.24,67.91,334.44,67.91Z"/><path class="cls-7" d="M377.71,15.74q-3.15-3.3-6.33-6.58c-.29-.3-.22-.25-.9-1L325.93,8c-.7.7-1.25,1.38-1.8,1.94-1.83,1.87-3.62,3.79-5.42,5.69s-1.79,1.87-1.77,4.46A7.17,7.17,0,0,0,322.21,27a7.6,7.6,0,0,0,3.89,0,6.86,6.86,0,0,0,3.67-2.38c.4-.51.54-.33.85,0a7.24,7.24,0,0,0,11.1,0c.32-.38.48-.47.86,0a7.22,7.22,0,0,0,11.22-.07c.27-.32.41-.34.7,0a7.2,7.2,0,0,0,11.33,0c.25-.29.35-.33.61,0a7.13,7.13,0,0,0,3.74,2.49.72.72,0,0,1,.64.84c0,1.64,0,13.5,0,15.14a3.54,3.54,0,0,0,0,.46l2.45.74a1.33,1.33,0,0,0,.11-.54c0-1.89,0-14,0-15.87a.66.66,0,0,1,.58-.76,7.11,7.11,0,0,0,4.35-3.21,10.06,10.06,0,0,0,1-2.53V17.54A17.31,17.31,0,0,0,377.71,15.74Zm-52.92,9a4.65,4.65,0,0,1-5.24-4c-.19-1.38-.19-1.38,1.16-1.38h3.47c1.37,0,2.75,0,4.13,0,.41,0,.57.11.59.54A4.73,4.73,0,0,1,324.79,24.7Zm4.87-8.41c-.15.28-.3.49-.68.49-2.51,0-5,0-7.54,0a.75.75,0,0,1-.2-.07l5.27-5.56a.88.88,0,0,1,.72-.25H332c.48,0,.57.1.33.54C331.4,13,330.53,14.66,329.66,16.29Zm7.22,8.4A4.7,4.7,0,0,1,331.57,21c-.34-1.54-.19-1.72,1.33-1.72h3.29c1.32,0,2.64,0,4,0,.59,0,.72.21.71.74A4.71,4.71,0,0,1,336.88,24.69Zm5.41-13.29c-.36,1.62-.72,3.25-1.05,4.87-.08.41-.29.51-.68.51-1.27,0-2.55,0-3.83,0s-2.55,0-3.83,0c-.45,0-.52-.11-.3-.52q1.35-2.45,2.65-4.92a.75.75,0,0,1,.76-.46h5.84C342.26,10.87,342.39,11,342.29,11.4Zm1.59,4.78c.37-1.59.7-3.2,1-4.81a.53.53,0,0,1,.63-.49h5.22c.42,0,.57.18.65.55.32,1.57.64,3.14,1,4.69.14.57-.06.67-.56.66-1.23,0-2.47,0-3.71,0s-2.51,0-3.77,0C344,16.78,343.76,16.69,343.88,16.18Zm4.32,8.54a4.7,4.7,0,0,1-4.76-4.79c0-.52.18-.66.67-.65,1.36,0,2.72,0,4.07,0s2.72,0,4.08,0c.48,0,.62.16.62.64A4.69,4.69,0,0,1,348.2,24.72Zm6.87-8.49c-.33-1.61-.68-3.21-1-4.81-.09-.41,0-.55.43-.54h5.78a.7.7,0,0,1,.69.39q1.4,2.54,2.8,5.06c.21.36.09.45-.28.44h-3.9c-1.26,0-2.52,0-3.77,0A.6.6,0,0,1,355.07,16.23Zm5,8.49a4.64,4.64,0,0,1-4.65-4.88c0-.42.18-.56.59-.55q4.11,0,8.22,0c.42,0,.55.15.57.57A4.65,4.65,0,0,1,360.11,24.72Zm6.53-8.41c-.89-1.64-1.79-3.28-2.71-4.9-.26-.45-.12-.54.34-.53h4.81a1,1,0,0,1,.77.28c1.72,1.82,3.45,3.65,5.32,5.61h-2.46c-1.75,0-3.49,0-5.24,0A.84.84,0,0,1,366.64,16.31Zm5.51,8.41a4.67,4.67,0,0,1-4.72-4.87c0-.42.15-.57.57-.56,2.77,0,5.55,0,8.33,0,.33,0,.53.06.54.46A4.71,4.71,0,0,1,372.15,24.72Z"/><path class="cls-8" d="M354.29,41.49a1.06,1.06,0,0,0-1.44,1,2,2,0,0,0,.16.73q.93,3.14,1.88,6.27,2.12,7.06,4.24,14.13a1.11,1.11,0,0,0,.9.89,1.12,1.12,0,0,0,1.17-.59c1.05-1.59,2.11-3.16,3.16-4.75.16-.26.26-.26.47,0q2.46,2.48,4.93,4.94a1.15,1.15,0,0,0,1.87,0l3.84-3.84a1.15,1.15,0,0,0,0-1.89c-1.65-1.65-3.29-3.3-4.94-4.93-.2-.21-.21-.33,0-.45l.11-.07,4.71-3.14a1.08,1.08,0,0,0,.53-1.12,1.05,1.05,0,0,0-.81-.89l-.38-.11-16.2-4.86C357.13,42.33,355.71,41.9,354.29,41.49Z"/><path class="cls-9" d="M354.64,36.44v-3.1a1.06,1.06,0,0,0-1.07-1.12,1,1,0,0,0-1.08,1.11q0,1.55,0,3.09a1.06,1.06,0,0,0,1.08,1.11A1,1,0,0,0,354.64,36.44Z"/><path class="cls-9" d="M348.29,42.79a1.07,1.07,0,0,0,0-2.14h-3.19a1,1,0,0,0-1.06,1.06,1.05,1.05,0,0,0,1.08,1.08h3.15Z"/><path class="cls-9" d="M348.56,38.25a1.09,1.09,0,1,0,1.53-1.54c-.67-.69-1.36-1.37-2-2.05a1.09,1.09,0,0,0-1.79.29,1.06,1.06,0,0,0,.23,1.24C347.17,36.88,347.86,37.58,348.56,38.25Z"/><path class="cls-9" d="M358.49,38.31c.76-.71,1.49-1.45,2.21-2.2a1,1,0,0,0,.16-1.17,1,1,0,0,0-1-.61.9.9,0,0,0-.72.25c-.74.73-1.49,1.46-2.2,2.21a1.08,1.08,0,0,0,1.52,1.52Z"/><path class="cls-9" d="M348.59,45.15c-.23.21-.45.44-.67.67-.48.48-1,1-1.44,1.44a1.06,1.06,0,0,0-.23,1.21,1,1,0,0,0,1,.65,1,1,0,0,0,.75-.29c.73-.71,1.46-1.42,2.16-2.16a1.08,1.08,0,0,0,0-1.51A1.11,1.11,0,0,0,348.59,45.15Z"/><path class="cls-10" d="M682.24,40.33H670.5l2-3.52h7.61l-5.53-9.27-11.25,19h-5l14.26-23.74a3.29,3.29,0,0,1,.88-1,2,2,0,0,1,1.23-.38,1.94,1.94,0,0,1,1.21.38,3.4,3.4,0,0,1,.87,1L691,46.22a9.44,9.44,0,0,0-.06-9.33L675,9.37A9.45,9.45,0,0,0,662.1,5.91L634.62,21.77h5.46l9.65,11.43,9.69-11.43h5.52L651.75,37.15v9.42h-4.34V37.15l-13-15.23a9.45,9.45,0,0,0-3.26,12.79L647,62.23a9.45,9.45,0,0,0,12.91,3.46L687.44,49.8a9.35,9.35,0,0,0,3.32-3.23H686Z"/><path class="cls-10" d="M634.62,21.77h-.37l.13.15.2-.12Z"/><path class="cls-10" d="M691,46.22c-.06.12-.13.23-.2.35h.41Z"/><path class="cls-11" d="M699.3,45.91V22.41a.58.58,0,0,1,.66-.65h9.49a6.07,6.07,0,0,1,4.42,1.56,5.91,5.91,0,0,1,1.6,4.42V40.59a6,6,0,0,1-1.6,4.4,6,6,0,0,1-4.42,1.58H700A.58.58,0,0,1,699.3,45.91Zm4.17-2.62h5.44c1.85,0,2.78-.95,2.78-2.86V27.89c0-1.9-.93-2.85-2.78-2.85h-5.44c-.28,0-.42.13-.42.38V42.86A.37.37,0,0,0,703.47,43.29Z"/><path class="cls-10" d="M720.52,23.61V20.1a.55.55,0,0,1,.62-.62h2.51a.55.55,0,0,1,.62.62v3.51c0,.44-.21.66-.62.66h-2.51C720.73,24.27,720.52,24.05,720.52,23.61Z"/><path class="cls-11" d="M720.52,45.91V27.55c0-.44.21-.66.62-.66h2.47a.58.58,0,0,1,.66.66V45.91a.74.74,0,0,1-.14.52.67.67,0,0,1-.48.14h-2.47A.58.58,0,0,1,720.52,45.91Z"/><path class="cls-11" d="M732.41,46.57H730a.58.58,0,0,1-.66-.66V27.55a.58.58,0,0,1,.66-.66h2.43a.58.58,0,0,1,.65.66v1.38h.16c.61-1.36,1.91-2,3.89-2h1.7a5.75,5.75,0,0,1,4.32,1.54,6.08,6.08,0,0,1,1.51,4.44v13c0,.44-.23.66-.7.66h-2.43a.58.58,0,0,1-.65-.66V33A2.51,2.51,0,0,0,738,30.17h-1.81q-3.16,0-3.17,3.28V45.91A.58.58,0,0,1,732.41,46.57Z"/><path class="cls-11" d="M763.2,46.57h-8.34a5.46,5.46,0,0,1-6-6V32.87a6,6,0,0,1,1.56-4.42,6,6,0,0,1,4.42-1.56H758a6,6,0,0,1,4.43,1.56A5.92,5.92,0,0,1,764,32.87v4.9a.61.61,0,0,1-.69.69H753q-.42,0-.42.39v1.66a2.49,2.49,0,0,0,2.81,2.82h7.8a.61.61,0,0,1,.69.69V46C763.89,46.36,763.66,46.57,763.2,46.57ZM753,35.84h6.91a.34.34,0,0,0,.38-.39V33a3,3,0,0,0-.65-2.15,2.88,2.88,0,0,0-2.13-.67H755.4a2.85,2.85,0,0,0-2.12.67,3,3,0,0,0-.66,2.15v2.46A.34.34,0,0,0,753,35.84Z"/><path class="cls-11" d="M771.38,46.57h-2.44a.58.58,0,0,1-.65-.66V27.55a.58.58,0,0,1,.65-.66h2.44a.58.58,0,0,1,.65.66V29h.16a3,3,0,0,1,1.48-1.54,5.12,5.12,0,0,1,2.45-.58h1.43a.58.58,0,0,1,.65.66v2c0,.49-.21.7-.65.62h-2.32q-3.19,0-3.2,3.51V45.91A.58.58,0,0,1,771.38,46.57Z"/><path class="cls-11" d="M790.2,46.57h-3.39A5.94,5.94,0,0,1,782.39,45a6,6,0,0,1-1.56-4.4V32.87a6,6,0,0,1,1.56-4.42,6,6,0,0,1,4.42-1.56h3.39a6.07,6.07,0,0,1,4.42,1.56,5.89,5.89,0,0,1,1.6,4.42v7.72a5.92,5.92,0,0,1-1.6,4.4A6,6,0,0,1,790.2,46.57Zm-2.85-3.28h2.35c1.85,0,2.78-.94,2.78-2.82V33c0-1.88-.93-2.82-2.78-2.82h-2.35a2.84,2.84,0,0,0-2.12.67,3,3,0,0,0-.66,2.15v7.48a3,3,0,0,0,.66,2.14A2.84,2.84,0,0,0,787.35,43.29Z"/><path class="cls-1" d="M703.54,62h-1.92a2.18,2.18,0,0,1-2.36-2.37V54.08a2.35,2.35,0,0,1,.63-1.74,2.38,2.38,0,0,1,1.73-.62h1.92a2.39,2.39,0,0,1,1.74.62,2.35,2.35,0,0,1,.63,1.74v.79c0,.15-.08.22-.23.22H705c-.15,0-.23-.07-.23-.22v-.74c0-.93-.45-1.39-1.34-1.39h-1.65c-.88,0-1.33.46-1.33,1.39v5.45c0,.93.45,1.39,1.33,1.39h1.65c.89,0,1.34-.46,1.34-1.39v-.73a.21.21,0,0,1,.23-.23h.71a.21.21,0,0,1,.23.23v.78a2.32,2.32,0,0,1-.63,1.74A2.35,2.35,0,0,1,703.54,62Z"/><path class="cls-1" d="M708.85,62h-.72c-.15,0-.22-.08-.22-.23v-7.7c0-.15.07-.23.22-.23h.72c.15,0,.22.08.22.23v.64h.07a1.33,1.33,0,0,1,.61-.61,2.07,2.07,0,0,1,1-.26h.62c.14,0,.21.08.21.23v.59a.23.23,0,0,1,0,.17.18.18,0,0,1-.16,0h-.86a1.37,1.37,0,0,0-1.1.43,1.7,1.7,0,0,0-.39,1.18v5.29C709.07,61.92,709,62,708.85,62Z"/><path class="cls-1" d="M718.67,62h-3.39a2.35,2.35,0,0,1-1.74-.63,2.32,2.32,0,0,1-.63-1.74V56.21a2.32,2.32,0,0,1,.63-1.74,2.35,2.35,0,0,1,1.74-.63h1.34a2.33,2.33,0,0,1,1.73.63,2.36,2.36,0,0,1,.62,1.74v2c0,.16-.07.24-.22.24h-4.53c-.1,0-.16.05-.16.14v1A1.21,1.21,0,0,0,715.41,61h3.26a.2.2,0,0,1,.22.22v.58C718.89,61.93,718.82,62,718.67,62Zm-4.45-4.37h3.46a.14.14,0,0,0,.16-.16V56.24a1.2,1.2,0,0,0-1.35-1.37h-1.08a1.2,1.2,0,0,0-1.35,1.37v1.23A.14.14,0,0,0,714.22,57.63Zm2.45-6.87h1c.07,0,.12,0,.14.06a.16.16,0,0,1,0,.16l-1.39,1.68a.47.47,0,0,1-.32.16h-.53c-.15,0-.18-.07-.09-.22l.92-1.63A.35.35,0,0,1,716.67,50.76Z"/><path class="cls-1" d="M724,62h-.94a2.26,2.26,0,0,1-1.7-.63,2.39,2.39,0,0,1-.6-1.74V56.21a2.39,2.39,0,0,1,.6-1.74,2.26,2.26,0,0,1,1.7-.63H724a1.65,1.65,0,0,1,1.65.85h.06V51c0-.15.07-.22.21-.22h.74c.13,0,.2.07.2.22V61.77c0,.15-.07.23-.2.23h-.74c-.14,0-.21-.08-.21-.23v-.62h-.06A1.64,1.64,0,0,1,724,62Zm1.71-2.5V56.34a1.46,1.46,0,0,0-.38-1.09,1.51,1.51,0,0,0-1.1-.38h-1c-.88,0-1.33.46-1.33,1.39v3.32c0,.93.45,1.39,1.33,1.39h1a1.47,1.47,0,0,0,1.1-.38A1.45,1.45,0,0,0,725.73,59.5Z"/><path class="cls-1" d="M729.17,52.5V51c0-.15.07-.23.21-.23h.73a.21.21,0,0,1,.23.23v1.5a.21.21,0,0,1-.23.23h-.73C729.24,52.73,729.17,52.65,729.17,52.5Zm0,9.27v-7.7c0-.15.07-.23.21-.23h.73a.21.21,0,0,1,.23.23v7.7a.21.21,0,0,1-.23.23h-.72C729.24,62,729.17,61.92,729.17,61.77Z"/><path class="cls-1" d="M732.93,54.87h-.88c-.15,0-.23-.07-.23-.21v-.59a.21.21,0,0,1,.23-.23h.88c.1,0,.16,0,.16-.14V52.33c0-.15.07-.23.22-.23H734c.14,0,.21.08.21.23V53.7c0,.1.06.14.17.14h1.7a.21.21,0,0,1,.24.23v.59q0,.21-.24.21h-1.7c-.11,0-.17.05-.17.14v4.61q0,1.35,1.41,1.35h.62a.21.21,0,0,1,.24.23v.59q0,.21-.24.21h-.77a2.49,2.49,0,0,1-1.76-.62,2.26,2.26,0,0,1-.65-1.72V55C733.09,54.92,733,54.87,732.93,54.87Z"/><path class="cls-1" d="M741.78,62h-1.37a2.33,2.33,0,0,1-1.73-.63,2.29,2.29,0,0,1-.64-1.74V56.21a2.29,2.29,0,0,1,.64-1.74,2.33,2.33,0,0,1,1.73-.63h1.37a2.35,2.35,0,0,1,1.74.63,2.32,2.32,0,0,1,.63,1.74v3.42a2.32,2.32,0,0,1-.63,1.74A2.35,2.35,0,0,1,741.78,62Zm-1.24-1h1.12A1.2,1.2,0,0,0,743,59.6V56.24a1.2,1.2,0,0,0-1.34-1.37h-1.12a1.2,1.2,0,0,0-1.35,1.37V59.6A1.2,1.2,0,0,0,740.54,61Z"/><path class="cls-1" d="M749,62h-2.84a.21.21,0,0,1-.23-.23v-.56c0-.13.08-.2.23-.2h2.68c.83,0,1.25-.31,1.25-.93v-.3a1.16,1.16,0,0,0-.81-1.17l-1.89-.8a2.78,2.78,0,0,1-1.17-.79,2,2,0,0,1-.35-1.21c0-1.31.72-2,2.16-2h2.62c.15,0,.22.08.22.23v.56c0,.14-.07.21-.22.21H748.2a1.38,1.38,0,0,0-.88.24.71.71,0,0,0-.29.55v.28c0,.44.3.79.91,1l1.89.85a2,2,0,0,1,1.12.84,3,3,0,0,1,.3,1.46C751.25,61.36,750.49,62,749,62Z"/><path class="cls-1" d="M761.45,62h-1.9a2.35,2.35,0,0,1-1.74-.63,2.32,2.32,0,0,1-.63-1.74V54.08a2.35,2.35,0,0,1,.63-1.74,2.39,2.39,0,0,1,1.74-.62h1.9a2.19,2.19,0,0,1,2.37,2.36v5.55A2.19,2.19,0,0,1,761.45,62Zm-1.77-1h1.63c.89,0,1.34-.46,1.34-1.39V54.13c0-.93-.45-1.39-1.34-1.39h-1.63c-.89,0-1.33.46-1.33,1.39v5.45C758.35,60.51,758.79,61,759.68,61Z"/><path class="cls-1" d="M767,62h-.72a.21.21,0,0,1-.23-.23v-7.7a.21.21,0,0,1,.23-.23H767a.2.2,0,0,1,.22.23v.62h.06a1.63,1.63,0,0,1,1.63-.85h.9a2.23,2.23,0,0,1,1.69.63,2.35,2.35,0,0,1,.61,1.74v5.56c0,.15-.07.23-.22.23h-.72a.21.21,0,0,1-.23-.23V56.26c0-.93-.44-1.39-1.34-1.39h-.89a1.54,1.54,0,0,0-1.11.38,1.5,1.5,0,0,0-.38,1.09v5.43A.2.2,0,0,1,767,62Z"/><path class="cls-1" d="M775.23,62h-.72c-.15,0-.22-.08-.22-.23V51a.19.19,0,0,1,.22-.22h.72a.19.19,0,0,1,.22.22V61.77C775.45,61.92,775.38,62,775.23,62Z"/><path class="cls-1" d="M777.82,52.5V51c0-.15.07-.23.21-.23h.73A.21.21,0,0,1,779,51v1.5a.21.21,0,0,1-.23.23H778C777.89,52.73,777.82,52.65,777.82,52.5Zm0,9.27v-7.7c0-.15.07-.23.21-.23h.73a.21.21,0,0,1,.23.23v7.7a.21.21,0,0,1-.23.23H778A.2.2,0,0,1,777.82,61.77Z"/><path class="cls-1" d="M782.22,62h-.72a.21.21,0,0,1-.23-.23v-7.7a.21.21,0,0,1,.23-.23h.72c.15,0,.22.08.22.23v.62h.07a1.62,1.62,0,0,1,1.63-.85H785a2.26,2.26,0,0,1,1.7.63,2.39,2.39,0,0,1,.6,1.74v5.56c0,.15-.07.23-.22.23h-.72c-.15,0-.22-.08-.22-.23V56.26a1.21,1.21,0,0,0-1.35-1.39h-.89a1.5,1.5,0,0,0-1.1.38,1.47,1.47,0,0,0-.39,1.09v5.43C782.44,61.92,782.37,62,782.22,62Z"/><path class="cls-1" d="M795.06,62h-3.39a2.35,2.35,0,0,1-1.74-.63,2.32,2.32,0,0,1-.63-1.74V56.21a2.32,2.32,0,0,1,.63-1.74,2.35,2.35,0,0,1,1.74-.63H793a2.33,2.33,0,0,1,1.73.63,2.36,2.36,0,0,1,.62,1.74v2c0,.16-.07.24-.22.24h-4.53c-.11,0-.16.05-.16.14v1c0,.93.45,1.39,1.34,1.39h3.27a.2.2,0,0,1,.22.22v.58C795.28,61.93,795.21,62,795.06,62Zm-4.45-4.37h3.45a.14.14,0,0,0,.16-.16V56.24a1.2,1.2,0,0,0-1.34-1.37h-1.09a1.2,1.2,0,0,0-1.34,1.37v1.23A.14.14,0,0,0,790.61,57.63Z"/><path class="cls-11" d="M798.7,12.65l1.13.48,1.13.48a.81.81,0,0,0,1.1-.45.82.82,0,0,0-.43-1.09l-2.29-1a.82.82,0,0,0-1.09.44A.84.84,0,0,0,798.7,12.65Z"/><path class="cls-10" d="M815.07,15.1a3,3,0,0,0-4.62-2.37c-1.14.7-2.3,1.38-3.45,2.06l-6.74,4-2.84,1.68c.15-.66.26-1.22.41-1.76a4.21,4.21,0,0,0-2.53-5.37,1.94,1.94,0,0,0-2.75,1.44c-.1.51-.26,1-.39,1.51q-.76,2.88-1.52,5.76c-.19.72-.38,1.44-.56,2.16h.12a11.94,11.94,0,0,1,1.36.09c.3-1.16.6-2.33.91-3.49.51-1.94,1-3.87,1.55-5.8.1-.38.35-.43.65-.36a2.66,2.66,0,0,1,1.89,2.9c-.17,1-.42,1.92-.63,2.88-.09.41-.16.82-.27,1.22a.77.77,0,0,0,.28.88.77.77,0,0,0,.92,0l3.24-1.91L809,15.33c.75-.44,1.49-.89,2.23-1.34a1.55,1.55,0,0,1,2.2.46,1.51,1.51,0,0,1-.51,2.14q-3.17,1.9-6.35,3.78c-.84.5-1.68,1-2.51,1.48a.92.92,0,0,0-.49.5.74.74,0,0,0,.21.82.68.68,0,0,0,.8.07c.68-.37,1.34-.77,2-1.16a1.52,1.52,0,0,1,1.8.07,1.6,1.6,0,0,1-.33,2.69l-2.59,1.52a1.4,1.4,0,0,0-.52.42.71.71,0,0,0,.81,1,21.06,21.06,0,0,0,2-1.15,1.64,1.64,0,0,1,1.86,0,1.46,1.46,0,0,1,.63,1.64,1.48,1.48,0,0,1-.78,1c-.93.57-1.87,1.12-2.8,1.68-.52.32-.64.68-.39,1.11s.62.43,1.1.17.9-.53,1.36-.78a1.55,1.55,0,0,1,2.19.49,1.6,1.6,0,0,1-.64,2.2l-5.36,3.16c-1,.58-1.92,1.2-2.95,1.69a8.44,8.44,0,0,1-3.05.78v.81c0,.22,0,.43,0,.64a10.68,10.68,0,0,0,2.37-.4,14.84,14.84,0,0,0,3.59-1.78c2.09-1.25,4.2-2.46,6.27-3.72a2.88,2.88,0,0,0,1.44-2.88,2.71,2.71,0,0,0-1.24-2.12c-.25-.16-.46-.3-.16-.64a2.52,2.52,0,0,0,.58-1.52,2.92,2.92,0,0,0-1.61-2.92c-.25-.13-.2-.22-.11-.39A3,3,0,0,0,809.2,21c-.33-.26-.23-.34.06-.51,1.48-.87,3-1.74,4.42-2.64A2.82,2.82,0,0,0,815.07,15.1Z"/><path class="cls-11" d="M806.35,11.44a.83.83,0,0,0,1.1-.47c.16-.36.31-.73.47-1.1l.47-1.11A.83.83,0,0,0,808,7.62a.82.82,0,0,0-1.11.47c-.32.74-.63,1.48-.94,2.22A.83.83,0,0,0,806.35,11.44Z"/><path class="cls-11" d="M802.53,10.43a.85.85,0,1,0,1.57-.64c-.27-.7-.56-1.39-.84-2.09a.83.83,0,0,0-.36-.44.85.85,0,0,0-1,.1.81.81,0,0,0-.21,1C802,9,802.24,9.73,802.53,10.43Z"/></g></g></svg>