<?xml version="1.0" encoding="UTF-8"?>
<svg id="Capa_2" data-name="Capa 2" xmlns="http://www.w3.org/2000/svg" viewBox="0 0 883.57 74.27">
  <defs>
    <style>
      .cls-1 {
        fill: #213575;
      }

      .cls-2 {
        fill: #73ca97;
      }

      .cls-3 {
        fill: #606060;
      }

      .cls-4 {
        fill: #f0c82f;
      }

      .cls-5 {
        fill: #ffca33;
      }

      .cls-6 {
        fill: #f60;
      }

      .cls-7 {
        fill: #06f;
      }

      .cls-8 {
        fill: #add211;
      }

      .cls-9 {
        fill: #60a7ce;
      }

      .cls-10 {
        fill: #585c5e;
      }

      .cls-11 {
        fill: #120740;
      }

      .cls-12 {
        fill: #60a6cd;
      }
    </style>
  </defs>
  <g id="Capa_1-2" data-name="Capa 1">
    <g>
      <g>
        <g>
          <path class="cls-10" d="M274.96,37.17V13.68h-10.8v-4.97h26.58v4.97h-10.8v23.49h-4.97Z"/>
          <path class="cls-10" d="M320.45,37.17l-7.2-7.91h-10.65v-4.38h11.86c1.8,0,3.16-.49,4.07-1.47.91-.98,1.37-2.39,1.37-4.25s-.48-3.23-1.43-4.13c-.95-.9-2.29-1.35-4.01-1.35h-15.5v23.49h-4.93V8.71h20.43c1.62,0,3.07.24,4.35.72,1.28.48,2.36,1.17,3.25,2.07.89.9,1.57,1.99,2.04,3.27.47,1.28.7,2.71.7,4.31,0,2.37-.52,4.36-1.55,5.97-1.03,1.6-2.47,2.76-4.33,3.46l8.57,8.65h-7.05Z"/>
          <path class="cls-10" d="M339.75,37.17v-10.8l-15.11-17.65h6.69l11.08,13.11,11.12-13.11h6.34l-15.15,17.65v10.8h-4.97Z"/>
        </g>
        <g>
          <path class="cls-7" d="M264.42,74.27h-2.68c-.51,0-.77-.24-.77-.72v-22.61c0-.28-.14-.43-.43-.43h-5.37c-.51,0-.77-.24-.77-.72v-2.17c0-.48.26-.72.77-.72h15.8c.51,0,.77.24.77.72v2.17c0,.48-.26.72-.77.72h-5.37c-.31,0-.47.14-.47.43v22.61c0,.48-.24.72-.72.72Z"/>
          <path class="cls-7" d="M275.19,48.93v-3.87c0-.45.23-.68.68-.68h2.77c.45,0,.68.23.68.68v3.87c0,.48-.23.72-.68.72h-2.77c-.45,0-.68-.24-.68-.72ZM275.19,73.54v-20.27c0-.48.23-.72.68-.72h2.73c.48,0,.72.24.72.72v20.27c0,.28-.05.48-.15.58s-.28.15-.53.15h-2.72c-.48,0-.72-.24-.72-.72Z"/>
          <path class="cls-7" d="M300.27,74.27h-9.2c-2.1,0-3.73-.58-4.88-1.75-1.15-1.16-1.72-2.78-1.72-4.85v-8.52c0-2.1.57-3.73,1.72-4.88,1.15-1.15,2.77-1.72,4.88-1.72h3.49c2.1,0,3.73.57,4.9,1.72,1.16,1.15,1.75,2.78,1.75,4.88v5.41c0,.51-.26.77-.77.77h-11.41c-.31,0-.47.14-.47.43v1.83c0,2.07,1.04,3.11,3.11,3.11h8.6c.51,0,.77.26.77.77v2.13c0,.45-.26.68-.77.68ZM289.03,62.43h7.62c.28,0,.43-.14.43-.43v-2.73c0-1.08-.24-1.87-.72-2.36-.48-.5-1.26-.75-2.34-.75h-2.34c-1.08,0-1.86.25-2.34.75-.48.5-.72,1.28-.72,2.36v2.73c0,.28.14.43.43.43Z"/>
          <path class="cls-7" d="M309.3,74.27h-2.68c-.48,0-.72-.24-.72-.72v-20.27c0-.48.24-.72.72-.72h2.68c.48,0,.72.24.72.72v1.53h.17c.68-1.5,2.11-2.26,4.3-2.26h1.87c2.07,0,3.66.57,4.77,1.7,1.11,1.14,1.66,2.77,1.66,4.9v14.39c0,.48-.26.72-.77.72h-2.68c-.48,0-.72-.24-.72-.72v-14.22c0-2.1-1.04-3.15-3.11-3.15h-2c-2.33,0-3.49,1.21-3.49,3.62v13.75c0,.48-.24.72-.72.72Z"/>
          <path class="cls-7" d="M336,74.27h-2.17c-2.04,0-3.61-.57-4.71-1.72-1.09-1.15-1.64-2.77-1.64-4.88v-8.52c0-2.13.55-3.76,1.64-4.9,1.09-1.14,2.66-1.7,4.71-1.7h2.17c2.19,0,3.6.75,4.26,2.26h.17v-9.75c0-.48.24-.72.72-.72h2.73c.48,0,.72.24.72.72v28.49c0,.48-.24.72-.72.72h-2.73c-.48,0-.72-.24-.72-.72v-1.53h-.17c-.65,1.5-2.07,2.26-4.26,2.26ZM340.42,67.03v-7.24c0-2.41-1.16-3.62-3.49-3.62h-2.26c-2.04,0-3.07,1.05-3.07,3.15v8.18c0,2.1,1.02,3.15,3.07,3.15h2.26c2.33,0,3.49-1.21,3.49-3.62Z"/>
          <path class="cls-7" d="M357.8,74.27h-1.66c-2.1,0-3.73-.58-4.88-1.75-1.15-1.16-1.72-2.78-1.72-4.85v-8.52c0-2.1.58-3.73,1.72-4.88,1.15-1.15,2.77-1.72,4.88-1.72h9.54c.51,0,.77.24.77.72v20.27c0,.48-.26.72-.77.72h-2.68c-.48,0-.72-.24-.72-.72v-1.53h-.17c-.68,1.5-2.11,2.26-4.3,2.26ZM362.27,67.03v-10.43c0-.28-.16-.43-.47-.43h-5.07c-2.04,0-3.07,1.05-3.07,3.15v8.18c0,2.1,1.02,3.15,3.07,3.15h2.04c2.33,0,3.49-1.21,3.49-3.62Z"/>
          <path class="cls-7" d="M379.51,74.27h-7.83c-.48,0-.72-.24-.72-.72v-2.09c0-.45.24-.68.72-.68h7.15c1.84,0,2.77-.64,2.77-1.92v-.51c0-1.13-.67-2-2-2.6l-4.64-2.21c-1.45-.68-2.5-1.43-3.15-2.26-.65-.82-.98-1.9-.98-3.24,0-3.66,2.03-5.49,6.09-5.49h7.07c.45,0,.68.24.68.72v2.09c0,.48-.23.72-.68.72h-6.22c-.85,0-1.5.15-1.96.45-.45.3-.68.69-.68,1.17v.47c0,.91.72,1.7,2.17,2.38l4.68,2.38c1.48.65,2.49,1.43,3.04,2.32s.83,2.05.83,3.47c0,3.69-2.11,5.54-6.34,5.54Z"/>
        </g>
        <path class="cls-7" d="M426.85,17.19c-2.3-2.41-4.61-4.81-6.93-7.2-.32-.33-.24-.27-.99-1.12l-48.74-.16c-.77.77-1.37,1.5-1.97,2.12-2,2.05-3.95,4.15-5.93,6.22q-1.95,2.05-1.94,4.89c.02,3.57,2.33,6.65,5.77,7.6,2.37.63,4.25.04,4.25.04,1.61-.43,2.98-1.3,4.01-2.6.44-.55.6-.37.94.04,3.15,3.78,9,3.79,12.15,0,.35-.42.52-.51.93-.04,3.41,3.89,8.89,3.85,12.28-.08.3-.34.45-.37.76-.02,3.52,4.01,8.92,3.99,12.4-.04.27-.32.39-.36.67,0,1.07,1.34,2.43,2.28,4.09,2.72.54.14.71.39.7.92-.02,1.8-.01,14.77,0,16.57,0,.17,0,.33.02.5l2.69.81c.07-.17.12-.37.12-.59.02-2.07.02-15.3,0-17.37,0-.49.15-.7.63-.82,2.05-.53,3.62-1.73,4.75-3.52.54-.86.83-1.81,1.11-2.77v-4.13c-.52-.73-1.17-1.33-1.78-1.97ZM368.96,26.99c-2.99.25-5.34-1.56-5.74-4.41q-.21-1.51,1.27-1.51h3.79c1.51,0,3.02.01,4.52,0,.44,0,.63.12.64.6.08,2.69-1.95,5.11-4.49,5.32ZM374.28,17.78c-.17.31-.34.54-.75.54-2.75-.02-5.5-.01-8.25-.01-.04,0-.08-.03-.21-.08,1.95-2.06,3.86-4.07,5.77-6.08.22-.23.49-.27.79-.27,1.73,0,3.46.01,5.19,0,.53,0,.62.12.36.6-.98,1.76-1.93,3.54-2.89,5.32ZM382.18,26.98c-2.86.3-5.21-1.33-5.81-4.03-.37-1.68-.22-1.88,1.46-1.88h3.6c1.44,0,2.89.03,4.33-.01.64-.02.79.23.78.82-.04,2.59-1.96,4.86-4.35,5.11ZM388.1,12.44c-.4,1.77-.79,3.55-1.15,5.33-.09.45-.32.56-.74.55-1.4-.02-2.79,0-4.19,0s-2.79-.01-4.19,0c-.5,0-.58-.12-.33-.56.98-1.79,1.95-3.58,2.9-5.39.19-.36.42-.51.83-.51,2.13.02,4.26.02,6.39,0,.44,0,.59.11.48.58ZM389.84,17.67c.41-1.75.77-3.51,1.14-5.26.08-.39.28-.55.69-.54,1.91.02,3.81.02,5.72,0,.46,0,.62.2.7.61.35,1.71.7,3.43,1.11,5.13.15.62-.06.73-.61.72-1.35-.02-2.71,0-4.06,0s-2.75-.01-4.12,0c-.48,0-.69-.09-.56-.65ZM394.57,27.01c-2.94.01-5.21-2.29-5.21-5.24,0-.57.2-.72.73-.71,1.49.03,2.97,0,4.46,0s2.97.02,4.46,0c.53-.01.68.17.68.69.01,2.93-2.23,5.24-5.12,5.26ZM402.08,17.72c-.36-1.76-.74-3.52-1.14-5.27-.1-.44,0-.59.47-.59,2.11.02,4.22.01,6.33,0,.35,0,.58.12.75.43,1.02,1.85,2.04,3.69,3.07,5.53.22.4.1.49-.31.49-1.42-.01-2.84,0-4.26,0s-2.75-.02-4.13,0c-.46,0-.68-.14-.77-.6ZM407.6,27.01c-2.94-.01-5.2-2.39-5.09-5.33.02-.46.19-.61.64-.61,3,.01,5.99.01,8.99,0,.47,0,.61.17.62.62.09,2.99-2.18,5.33-5.17,5.32ZM414.75,17.81c-.98-1.79-1.97-3.58-2.97-5.36-.28-.49-.13-.59.37-.58,1.75.02,3.51.01,5.26,0,.32,0,.6.05.84.3,1.89,2,3.78,3.99,5.82,6.14h-2.69c-1.91,0-3.82-.01-5.73,0-.43,0-.7-.14-.91-.52ZM420.77,27.01c-2.96,0-5.25-2.36-5.17-5.33.01-.46.16-.62.62-.62,3.04.01,6.08,0,9.12,0,.36,0,.58.06.59.5.03,3.44-2.62,5.53-5.16,5.44Z"/>
        <path class="cls-6" d="M401.22,45.36c-.85-.24-1.57.28-1.57,1.1-.01.28.09.54.17.8.68,2.29,1.37,4.57,2.06,6.86,1.55,5.16,3.1,10.31,4.64,15.47.15.51.44.88.98.97.57.09.98-.17,1.29-.65,1.14-1.74,2.31-3.46,3.45-5.19.18-.28.29-.29.52-.05,1.79,1.81,3.59,3.6,5.39,5.4.7.7,1.34.7,2.04,0,1.4-1.4,2.8-2.8,4.21-4.21.72-.72.73-1.35,0-2.07-1.8-1.8-3.59-3.6-5.4-5.39-.22-.22-.23-.35.05-.49.04-.02.08-.05.12-.08,1.72-1.15,3.44-2.29,5.16-3.44.44-.29.65-.7.57-1.22-.07-.52-.4-.82-.89-.97-.14-.04-.27-.09-.41-.13-5.91-1.77-11.82-3.55-17.73-5.32-1.55-.47-3.11-.94-4.67-1.39Z"/>
        <path class="cls-5" d="M401.61,39.83c0-.56,0-1.13,0-1.69,0-.56,0-1.13,0-1.69,0-.73-.49-1.23-1.17-1.23-.7,0-1.18.49-1.18,1.21,0,1.13,0,2.25,0,3.38,0,.71.51,1.22,1.19,1.21.67,0,1.16-.49,1.16-1.2Z"/>
        <path class="cls-5" d="M394.67,46.79c.69,0,1.18-.51,1.18-1.18,0-.66-.49-1.16-1.16-1.17-1.16,0-2.33,0-3.49,0-.68,0-1.15.5-1.16,1.16,0,.67.49,1.18,1.18,1.19.58,0,1.15,0,1.73,0,.58,0,1.15,0,1.73,0Z"/>
        <path class="cls-5" d="M394.96,41.82c.5.49,1.26.48,1.71.02.46-.46.46-1.21-.03-1.71-.73-.76-1.49-1.49-2.23-2.24-.24-.24-.52-.38-.71-.37-.66,0-1.05.22-1.25.68-.22.5-.13.97.25,1.36.75.76,1.5,1.52,2.26,2.26Z"/>
        <path class="cls-5" d="M405.83,41.89c.82-.78,1.63-1.59,2.41-2.41.35-.36.38-.82.18-1.28-.2-.45-.57-.66-1.05-.67-.3-.01-.58.07-.79.28-.81.8-1.63,1.59-2.41,2.41-.44.46-.39,1.2.04,1.63.43.43,1.17.48,1.63.04Z"/>
        <path class="cls-5" d="M395,49.37c-.26.23-.5.49-.74.73-.52.52-1.06,1.04-1.57,1.58-.37.38-.45.84-.25,1.33.19.46.57.69,1.07.7.32.01.6-.09.82-.31.79-.78,1.59-1.56,2.36-2.36.45-.47.41-1.22-.03-1.66-.45-.44-1.17-.45-1.66,0Z"/>
      </g>
      <g>
        <g>
          <path class="cls-8" d="M739.79,44.33h-12.7l2.21-3.8h8.23l-5.98-10.04-12.18,20.6h-5.35l15.43-25.69c.27-.47.59-.84.96-1.11.37-.27.81-.41,1.33-.41s.95.14,1.31.41c.36.27.67.64.94,1.11l15.24,25.32c1.69-3.04,1.8-6.87-.07-10.1l-17.2-29.79c-2.83-4.89-9.08-6.57-13.98-3.74l-29.74,17.17h5.91l10.45,12.37,10.48-12.37h5.98l-14.29,16.65v10.19h-4.69v-10.19l-14.11-16.49c-4.72,2.88-6.31,9.02-3.53,13.84l17.2,29.79c2.83,4.89,9.08,6.57,13.98,3.74l29.79-17.2c1.53-.88,2.74-2.1,3.6-3.5h-5.21l-4.02-6.75Z"/>
          <path class="cls-8" d="M688.25,24.25h-.4l.14.16c.07-.04.14-.09.22-.13l.05-.03Z"/>
          <path class="cls-8" d="M749.24,50.72c-.07.12-.14.25-.22.37h.44l-.22-.37Z"/>
        </g>
        <path class="cls-11" d="M758.26,50.38v-25.43c0-.47.24-.71.71-.71h10.27c2.03,0,3.63.56,4.78,1.69,1.15,1.13,1.73,2.72,1.73,4.78v13.91c0,2.03-.58,3.62-1.73,4.76-1.16,1.14-2.75,1.71-4.78,1.71h-10.27c-.47,0-.71-.24-.71-.71ZM762.77,47.54h5.89c2,0,3.01-1.03,3.01-3.09v-13.57c0-2.06-1-3.09-3.01-3.09h-5.89c-.31,0-.46.14-.46.42v18.88c0,.31.15.46.46.46Z"/>
        <path class="cls-8" d="M781.23,26.24v-3.8c0-.45.22-.67.67-.67h2.71c.45,0,.67.22.67.67v3.8c0,.47-.22.71-.67.71h-2.71c-.45,0-.67-.24-.67-.71Z"/>
        <path class="cls-11" d="M781.23,50.38v-19.88c0-.47.22-.71.67-.71h2.67c.47,0,.71.24.71.71v19.88c0,.28-.05.47-.15.56-.1.1-.27.15-.52.15h-2.67c-.47,0-.71-.24-.71-.71Z"/>
        <path class="cls-11" d="M794.09,51.09h-2.63c-.47,0-.71-.24-.71-.71v-19.88c0-.47.24-.71.71-.71h2.63c.47,0,.71.24.71.71v1.5h.17c.67-1.48,2.07-2.21,4.22-2.21h1.84c2.03,0,3.59.56,4.68,1.67,1.09,1.11,1.63,2.71,1.63,4.8v14.12c0,.47-.25.71-.75.71h-2.63c-.47,0-.71-.24-.71-.71v-13.95c0-2.06-1.02-3.09-3.05-3.09h-1.96c-2.28,0-3.42,1.18-3.42,3.55v13.49c0,.47-.24.71-.71.71Z"/>
        <path class="cls-11" d="M827.42,51.09h-9.02c-2.06,0-3.65-.57-4.78-1.71-1.13-1.14-1.69-2.73-1.69-4.76v-8.35c0-2.06.56-3.65,1.69-4.78,1.13-1.13,2.72-1.69,4.78-1.69h3.42c2.06,0,3.66.56,4.8,1.69,1.14,1.13,1.71,2.72,1.71,4.78v5.3c0,.5-.25.75-.75.75h-11.19c-.31,0-.46.14-.46.42v1.8c0,2.03,1.02,3.05,3.05,3.05h8.44c.5,0,.75.25.75.75v2.09c0,.45-.25.67-.75.67ZM816.39,39.48h7.48c.28,0,.42-.14.42-.42v-2.67c0-1.06-.24-1.83-.71-2.32-.47-.49-1.24-.73-2.3-.73h-2.3c-1.06,0-1.82.24-2.3.73-.47.49-.71,1.26-.71,2.32v2.67c0,.28.14.42.42.42Z"/>
        <path class="cls-11" d="M836.27,51.09h-2.63c-.47,0-.71-.24-.71-.71v-19.88c0-.47.24-.71.71-.71h2.63c.47,0,.71.24.71.71v1.59h.17c.28-.7.81-1.25,1.61-1.67.79-.42,1.68-.63,2.65-.63h1.55c.47,0,.71.24.71.71v2.17c0,.53-.24.75-.71.67h-2.51c-2.31,0-3.47,1.27-3.47,3.8v13.24c0,.47-.24.71-.71.71Z"/>
        <path class="cls-11" d="M856.65,51.09h-3.68c-2.06,0-3.65-.57-4.78-1.71-1.13-1.14-1.69-2.73-1.69-4.76v-8.35c0-2.06.56-3.65,1.69-4.78,1.13-1.13,2.72-1.69,4.78-1.69h3.68c2.03,0,3.63.56,4.78,1.69,1.15,1.13,1.73,2.72,1.73,4.78v8.35c0,2.03-.58,3.62-1.73,4.76-1.16,1.14-2.75,1.71-4.78,1.71ZM853.56,47.54h2.55c2,0,3.01-1.02,3.01-3.05v-8.1c0-2.03-1-3.05-3.01-3.05h-2.55c-1.06,0-1.82.24-2.3.73-.47.49-.71,1.26-.71,2.32v8.1c0,1.06.24,1.83.71,2.32.47.49,1.24.73,2.3.73Z"/>
        <g>
          <path class="cls-10" d="M762.85,67.79h-2.08c-.8,0-1.42-.23-1.88-.67-.46-.45-.68-1.08-.68-1.89v-6c0-.81.23-1.44.68-1.89s1.08-.68,1.88-.68h2.08c.8,0,1.42.23,1.88.68.46.45.68,1.08.68,1.89v.85c0,.16-.08.24-.24.24h-.78c-.16,0-.24-.08-.24-.24v-.8c0-1-.48-1.51-1.45-1.51h-1.78c-.96,0-1.44.5-1.44,1.51v5.9c0,1,.48,1.51,1.44,1.51h1.78c.97,0,1.45-.5,1.45-1.51v-.8c0-.16.08-.24.24-.24h.78c.16,0,.24.08.24.24v.85c0,.81-.23,1.44-.68,1.89-.46.45-1.08.67-1.88.67Z"/>
          <path class="cls-10" d="M768.59,67.79h-.78c-.16,0-.24-.08-.24-.24v-8.34c0-.16.08-.24.24-.24h.78c.16,0,.24.08.24.24v.69h.07c.12-.25.33-.47.66-.66s.7-.28,1.14-.28h.68c.15,0,.22.08.22.24v.64c0,.08-.02.14-.05.18-.03.04-.09.05-.17.04h-.93c-.52,0-.92.16-1.19.47-.28.31-.42.74-.42,1.28v5.73c0,.16-.08.24-.24.24Z"/>
          <path class="cls-10" d="M779.22,67.79h-3.67c-.8,0-1.42-.23-1.88-.67-.46-.45-.68-1.08-.68-1.89v-3.7c0-.81.23-1.44.68-1.89.46-.45,1.08-.67,1.88-.67h1.45c.8,0,1.42.23,1.87.67.45.45.67,1.08.67,1.89v2.2c0,.17-.08.26-.24.26h-4.9c-.12,0-.17.05-.17.16v1.06c0,1,.48,1.51,1.45,1.51h3.53c.16,0,.24.08.24.24v.62c0,.15-.08.23-.24.23ZM774.41,63.07h3.74c.12,0,.17-.06.17-.17v-1.33c0-.99-.48-1.49-1.45-1.49h-1.18c-.97,0-1.45.5-1.45,1.49v1.33c0,.12.06.17.17.17ZM777.06,55.63h1.04c.08,0,.13.02.16.07.02.05.01.1-.03.17l-1.51,1.82c-.12.12-.23.17-.35.17h-.57c-.16,0-.2-.08-.1-.24l1-1.77c.07-.15.19-.22.36-.22Z"/>
          <path class="cls-10" d="M785.02,67.79h-1.02c-.78,0-1.4-.23-1.83-.67-.44-.45-.66-1.08-.66-1.89v-3.7c0-.81.22-1.44.66-1.89.44-.45,1.05-.67,1.83-.67h1.02c.9,0,1.49.31,1.78.92h.07v-4.01c0-.16.07-.24.23-.24h.8c.15,0,.23.08.23.24v11.68c0,.16-.08.24-.23.24h-.8c-.15,0-.23-.08-.23-.24v-.67h-.07c-.29.61-.88.92-1.78.92ZM786.87,65.09v-3.43c0-.51-.14-.9-.42-1.18-.28-.28-.67-.42-1.19-.42h-1.06c-.96,0-1.44.5-1.44,1.51v3.6c0,1,.48,1.51,1.44,1.51h1.06c.52,0,.92-.14,1.19-.42.28-.28.42-.67.42-1.18Z"/>
          <path class="cls-10" d="M790.59,57.51v-1.63c0-.16.07-.24.23-.24h.8c.16,0,.24.08.24.24v1.63c0,.16-.08.24-.24.24h-.8c-.15,0-.23-.08-.23-.24ZM790.59,67.55v-8.34c0-.16.07-.24.23-.24h.8c.16,0,.24.08.24.24v8.34c0,.16-.08.24-.24.24h-.78c-.16,0-.24-.08-.24-.24Z"/>
          <path class="cls-10" d="M794.65,60.07h-.95c-.16,0-.24-.07-.24-.23v-.64c0-.16.08-.24.24-.24h.95c.12,0,.17-.05.17-.16v-1.49c0-.16.08-.24.24-.24h.78c.15,0,.23.08.23.24v1.49c0,.1.06.16.19.16h1.83c.17,0,.26.08.26.24v.64c0,.15-.09.23-.26.23h-1.83c-.13,0-.19.05-.19.16v4.98c0,.98.51,1.47,1.52,1.47h.67c.17,0,.26.08.26.24v.64c0,.15-.09.23-.26.23h-.83c-.8,0-1.43-.22-1.9-.67-.47-.44-.71-1.06-.71-1.86v-5.04c0-.1-.06-.16-.17-.16Z"/>
          <path class="cls-10" d="M804.24,67.79h-1.49c-.8,0-1.42-.23-1.88-.67-.46-.45-.68-1.08-.68-1.89v-3.7c0-.81.23-1.44.68-1.89.46-.45,1.08-.67,1.88-.67h1.49c.8,0,1.42.23,1.88.67.46.45.68,1.08.68,1.89v3.7c0,.81-.23,1.44-.68,1.89-.46.45-1.08.67-1.88.67ZM802.89,66.68h1.21c.97,0,1.45-.5,1.45-1.49v-3.63c0-.99-.48-1.49-1.45-1.49h-1.21c-.97,0-1.45.5-1.45,1.49v3.63c0,.99.48,1.49,1.45,1.49Z"/>
          <path class="cls-10" d="M812.01,67.79h-3.08c-.16,0-.24-.08-.24-.24v-.61c0-.15.08-.23.24-.23h2.91c.9,0,1.35-.33,1.35-1v-.33c0-.61-.29-1.03-.88-1.26l-2.04-.87c-.59-.24-1.01-.53-1.26-.86-.25-.33-.38-.76-.38-1.31,0-1.42.78-2.13,2.34-2.13h2.84c.16,0,.24.08.24.24v.61c0,.15-.08.23-.24.23h-2.61c-.42,0-.73.09-.94.26-.21.17-.32.37-.32.61v.29c0,.48.33.85.99,1.11l2.04.92c.6.23,1.01.54,1.22.92.21.38.32.91.32,1.57,0,1.38-.83,2.08-2.47,2.08Z"/>
          <path class="cls-10" d="M825.53,67.79h-2.06c-.8,0-1.42-.23-1.88-.67-.46-.45-.68-1.08-.68-1.89v-6c0-.81.23-1.44.68-1.89s1.08-.68,1.88-.68h2.06c.8,0,1.42.23,1.88.68.46.46.68,1.08.68,1.88v6c0,.8-.23,1.42-.68,1.88-.46.46-1.08.68-1.88.68ZM823.61,66.68h1.76c.97,0,1.45-.5,1.45-1.51v-5.9c0-1-.48-1.51-1.45-1.51h-1.76c-.96,0-1.44.5-1.44,1.51v5.9c0,1,.48,1.51,1.44,1.51Z"/>
          <path class="cls-10" d="M831.5,67.79h-.78c-.16,0-.24-.08-.24-.24v-8.34c0-.16.08-.24.24-.24h.78c.16,0,.24.08.24.24v.68h.07c.29-.61.88-.92,1.76-.92h.97c.78,0,1.4.23,1.83.67.44.45.66,1.08.66,1.89v6.02c0,.16-.08.24-.24.24h-.78c-.16,0-.24-.08-.24-.24v-5.97c0-1-.48-1.51-1.45-1.51h-.97c-.52,0-.92.14-1.19.42-.28.28-.42.67-.42,1.18v5.88c0,.16-.08.24-.24.24Z"/>
          <path class="cls-10" d="M840.44,67.79h-.78c-.16,0-.24-.08-.24-.24v-11.68c0-.16.08-.24.24-.24h.78c.16,0,.24.08.24.24v11.68c0,.16-.08.24-.24.24Z"/>
          <path class="cls-10" d="M843.25,57.51v-1.63c0-.16.07-.24.23-.24h.8c.16,0,.24.08.24.24v1.63c0,.16-.08.24-.24.24h-.8c-.15,0-.23-.08-.23-.24ZM843.25,67.55v-8.34c0-.16.07-.24.23-.24h.8c.16,0,.24.08.24.24v8.34c0,.16-.08.24-.24.24h-.78c-.16,0-.24-.08-.24-.24Z"/>
          <path class="cls-10" d="M848,67.79h-.78c-.16,0-.24-.08-.24-.24v-8.34c0-.16.08-.24.24-.24h.78c.16,0,.24.08.24.24v.68h.07c.29-.61.88-.92,1.76-.92h.97c.78,0,1.4.23,1.83.67.44.45.66,1.08.66,1.89v6.02c0,.16-.08.24-.24.24h-.78c-.16,0-.24-.08-.24-.24v-5.97c0-1-.48-1.51-1.45-1.51h-.97c-.52,0-.92.14-1.19.42-.28.28-.42.67-.42,1.18v5.88c0,.16-.08.24-.24.24Z"/>
          <path class="cls-10" d="M861.9,67.79h-3.67c-.8,0-1.42-.23-1.88-.67-.46-.45-.68-1.08-.68-1.89v-3.7c0-.81.23-1.44.68-1.89.46-.45,1.08-.67,1.88-.67h1.45c.8,0,1.42.23,1.87.67.45.45.67,1.08.67,1.89v2.2c0,.17-.08.26-.24.26h-4.9c-.12,0-.17.05-.17.16v1.06c0,1,.48,1.51,1.45,1.51h3.53c.16,0,.24.08.24.24v.62c0,.15-.08.23-.24.23ZM857.09,63.07h3.74c.12,0,.17-.06.17-.17v-1.33c0-.99-.48-1.49-1.45-1.49h-1.18c-.97,0-1.45.5-1.45,1.49v1.33c0,.12.06.17.17.17Z"/>
        </g>
        <path class="cls-11" d="M865.84,14.38c.41.18.82.35,1.23.52s.82.35,1.23.52c.5.2.99,0,1.19-.49.2-.47,0-.97-.47-1.18-.82-.36-1.65-.71-2.48-1.05-.48-.2-.97,0-1.17.48-.2.48,0,.98.48,1.2Z"/>
        <path class="cls-8" d="M883.57,17.03c-.17-2.68-3.03-3.78-5-2.56-1.24.76-2.49,1.49-3.74,2.23-2.43,1.44-4.86,2.87-7.29,4.31-1,.59-1.99,1.18-3.07,1.82.17-.72.28-1.32.45-1.91.72-2.6-.36-4.92-2.74-5.81-1.41-.53-2.71.17-2.98,1.55-.11.55-.28,1.09-.43,1.64-.55,2.08-1.1,4.16-1.65,6.24-.2.78-.4,1.56-.6,2.34h.13c.51,0,.99.04,1.47.09.32-1.26.65-2.52.98-3.78.56-2.09,1.13-4.18,1.68-6.28.11-.41.38-.46.7-.38,1.3.32,2.28,1.79,2.05,3.13-.18,1.05-.45,2.08-.68,3.12-.1.44-.18.89-.29,1.32-.1.39,0,.71.31.95.33.25.67.16,1-.03,1.17-.69,2.34-1.38,3.51-2.07,3.2-1.89,6.4-3.78,9.59-5.67.81-.48,1.61-.95,2.41-1.45.85-.52,1.84-.33,2.38.5.51.78.29,1.81-.55,2.32-2.28,1.38-4.58,2.73-6.88,4.1-.9.54-1.82,1.06-2.72,1.6-.22.13-.46.26-.53.54-.09.34-.05.66.23.89.26.21.58.24.86.08.74-.41,1.46-.84,2.18-1.26.67-.38,1.33-.39,1.95.08,1,.74.81,2.21-.36,2.91-.93.55-1.87,1.09-2.8,1.64-.2.12-.42.24-.56.45-.2.3-.18.61.03.86.2.25.48.45.85.28.77-.35,1.47-.81,2.19-1.25.67-.41,1.35-.46,2.01-.03.65.42.82,1.05.68,1.78-.09.51-.44.82-.84,1.07-1,.62-2.03,1.21-3.04,1.82-.56.34-.69.73-.42,1.2.22.38.67.47,1.19.18.5-.27.97-.58,1.47-.85.91-.51,1.9-.28,2.37.54.48.83.18,1.86-.69,2.38-1.93,1.14-3.87,2.27-5.8,3.42-1.06.62-2.08,1.3-3.19,1.83-1.08.5-2.18.78-3.3.85v.88c0,.24-.02.47-.03.7.86-.04,1.72-.2,2.56-.44,1.42-.4,2.65-1.17,3.89-1.92,2.25-1.35,4.54-2.66,6.79-4.03,1.15-.7,1.67-1.78,1.55-3.12-.08-.97-.51-1.75-1.34-2.3-.26-.17-.49-.32-.17-.69.4-.46.6-1.06.63-1.65.08-1.39-.5-2.48-1.74-3.15-.27-.15-.21-.24-.12-.43.79-1.56.48-3.15-.88-4.2-.36-.28-.25-.37.06-.55,1.6-.94,3.21-1.88,4.79-2.86,1.09-.67,1.58-1.72,1.51-2.95Z"/>
        <path class="cls-11" d="M874.13,13.07c.48.2.97,0,1.19-.5.17-.4.34-.8.51-1.2s.34-.8.51-1.2c.21-.52.02-1.02-.46-1.22-.49-.21-.98,0-1.2.51-.34.8-.68,1.6-1.02,2.4-.21.51,0,1.02.48,1.22Z"/>
        <path class="cls-11" d="M869.99,11.98c.21.5.75.72,1.21.53.46-.19.69-.72.49-1.23-.29-.76-.61-1.51-.91-2.26-.1-.24-.26-.43-.39-.48-.47-.2-.81-.16-1.09.11-.3.29-.39.65-.23,1.04.3.76.61,1.53.92,2.28Z"/>
      </g>
      <g>
        <g>
          <path class="cls-2" d="M633.48,42.56c0-4.28-3.49-7.77-7.77-7.77h-20.64c-4.28,0-7.77,3.49-7.77,7.77v27.48h5.49v-27.48c0-1.25,1.02-2.27,2.27-2.27h20.64c1.25,0,2.27,1.02,2.27,2.27v27.3h5.49v-27.3h0Z"/>
          <path class="cls-2" d="M591.21,42.49s0-.09-.01-.14c-.01-.16-.03-.31-.05-.46,0-.03,0-.06-.01-.08-.03-.18-.06-.37-.1-.54,0-.03-.01-.05-.02-.08-.04-.16-.08-.32-.12-.47,0-.02,0-.04-.01-.05h0c-.82-2.8-3.04-5-5.84-5.81h0s-.05-.01-.07-.02c-.14-.04-.27-.07-.41-.1-.04,0-.07-.02-.11-.02-.17-.04-.34-.06-.51-.09-.05,0-.09-.01-.14-.02-.13-.02-.27-.03-.4-.04-.05,0-.1,0-.16-.01-.18-.01-.36-.02-.54-.02h-25.93c-.29,0-.58.01-.87.04-4.29.44-7.65,4.07-7.65,8.48h0v18.33h0c0,.19,0,.37.02.55,0,.05,0,.09.01.14.01.16.03.31.05.47,0,.03,0,.06.01.08.03.18.06.37.1.55,0,.03.01.05.02.08.04.16.08.32.12.47,0,.02,0,.04.01.05h0c.82,2.8,3.04,5,5.84,5.81h0s.05.01.07.02c.14.04.27.07.41.1.04,0,.07.02.11.02.17.04.34.06.51.09.05,0,.09.01.14.02.13.02.27.03.4.04.05,0,.1,0,.16.01.18.01.36.02.54.02h25.93c.29,0,.58-.01.87-.04,4.29-.44,7.65-4.07,7.65-8.48h0v-18.33h0c0-.19,0-.37-.02-.55ZM556.77,63.87c-1.38,0-2.5-1.12-2.5-2.5v-2.94h0v-15.39c0-.26.04-.51.11-.74.32-1.01,1.27-1.75,2.38-1.75h22.78s3.16,0,3.16,0c1.38,0,2.5,1.12,2.5,2.5v2.94h0v15.39c0,.26-.04.51-.11.74-.32,1.01-1.27,1.75-2.38,1.75h-22.78s-3.16,0-3.16,0Z"/>
        </g>
        <g>
          <path class="cls-3" d="M509.32,27.45h-2.69c-.48,0-.73-.24-.73-.73V.73c0-.48.24-.73.73-.73h9.99c2.08,0,3.71.59,4.89,1.77,1.18,1.18,1.77,2.81,1.77,4.89v3.59c0,3.27-1.35,5.34-4.06,6.19v.17l4.74,9.99c.31.57.13.85-.56.85h-2.65c-.68,0-1.12-.24-1.32-.73l-4.57-9.82h-4.31c-.34,0-.51.14-.51.43v9.39c0,.48-.24.73-.73.73ZM510.51,13.49h5.42c2.11,0,3.16-1.04,3.16-3.12v-3.59c0-2.11-1.05-3.16-3.16-3.16h-5.42c-.31,0-.47.14-.47.43v9.01c0,.28.16.43.47.43Z"/>
          <path class="cls-3" d="M536.68,27.45h-1.92c-2.05,0-3.62-.58-4.72-1.73-1.1-1.15-1.64-2.78-1.64-4.89V6.4c0-.48.24-.73.73-.73h2.69c.48,0,.73.24.73.73v14.26c0,2.11,1.02,3.16,3.07,3.16h2.05c2.33,0,3.5-1.21,3.5-3.63V6.4c0-.48.24-.73.73-.73h2.69c.51,0,.77.24.77.73v20.32c0,.48-.26.73-.77.73h-2.69c-.48,0-.73-.24-.73-.73v-1.54h-.17c-.68,1.51-2.12,2.26-4.31,2.26Z"/>
          <path class="cls-3" d="M551.32,9.31h-2.05c-.28,0-.48-.05-.58-.15-.1-.1-.15-.28-.15-.53v-2.22c0-.48.24-.73.73-.73h2.05c.28,0,.43-.14.43-.43V1.41c0-.48.26-.73.77-.73h2.69c.48,0,.73.24.73.73v3.84c0,.28.16.43.47.43h3.97c.51,0,.77.24.77.73v2.22c0,.46-.26.68-.77.68h-3.97c-.31,0-.47.14-.47.43v10.97c0,2.08,1.07,3.12,3.2,3.12h1.66c.51,0,.77.24.77.73v2.22c0,.46-.26.68-.77.68h-2.3c-2.11,0-3.76-.57-4.95-1.71-1.2-1.14-1.79-2.75-1.79-4.82v-11.18c0-.28-.14-.43-.43-.43Z"/>
          <path class="cls-3" d="M573.52,27.45h-1.66c-2.11,0-3.74-.58-4.89-1.75-1.15-1.17-1.73-2.79-1.73-4.87v-8.54c0-2.11.58-3.74,1.73-4.89s2.78-1.73,4.89-1.73h9.56c.51,0,.77.24.77.73v20.32c0,.48-.26.73-.77.73h-2.69c-.48,0-.73-.24-.73-.73v-1.54h-.17c-.68,1.51-2.12,2.26-4.31,2.26ZM578,20.19v-10.46c0-.28-.16-.43-.47-.43h-5.08c-2.05,0-3.07,1.05-3.07,3.16v8.2c0,2.11,1.02,3.16,3.07,3.16h2.05c2.33,0,3.5-1.21,3.5-3.63Z"/>
          <path class="cls-3" d="M595.29,27.45h-7.85c-.48,0-.73-.24-.73-.73v-2.09c0-.46.24-.68.73-.68h7.17c1.85,0,2.77-.64,2.77-1.92v-.51c0-1.14-.67-2.01-2.01-2.6l-4.65-2.22c-1.45-.68-2.5-1.44-3.16-2.26-.66-.82-.98-1.91-.98-3.24,0-3.67,2.03-5.51,6.1-5.51h7.09c.45,0,.68.24.68.73v2.09c0,.48-.23.73-.68.73h-6.23c-.85,0-1.51.15-1.96.45-.46.3-.68.69-.68,1.17v.47c0,.91.73,1.71,2.18,2.39l4.7,2.39c1.48.66,2.5,1.43,3.05,2.33.56.9.83,2.06.83,3.48,0,3.7-2.12,5.55-6.36,5.55Z"/>
        </g>
        <g>
          <path class="cls-2" d="M500.17,73.5c.24-.38.61-.74.69-1.15.11-.56-.42-1.02-1.06-1.05-.69-.03-1.38,0-2.07-.01-.55,0-.99.2-1.16.74-.18.55,0,1.02.5,1.33.05.03.08.09.12.14,1,0,1.99,0,2.99,0Z"/>
          <path class="cls-2" d="M526.65,73.5c.58-.29.93-.7.78-1.39-.13-.55-.57-.81-1.37-.82-.48,0-.95,0-1.43,0-.64-.02-1.24.04-1.49.76-.24.68.17,1.09.65,1.46h2.86Z"/>
          <path class="cls-2" d="M520.03,73.5c.55-.31.95-.73.75-1.41-.2-.67-.75-.83-1.39-.8-.47.02-.95.01-1.43,0-.64-.02-1.23.06-1.47.77-.24.69.19,1.08.68,1.44h2.86Z"/>
          <path class="cls-2" d="M513.41,73.5c.84-.6,1.01-1.3.46-1.87-.49-.5-3.29-.5-3.78,0-.55.57-.38,1.27.46,1.87.95,0,1.9,0,2.86,0Z"/>
          <path class="cls-2" d="M506.79,73.5c.41-.3.79-.62.74-1.19-.05-.58-.5-.99-1.15-1.01-.6-.02-1.21,0-1.81-.01-.64-.02-1.19.13-1.38.81-.2.68.19,1.1.75,1.41.95,0,1.9,0,2.86,0Z"/>
          <path class="cls-2" d="M493.42,73.5c.58-.29.93-.7.78-1.39-.13-.55-.57-.81-1.37-.82-.48,0-.95.01-1.42,0-.63-.02-1.2.09-1.44.74-.25.64.1,1.11.6,1.48.95,0,1.9,0,2.86,0Z"/>
          <path class="cls-4" d="M530.07,70.44c-3.02-3.42-6.05-6.83-9.07-10.25-1.24-1.41-2.21-2.98-2.88-4.74-2.36-6.22-.72-13.64,4.39-17.89,4.42-3.67,11.06-3.75,15.49-.09,5.98,4.94,7.43,14.17,3.15,20.66-1.05,1.59-2.38,3.01-3.64,4.46-2.35,2.71-4.75,5.38-7.25,8.21-.1-.17-.14-.28-.21-.36ZM538.77,57.73c4.32-5.45,3.26-14.05-2.09-18.48-4.28-3.55-10.6-2.87-14.25,1.52-4.17,5.01-4.29,12.43-.15,17.46,2.57,3.12,5.32,6.08,8.06,9.2,2.86-3.27,5.79-6.37,8.43-9.7Z"/>
          <path class="cls-4" d="M482.86,25.89c-3.69-4.42-3.65-10.85-.02-15.3,3.17-3.89,8.56-4.66,12.69-1.82,4.8,3.31,6.21,10.8,2.87,15.83-1.1,1.66-2.53,3.11-3.85,4.63-1.43,1.65-2.89,3.26-4.39,4.96-2.49-2.81-4.97-5.5-7.31-8.3ZM496.15,24.01c2.73-3.48,2.44-8.88-.48-12.17-3.31-3.72-8.77-3.34-11.62.82-2.47,3.59-2.29,8.48.5,11.82,1.8,2.15,3.71,4.21,5.64,6.4,2.04-2.33,4.12-4.51,5.97-6.86Z"/>
          <path class="cls-2" d="M478.25,47.6c.07.43.13.99.26,1.53.15.6.74.95,1.27.83.6-.14.94-.68.87-1.31-.06-.59-.1-1.19-.12-1.79-.02-.71-.41-1.21-1.03-1.26-.62-.05-1.09.39-1.17,1.11-.03.26-.05.51-.09.9Z"/>
          <path class="cls-2" d="M509.46,31.3c-.66.14-1.14.5-1.24,1.04-.1.57.19,1.04.77,1.25.64.23,1.29.45,1.94.68.57.2,1.14,0,1.4-.47.27-.5.18-1.13-.35-1.42-.8-.43-1.67-.73-2.51-1.08Z"/>
          <path class="cls-2" d="M483.72,41.29c-.78.29-1.58.54-2.33.9-.6.29-.76.95-.47,1.49.27.51.83.68,1.45.46.57-.2,1.14-.38,1.72-.54.67-.19,1.05-.68.96-1.26-.1-.61-.57-.95-1.33-1.05Z"/>
          <path class="cls-2" d="M505.28,61.77c-.01.91.66,1.45,1.36,1.23,1-.31,1.8-.94,2.39-1.79.32-.46.21-1.08-.21-1.4-.44-.33-.91-.37-1.37-.02-.57.43-1.15.84-1.69,1.3-.24.21-.39.54-.49.68Z"/>
          <path class="cls-2" d="M485.93,64.48c.2.25.38.67.67.78.32.12.83.08,1.13-.1.64-.39,1.2-.91,1.77-1.4.43-.37.53-.85.24-1.34-.28-.47-.72-.71-1.26-.5-.98.37-1.74,1.02-2.33,1.88-.1.15-.12.36-.22.68Z"/>
          <path class="cls-2" d="M507.16,54.28c.08.32.09.47.15.61.29.69.58,1.38.9,2.06.24.52.67.72,1.22.6.55-.12.89-.5.84-1.06-.09-1.05-.5-2-1.21-2.78-.31-.34-.77-.47-1.17-.2-.31.21-.53.55-.72.77Z"/>
          <path class="cls-2" d="M508.97,43.59c.36-.07,1.07-.17,1.75-.36.68-.18,1.01-.79.84-1.39-.16-.57-.74-.86-1.4-.73-.55.1-1.1.2-1.66.26-.83.09-1.29.5-1.26,1.17.04.66.57,1.07,1.72,1.05Z"/>
          <path class="cls-2" d="M496.81,53.52c.41,0,.82.03,1.23,0,.56-.06.97-.52.95-1.05-.02-.55-.29-1.01-.86-1.05-.9-.06-1.81-.07-2.71.01-.56.05-.84.52-.82,1.07.03.56.34.94.91,1.01.43.05.86,0,1.29,0,0,0,0,0,0,0Z"/>
          <path class="cls-2" d="M485.07,68.71c.18.89.55,1.85,1.32,2.59.38.37.88.39,1.31.08.45-.32.62-.78.38-1.31-.3-.69-.63-1.37-.97-2.04-.25-.51-.69-.72-1.24-.58-.54.14-.82.53-.81,1.25Z"/>
          <path class="cls-2" d="M503.76,33.62c.39,0,.78.04,1.16,0,.64-.08,1.04-.56,1.02-1.14-.03-.59-.45-1.02-1.11-1.04-.73-.03-1.47-.03-2.2,0-.63.03-1.03.43-1.07,1-.04.6.32,1.07.97,1.16.4.05.82.01,1.23.01,0,0,0,0,0,0Z"/>
          <path class="cls-2" d="M512.66,37.34c-.08.44-.15.89-.24,1.33-.14.72.2,1.33.82,1.46.62.13,1.16-.23,1.31-.95.13-.63.23-1.28.24-1.92.01-.98-.43-1.5-1.16-1.49-.71.01-1.06.53-.99,1.56Z"/>
          <path class="cls-2" d="M496.15,41.36c-.43.02-.87.01-1.29.07-.58.08-.88.48-.89,1.03-.01.55.27,1.02.84,1.06.9.06,1.81.07,2.71,0,.57-.04.85-.51.83-1.07-.02-.56-.33-.94-.9-1.02-.43-.06-.86-.05-1.29-.07Z"/>
          <path class="cls-2" d="M484.14,53.55c.21,0,.43,0,.64-.03.57-.09.88-.47.9-1.02.02-.53-.23-.94-.76-1.06-.8-.18-1.6-.33-2.41-.44-.53-.08-1.04.32-1.14.85-.11.59.14,1.05.68,1.24.67.23,1.37.36,2.05.54l.02-.07Z"/>
          <path class="cls-2" d="M503.43,53.53c.41,0,.82.03,1.23,0,.58-.06.96-.48.96-1.03,0-.57-.27-1.02-.83-1.06-.9-.07-1.81-.07-2.71,0-.57.04-.84.51-.85,1.06-.01.53.4.98.97,1.04.41.04.82,0,1.23,0,0,0,0,0,0,0Z"/>
          <path class="cls-2" d="M500.9,63.51c.37,0,.74.02,1.1,0,.62-.04,1.03-.43,1.09-.99.05-.55-.31-1.1-.9-1.15-.86-.07-1.73-.07-2.58,0-.61.05-.93.56-.89,1.15.04.55.43.92,1.02.99.04,0,.09,0,.13,0,.35,0,.69,0,1.04,0,0,0,0,0,0,0Z"/>
          <path class="cls-2" d="M502.75,41.41c-.39,0-.78-.02-1.17,0-.61.05-.92.45-.98,1.02-.06.52.33,1.05.89,1.09.88.06,1.77.06,2.65,0,.57-.04.84-.48.85-1.05,0-.56-.36-.98-.94-1.05-.43-.05-.86,0-1.29,0h0Z"/>
          <path class="cls-2" d="M489.49,41.42c-.41,0-.82-.04-1.23,0-.58.06-.95.49-.95,1.04,0,.57.29,1.01.85,1.05.9.07,1.81.07,2.71,0,.57-.05.85-.52.82-1.07-.03-.55-.34-.94-.91-1.01-.43-.05-.86-.04-1.29-.06,0,.02,0,.03,0,.05Z"/>
          <path class="cls-2" d="M497.09,31.44c-.41,0-.82-.03-1.23,0-.57.06-.9.43-.95.98-.04.55.21,1.05.77,1.1.94.08,1.89.08,2.83,0,.56-.05.81-.54.76-1.11-.05-.57-.39-.91-.95-.97-.41-.04-.82,0-1.23,0Z"/>
          <path class="cls-2" d="M494.29,63.5c.39,0,.78.03,1.17,0,.56-.06.91-.38.97-.96.06-.6-.21-1.09-.8-1.14-.92-.09-1.85-.08-2.77,0-.56.05-.81.53-.8,1.09.02.55.42.94.99,1.01.04,0,.09,0,.13,0,.37,0,.73,0,1.1,0,0,0,0,0,0-.01Z"/>
          <path class="cls-2" d="M490.16,53.52c.41,0,.82.03,1.23,0,.56-.06.98-.51.95-1.04-.02-.55-.28-1.01-.86-1.05-.9-.06-1.81-.07-2.71,0-.56.05-.84.5-.82,1.07.02.57.34.94.91,1.01.43.05.86,0,1.29,0,0,0,0,0,0,0Z"/>
          <path class="cls-4" d="M536.98,47.96c.07,3.56-2.94,6.65-6.53,6.71-3.62.06-6.69-2.9-6.77-6.54-.08-3.6,2.91-6.66,6.57-6.73,3.62-.07,6.66,2.89,6.73,6.56ZM525.9,48.03c0,2.4,2.02,4.42,4.42,4.43,2.42.01,4.46-2.05,4.43-4.47-.04-2.44-2.01-4.39-4.44-4.37-2.43.02-4.42,2.01-4.41,4.42Z"/>
          <path class="cls-4" d="M489.87,11.48c3.27-.05,6.05,2.69,6.13,6.04.07,3.26-2.68,6.07-6.02,6.14-3.28.07-6.07-2.65-6.16-6-.09-3.29,2.69-6.12,6.05-6.18ZM489.9,21.44c2.11,0,3.89-1.79,3.88-3.89-.02-2.09-1.75-3.83-3.85-3.86-2.09-.03-3.89,1.75-3.91,3.86-.01,2.11,1.76,3.89,3.88,3.89Z"/>
        </g>
      </g>
      <g>
        <path class="cls-12" d="M112.56,21.68c-.1-.12-.28-.14-.4-.05l-32.25,25.69c-.12.1-.14.28-.05.4.06.07.14.11.22.11.06,0,.13-.02.18-.06l32.25-25.69c.12-.1.14-.28.05-.4h0Z"/>
        <path class="cls-12" d="M64.61,61.34c1.78,0,3.29-1.13,3.88-2.7h18.54c.79,0,1.43-.64,1.43-1.43s-.64-1.43-1.43-1.43h-18.54c-.58-1.58-2.1-2.7-3.88-2.7-2.28,0-4.13,1.85-4.13,4.13s1.85,4.13,4.13,4.13h0ZM64.61,55.93c.7,0,1.28.57,1.28,1.28s-.57,1.28-1.28,1.28-1.28-.57-1.28-1.28.57-1.28,1.28-1.28Z"/>
        <path class="cls-12" d="M87.36,62.99h-26.98c-.58-1.58-2.1-2.7-3.88-2.7-2.28,0-4.13,1.85-4.13,4.13s1.85,4.13,4.13,4.13c1.78,0,3.29-1.13,3.88-2.7h26.98c.79,0,1.43-.64,1.43-1.43s-.64-1.43-1.43-1.43h0ZM56.5,65.69c-.7,0-1.28-.57-1.28-1.28s.57-1.28,1.28-1.28,1.28.57,1.28,1.28-.57,1.28-1.28,1.28Z"/>
        <path class="cls-9" d="M183.33,25.41h-26.76c-5.55,0-10.07,4.52-10.07,10.07v35.62h7.12v-35.62c0-1.63,1.32-2.95,2.95-2.95h26.76c1.63,0,2.95,1.32,2.95,2.95v35.39h7.12v-35.39c0-5.55-4.52-10.07-10.07-10.07h0Z"/>
        <path class="cls-12" d="M127.58,25.06h-14.84l-9.86,7.82h24.7c1.78,0,3.24,1.45,3.24,3.24v23.76c0,1.78-1.45,3.24-3.24,3.24h-33.62c-1.78,0-3.24-1.45-3.24-3.24v-17.36l-7.82,6.19v11.17c0,6.09,4.96,11.05,11.05,11.05h33.62c6.09,0,11.05-4.96,11.05-11.05v-23.76c0-6.09-4.96-11.05-11.05-11.05h0Z"/>
        <path class="cls-1" d="M0,40.26v-23.55h13.64c1.66,0,3.2.28,4.6.84,1.4.56,2.61,1.35,3.63,2.36,1.01,1.01,1.81,2.23,2.38,3.64.57,1.41.86,2.98.86,4.68s-.29,3.29-.86,4.76c-.57,1.47-1.37,2.74-2.38,3.81-1.01,1.07-2.23,1.91-3.63,2.53-1.4.61-2.94.92-4.6.92H0ZM13.65,36.14c1.06,0,2.03-.19,2.93-.58s1.67-.92,2.33-1.6c.66-.68,1.17-1.49,1.54-2.45.37-.95.55-1.98.55-3.08s-.18-2.12-.55-3.06c-.37-.94-.88-1.74-1.54-2.41-.66-.67-1.43-1.19-2.33-1.57-.89-.38-1.87-.57-2.93-.57H4.11v15.32h9.54Z"/>
        <path class="cls-1" d="M49.89,40.26l-3.53-5.93h-11.14l1.94-3.34h7.22l-5.25-8.81-10.69,18.08h-4.7l13.54-22.54c.24-.41.52-.73.84-.97s.71-.36,1.17-.36.84.12,1.15.36c.31.24.59.56.83.97l13.57,22.54h-4.96,0Z"/>
        <path class="cls-1" d="M60.74,40.26v-19.44h-8.94v-4.11h21.99v4.11h-8.94v19.44h-4.11Z"/>
        <path class="cls-1" d="M81.96,34.33h8.97l4.78-3.85-7.69-12.77c-.24-.41-.51-.73-.83-.97-.31-.24-.7-.36-1.15-.36s-.84.12-1.17.36c-.32.24-.61.56-.84.97l-13.54,22.54h4.7l10.69-18.08,5.25,8.81h-7.22l-1.94,3.34h0Z"/>
      </g>
    </g>
  </g>
</svg>