<?xml version="1.0" encoding="UTF-8"?>
<svg id="Capa_2" data-name="Capa 2" xmlns="http://www.w3.org/2000/svg" viewBox="0 0 1073.23 73.5">
  <defs>
    <style>
      .cls-1 {
        fill: #213575;
      }

      .cls-2 {
        fill: #73ca97;
      }

      .cls-3 {
        fill: #9c3;
      }

      .cls-4 {
        fill: #606060;
      }

      .cls-5 {
        fill: #f0c82f;
      }

      .cls-6 {
        fill: #ffca33;
      }

      .cls-7 {
        fill: #609;
      }

      .cls-8 {
        fill: #f60;
      }

      .cls-9 {
        fill: #06f;
      }

      .cls-10 {
        fill: #add211;
      }

      .cls-11 {
        fill: #cf9;
      }

      .cls-12 {
        fill: #60a7ce;
      }

      .cls-13 {
        fill: #585c5e;
      }

      .cls-14 {
        fill: #120740;
      }

      .cls-15 {
        fill: #60a6cd;
      }
    </style>
  </defs>
  <g id="Capa_1-2" data-name="Capa 1">
    <g>
      <g>
        <g>
          <path class="cls-13" d="M693.11,40.63v-21.68h-9.97v-4.59h24.53v4.59h-9.97v21.68h-4.59Z"/>
          <path class="cls-13" d="M735.09,40.63l-6.65-7.3h-9.83v-4.05h10.95c1.66,0,2.91-.45,3.76-1.35.84-.9,1.26-2.21,1.26-3.92s-.44-2.98-1.32-3.81c-.88-.83-2.11-1.25-3.7-1.25h-14.31v21.68h-4.55V14.36h18.86c1.49,0,2.83.22,4.01.67,1.18.45,2.18,1.08,3,1.91.82.83,1.45,1.84,1.88,3.02.43,1.18.65,2.51.65,3.97,0,2.19-.48,4.03-1.43,5.51-.95,1.48-2.28,2.55-3.99,3.2l7.91,7.98h-6.5Z"/>
          <path class="cls-13" d="M752.9,40.63v-9.97l-13.95-16.29h6.18l10.22,12.1,10.26-12.1h5.85l-13.98,16.29v9.97h-4.59Z"/>
        </g>
        <g>
          <path class="cls-7" d="M672.99,70.86h-4.43c-1.88,0-3.34-.52-4.37-1.57-1.03-1.04-1.55-2.49-1.55-4.35v-12.71c0-1.88.52-3.34,1.55-4.37,1.03-1.03,2.49-1.55,4.37-1.55h4.43c1.86,0,3.31.52,4.35,1.55,1.04,1.03,1.57,2.49,1.57,4.37v1.83c0,.46-.23.69-.69.69h-2.41c-.43,0-.65-.23-.65-.69v-1.68c0-1.88-.92-2.83-2.75-2.83h-3.32c-1.83,0-2.75.94-2.75,2.83v12.41c0,1.88.92,2.83,2.75,2.83h3.32c1.83,0,2.75-.94,2.75-2.83v-1.68c0-.46.22-.69.65-.69h2.41c.46,0,.69.23.69.69v1.83c0,1.86-.52,3.31-1.57,4.35-1.04,1.04-2.49,1.57-4.35,1.57Z"/>
          <path class="cls-7" d="M692.16,70.86h-3.36c-1.88,0-3.34-.52-4.37-1.57-1.03-1.04-1.55-2.49-1.55-4.35v-7.64c0-1.88.52-3.34,1.55-4.37,1.03-1.03,2.49-1.55,4.37-1.55h3.36c1.86,0,3.32.52,4.37,1.55,1.06,1.03,1.58,2.49,1.58,4.37v7.64c0,1.86-.53,3.31-1.58,4.35-1.06,1.04-2.51,1.57-4.37,1.57ZM689.33,67.62h2.33c1.83,0,2.75-.93,2.75-2.79v-7.41c0-1.86-.92-2.79-2.75-2.79h-2.33c-.97,0-1.67.22-2.1.67-.43.45-.65,1.15-.65,2.12v7.41c0,.97.22,1.67.65,2.12.43.45,1.13.67,2.1.67Z"/>
          <path class="cls-7" d="M705.56,70.86h-2.41c-.43,0-.65-.22-.65-.65v-18.17c0-.43.22-.65.65-.65h2.41c.43,0,.65.22.65.65v1.37h.15c.61-1.35,1.9-2.02,3.86-2.02h1.68c1.86,0,3.28.51,4.28,1.53.99,1.02,1.49,2.48,1.49,4.39v12.91c0,.43-.23.65-.69.65h-2.41c-.43,0-.65-.22-.65-.65v-12.75c0-1.88-.93-2.83-2.79-2.83h-1.79c-2.09,0-3.13,1.08-3.13,3.25v12.33c0,.43-.22.65-.65.65Z"/>
          <path class="cls-7" d="M722.82,54.64h-1.83c-.25,0-.43-.04-.52-.13-.09-.09-.13-.25-.13-.48v-1.99c0-.43.22-.65.65-.65h1.83c.25,0,.38-.13.38-.38v-3.44c0-.43.23-.65.69-.65h2.41c.43,0,.65.22.65.65v3.44c0,.25.14.38.42.38h3.55c.46,0,.69.22.69.65v1.99c0,.41-.23.61-.69.61h-3.55c-.28,0-.42.13-.42.38v9.81c0,1.86.95,2.79,2.86,2.79h1.49c.46,0,.69.22.69.65v1.99c0,.41-.23.61-.69.61h-2.06c-1.88,0-3.36-.51-4.43-1.53-1.07-1.02-1.6-2.46-1.6-4.31v-10c0-.25-.13-.38-.38-.38Z"/>
          <path class="cls-7" d="M738.7,70.86h-2.41c-.43,0-.65-.22-.65-.65v-18.17c0-.43.22-.65.65-.65h2.41c.43,0,.65.22.65.65v1.45h.15c.25-.64.74-1.15,1.47-1.53.73-.38,1.53-.57,2.42-.57h1.41c.43,0,.65.22.65.65v1.99c0,.48-.22.69-.65.61h-2.29c-2.11,0-3.17,1.16-3.17,3.47v12.1c0,.43-.22.65-.65.65Z"/>
          <path class="cls-7" d="M757.33,70.86h-3.36c-1.88,0-3.34-.52-4.37-1.57-1.03-1.04-1.55-2.49-1.55-4.35v-7.64c0-1.88.52-3.34,1.55-4.37,1.03-1.03,2.49-1.55,4.37-1.55h3.36c1.86,0,3.32.52,4.37,1.55,1.06,1.03,1.58,2.49,1.58,4.37v7.64c0,1.86-.53,3.31-1.58,4.35-1.06,1.04-2.51,1.57-4.37,1.57ZM754.51,67.62h2.33c1.83,0,2.75-.93,2.75-2.79v-7.41c0-1.86-.92-2.79-2.75-2.79h-2.33c-.97,0-1.67.22-2.1.67-.43.45-.65,1.15-.65,2.12v7.41c0,.97.22,1.67.65,2.12.43.45,1.13.67,2.1.67Z"/>
          <path class="cls-7" d="M770.93,70.86h-2.41c-.43,0-.65-.22-.65-.65v-25.54c0-.43.22-.65.65-.65h2.41c.43,0,.65.22.65.65v25.54c0,.43-.22.65-.65.65Z"/>
          <path class="cls-7" d="M779.82,70.86h-2.41c-.43,0-.65-.22-.65-.65v-25.54c0-.43.22-.65.65-.65h2.41c.43,0,.65.22.65.65v25.54c0,.43-.22.65-.65.65Z"/>
          <path class="cls-7" d="M799.26,70.86h-8.25c-1.88,0-3.34-.52-4.37-1.57-1.03-1.04-1.55-2.49-1.55-4.35v-7.64c0-1.88.52-3.34,1.55-4.37,1.03-1.03,2.49-1.55,4.37-1.55h3.13c1.88,0,3.35.52,4.39,1.55,1.04,1.03,1.57,2.49,1.57,4.37v4.85c0,.46-.23.69-.69.69h-10.23c-.28,0-.42.13-.42.38v1.64c0,1.86.93,2.79,2.79,2.79h7.71c.46,0,.69.23.69.69v1.91c0,.41-.23.61-.69.61ZM789.18,60.25h6.83c.25,0,.38-.13.38-.38v-2.44c0-.97-.22-1.67-.65-2.12-.43-.45-1.13-.67-2.1-.67h-2.1c-.97,0-1.67.22-2.1.67-.43.45-.65,1.15-.65,2.12v2.44c0,.25.13.38.38.38Z"/>
          <path class="cls-7" d="M807.35,70.86h-2.41c-.43,0-.65-.22-.65-.65v-18.17c0-.43.22-.65.65-.65h2.41c.43,0,.65.22.65.65v1.45h.15c.25-.64.74-1.15,1.47-1.53.73-.38,1.53-.57,2.42-.57h1.41c.43,0,.65.22.65.65v1.99c0,.48-.22.69-.65.61h-2.29c-2.11,0-3.17,1.16-3.17,3.47v12.1c0,.43-.22.65-.65.65Z"/>
        </g>
        <path class="cls-11" d="M800.41,22.58c.05,2.43,2.06,4.37,4.49,4.32,2.43-.05,4.37-2.06,4.32-4.49s-2.06-4.37-4.49-4.32c-2.43.05-4.37,2.06-4.32,4.49Z"/>
        <path class="cls-7" d="M809.89,5.31c-.37,1.37-1.08,2.44-1.71,3.38-.05.07-.1.15-.14.22,6.16,1.46,10.75,7,10.75,13.59,0,7.7-6.27,13.97-13.97,13.97-4.48,0-8.47-2.12-11.03-5.41-.75,1.16-1.49,2.32-2.24,3.48,3.28,3.61,8.01,5.88,13.27,5.88,9.88,0,17.93-8.04,17.93-17.93,0-8.12-5.43-15-12.86-17.19Z"/>
        <path class="cls-3" d="M805.41,2.92c-.6.31-1.07.79-1.5,1.3-2.46,2.97-4.92,5.95-7.38,8.93-2.58,3.12-5.17,6.24-7.76,9.35-.59.71-1.17,1.41-1.76,2.12-.3.36-.6.73-.9,1.09-.42.51-.42.51-.84.02-1.72-2.01-3.44-4.02-5.16-6.03-1.68-1.97-4.68-1.69-5.98.55-.8,1.37-.55,3.05.6,4.38,1.78,2.05,3.53,4.12,5.3,6.18,1.04,1.21,2.07,2.42,3.11,3.62.68.79,1.55,1.26,2.6,1.31,1.42.07,2.53-.52,3.3-1.71.31-.49.63-.98.94-1.47.8-1.24,1.59-2.48,2.39-3.71,4.35-6.76,8.7-13.53,13.05-20.3.13-.21.27-.41.4-.62.65-1.01,1.38-1.97,1.73-3.14.01-.04.03-.09.04-.13.07-.23.14-.64,0-1.08-.46-1.18-1.36-1.06-2.17-.65Z"/>
      </g>
      <g>
        <g>
          <path class="cls-13" d="M19.35,32.68V10.57h-10.17v-4.68h25.02v4.68h-10.17v22.11h-4.68Z"/>
          <path class="cls-13" d="M62.17,32.68l-6.78-7.44h-10.02v-4.13h11.17c1.7,0,2.97-.46,3.83-1.38.86-.92,1.29-2.25,1.29-4s-.45-3.04-1.35-3.89c-.9-.85-2.16-1.27-3.78-1.27h-14.59v22.11h-4.64V5.89h19.24c1.52,0,2.89.23,4.09.68,1.2.45,2.22,1.11,3.06,1.95.84.85,1.47,1.87,1.92,3.08.44,1.2.66,2.56.66,4.05,0,2.24-.49,4.11-1.46,5.62-.97,1.51-2.33,2.6-4.07,3.26l8.07,8.14h-6.63Z"/>
          <path class="cls-13" d="M80.33,32.68v-10.17l-14.22-16.62h6.3l10.43,12.34,10.47-12.34h5.97l-14.26,16.62v10.17h-4.68Z"/>
        </g>
        <g>
          <path class="cls-9" d="M9.42,67.61h-2.53c-.48,0-.72-.23-.72-.68v-21.28c0-.27-.13-.4-.4-.4H.72c-.48,0-.72-.23-.72-.68v-2.04c0-.45.24-.68.72-.68h14.87c.48,0,.72.23.72.68v2.04c0,.45-.24.68-.72.68h-5.05c-.29,0-.44.13-.44.4v21.28c0,.45-.23.68-.68.68Z"/>
          <path class="cls-9" d="M19.56,43.76v-3.65c0-.43.21-.64.64-.64h2.61c.43,0,.64.21.64.64v3.65c0,.45-.21.68-.64.68h-2.61c-.43,0-.64-.23-.64-.68ZM19.56,66.92v-19.08c0-.45.21-.68.64-.68h2.57c.45,0,.68.23.68.68v19.08c0,.27-.05.45-.14.54s-.26.14-.5.14h-2.57c-.45,0-.68-.23-.68-.68Z"/>
          <path class="cls-9" d="M43.17,67.61h-8.66c-1.98,0-3.51-.55-4.59-1.64-1.08-1.1-1.62-2.62-1.62-4.57v-8.02c0-1.98.54-3.51,1.62-4.59,1.08-1.08,2.61-1.62,4.59-1.62h3.29c1.98,0,3.51.54,4.61,1.62,1.1,1.08,1.64,2.61,1.64,4.59v5.09c0,.48-.24.72-.72.72h-10.74c-.29,0-.44.13-.44.4v1.72c0,1.95.98,2.93,2.93,2.93h8.1c.48,0,.72.24.72.72v2c0,.43-.24.64-.72.64ZM32.59,56.46h7.18c.27,0,.4-.13.4-.4v-2.57c0-1.02-.23-1.76-.68-2.22-.45-.47-1.19-.7-2.2-.7h-2.2c-1.02,0-1.75.23-2.2.7-.45.47-.68,1.21-.68,2.22v2.57c0,.27.13.4.4.4Z"/>
          <path class="cls-9" d="M51.67,67.61h-2.53c-.45,0-.68-.23-.68-.68v-19.08c0-.45.23-.68.68-.68h2.53c.45,0,.68.23.68.68v1.44h.16c.64-1.42,1.99-2.12,4.05-2.12h1.76c1.95,0,3.45.53,4.49,1.6,1.04,1.07,1.56,2.61,1.56,4.61v13.55c0,.45-.24.68-.72.68h-2.53c-.45,0-.68-.23-.68-.68v-13.39c0-1.98-.98-2.97-2.93-2.97h-1.88c-2.19,0-3.29,1.14-3.29,3.41v12.95c0,.45-.23.68-.68.68Z"/>
          <path class="cls-9" d="M76.8,67.61h-2.04c-1.92,0-3.4-.54-4.43-1.62-1.03-1.08-1.54-2.61-1.54-4.59v-8.02c0-2,.51-3.54,1.54-4.61,1.03-1.07,2.51-1.6,4.43-1.6h2.04c2.06,0,3.39.71,4.01,2.12h.16v-9.18c0-.45.23-.68.68-.68h2.57c.45,0,.68.23.68.68v26.82c0,.45-.23.68-.68.68h-2.57c-.45,0-.68-.23-.68-.68v-1.44h-.16c-.62,1.42-1.95,2.12-4.01,2.12ZM80.97,60.79v-6.81c0-2.27-1.1-3.41-3.29-3.41h-2.12c-1.92,0-2.89.99-2.89,2.97v7.7c0,1.98.96,2.97,2.89,2.97h2.12c2.19,0,3.29-1.14,3.29-3.41Z"/>
          <path class="cls-9" d="M97.32,67.61h-1.56c-1.98,0-3.51-.55-4.59-1.64-1.08-1.1-1.62-2.62-1.62-4.57v-8.02c0-1.98.54-3.51,1.62-4.59,1.08-1.08,2.61-1.62,4.59-1.62h8.98c.48,0,.72.23.72.68v19.08c0,.45-.24.68-.72.68h-2.53c-.45,0-.68-.23-.68-.68v-1.44h-.16c-.64,1.42-1.99,2.12-4.05,2.12ZM101.53,60.79v-9.82c0-.27-.15-.4-.44-.4h-4.77c-1.92,0-2.89.99-2.89,2.97v7.7c0,1.98.96,2.97,2.89,2.97h1.92c2.19,0,3.29-1.14,3.29-3.41Z"/>
          <path class="cls-9" d="M117.76,67.61h-7.38c-.45,0-.68-.23-.68-.68v-1.96c0-.43.23-.64.68-.64h6.73c1.74,0,2.61-.6,2.61-1.8v-.48c0-1.07-.63-1.88-1.88-2.45l-4.37-2.08c-1.36-.64-2.35-1.35-2.97-2.12-.62-.77-.92-1.79-.92-3.05,0-3.45,1.91-5.17,5.73-5.17h6.65c.43,0,.64.23.64.68v1.96c0,.45-.21.68-.64.68h-5.85c-.8,0-1.42.14-1.84.42-.43.28-.64.65-.64,1.1v.44c0,.86.68,1.6,2.04,2.24l4.41,2.24c1.39.62,2.35,1.34,2.87,2.18s.78,1.93.78,3.27c0,3.47-1.99,5.21-5.97,5.21Z"/>
        </g>
        <path class="cls-9" d="M162.33,13.87c-2.16-2.27-4.34-4.53-6.52-6.78-.3-.31-.23-.25-.93-1.05l-45.88-.15c-.72.72-1.29,1.42-1.86,2-1.89,1.93-3.72,3.9-5.58,5.86q-1.84,1.93-1.82,4.6c.02,3.36,2.2,6.26,5.43,7.15,2.23.59,4,.04,4,.04,1.52-.41,2.8-1.22,3.78-2.45.41-.52.56-.34.88.04,2.96,3.56,8.47,3.56,11.43,0,.33-.39.49-.48.88-.04,3.21,3.66,8.37,3.63,11.56-.07.28-.32.42-.35.71-.02,3.31,3.77,8.39,3.76,11.67-.04.26-.3.36-.34.63,0,1.01,1.26,2.29,2.14,3.85,2.56.51.14.67.37.66.87-.02,1.69-.01,13.9,0,15.59,0,.16,0,.31.02.47l2.53.76c.07-.16.11-.35.11-.55.02-1.94.02-14.4,0-16.35,0-.46.15-.66.6-.78,1.93-.5,3.41-1.63,4.47-3.31.51-.81.78-1.71,1.05-2.61v-3.89c-.49-.68-1.1-1.25-1.68-1.86ZM107.83,23.1c-2.82.23-5.03-1.47-5.4-4.15q-.2-1.42,1.19-1.42h3.57c1.42,0,2.84.01,4.26,0,.42,0,.59.12.6.56.08,2.53-1.84,4.81-4.23,5.01ZM112.84,14.43c-.16.29-.32.51-.7.5-2.59-.01-5.18,0-7.77-.01-.04,0-.07-.03-.2-.08,1.84-1.94,3.64-3.83,5.43-5.72.21-.22.46-.25.74-.25,1.63,0,3.26.01,4.89,0,.49,0,.59.11.34.56-.92,1.66-1.82,3.34-2.72,5.01ZM120.28,23.09c-2.69.28-4.91-1.26-5.47-3.79-.35-1.58-.2-1.77,1.37-1.77h3.39c1.36,0,2.72.03,4.07-.01.61-.02.74.22.73.77-.04,2.44-1.84,4.57-4.1,4.81ZM125.85,9.41c-.38,1.67-.74,3.34-1.08,5.01-.09.42-.3.52-.7.52-1.31-.02-2.63,0-3.95,0-1.32,0-2.63-.01-3.95,0-.47,0-.54-.11-.31-.53.93-1.68,1.84-3.37,2.73-5.07.18-.34.4-.48.78-.48,2,.01,4.01.01,6.01,0,.42,0,.55.11.45.54ZM127.49,14.33c.38-1.65.72-3.3,1.07-4.95.08-.37.26-.52.65-.51,1.8.01,3.59.02,5.39,0,.43,0,.58.19.66.57.33,1.61.66,3.23,1.05,4.83.14.58-.06.68-.58.68-1.27-.02-2.55,0-3.82,0s-2.59-.01-3.88,0c-.45,0-.65-.08-.53-.61ZM131.93,23.12c-2.77.01-4.9-2.15-4.9-4.93,0-.53.19-.68.69-.67,1.4.03,2.8,0,4.2,0s2.8.02,4.2,0c.5,0,.64.16.64.65.01,2.76-2.1,4.94-4.82,4.95ZM139.01,14.38c-.34-1.66-.7-3.31-1.07-4.96-.09-.42,0-.56.44-.56,1.99.02,3.97.01,5.96,0,.33,0,.55.12.71.41.96,1.74,1.92,3.48,2.89,5.21.21.38.09.46-.29.46-1.34-.01-2.67,0-4.01,0s-2.59-.02-3.89,0c-.43,0-.64-.13-.73-.56ZM144.2,23.12c-2.77-.01-4.89-2.25-4.79-5.02.02-.44.18-.58.61-.57,2.82.01,5.64.01,8.46,0,.44,0,.57.16.59.59.08,2.81-2.05,5.02-4.87,5.01ZM150.93,14.45c-.92-1.69-1.85-3.37-2.8-5.04-.26-.46-.12-.55.35-.55,1.65.02,3.3,0,4.95,0,.3,0,.57.05.79.28,1.78,1.88,3.56,3.76,5.48,5.78-.96,0-1.75,0-2.53,0-1.8,0-3.6-.01-5.39,0-.41,0-.66-.13-.85-.49ZM156.61,23.12c-2.79,0-4.95-2.22-4.87-5.02.01-.43.15-.58.59-.58,2.86.01,5.72,0,8.58,0,.34,0,.55.06.55.47.03,3.24-2.46,5.21-4.85,5.12Z"/>
        <path class="cls-8" d="M138.2,40.39c-.8-.23-1.48.26-1.48,1.04-.01.27.09.51.16.75.64,2.15,1.29,4.3,1.94,6.46,1.46,4.85,2.92,9.7,4.37,14.56.14.48.41.83.93.91.54.08.92-.16,1.21-.61,1.08-1.63,2.17-3.25,3.25-4.89.17-.26.27-.27.49-.05,1.69,1.7,3.38,3.39,5.08,5.08.66.66,1.26.66,1.92,0,1.32-1.32,2.64-2.64,3.96-3.96.68-.68.68-1.27,0-1.95-1.69-1.69-3.38-3.39-5.08-5.08-.21-.21-.22-.33.05-.46.04-.02.08-.05.11-.07,1.62-1.08,3.23-2.16,4.85-3.24.42-.28.61-.66.54-1.15-.07-.49-.37-.78-.83-.92-.13-.04-.26-.08-.39-.12-5.56-1.67-11.13-3.34-16.69-5-1.46-.44-2.93-.88-4.39-1.31Z"/>
        <path class="cls-6" d="M138.56,35.19c0-.53,0-1.06,0-1.59,0-.53,0-1.06,0-1.59,0-.68-.46-1.16-1.1-1.16-.65,0-1.11.46-1.11,1.14,0,1.06,0,2.12,0,3.18,0,.67.48,1.15,1.12,1.14.63,0,1.09-.47,1.1-1.13Z"/>
        <path class="cls-6" d="M132.03,41.74c.65,0,1.11-.48,1.11-1.11,0-.62-.46-1.09-1.09-1.1-1.1,0-2.19,0-3.29,0-.64,0-1.09.47-1.09,1.09,0,.63.46,1.11,1.11,1.12.54,0,1.08,0,1.63,0,.54,0,1.08,0,1.63,0Z"/>
        <path class="cls-6" d="M132.3,37.06c.47.46,1.18.45,1.61.02.43-.43.43-1.14-.03-1.61-.69-.71-1.4-1.41-2.1-2.11-.22-.22-.49-.36-.67-.35-.63,0-.99.21-1.18.64-.2.47-.13.91.23,1.28.7.72,1.41,1.43,2.13,2.13Z"/>
        <path class="cls-6" d="M142.54,37.12c.78-.74,1.53-1.5,2.27-2.27.33-.34.36-.78.17-1.2-.19-.42-.53-.62-.99-.63-.29-.01-.55.07-.75.26-.76.75-1.53,1.5-2.27,2.27-.41.43-.37,1.13.04,1.53.41.41,1.1.45,1.53.04Z"/>
        <path class="cls-6" d="M132.34,44.16c-.24.22-.47.46-.7.69-.49.49-.99.98-1.48,1.49-.35.36-.42.79-.23,1.25.18.44.54.65,1.01.66.3.01.56-.09.77-.29.75-.74,1.5-1.47,2.22-2.23.43-.45.39-1.15-.03-1.56-.42-.41-1.1-.42-1.56,0Z"/>
      </g>
      <g>
        <g>
          <path class="cls-10" d="M929.44,41.65h-12.7l2.21-3.8h8.23l-5.98-10.04-12.18,20.6h-5.35l15.43-25.69c.27-.47.59-.84.96-1.11.37-.27.81-.41,1.33-.41s.95.14,1.31.41c.36.27.67.64.94,1.11l15.24,25.32c1.69-3.04,1.8-6.87-.07-10.1l-17.2-29.79c-2.83-4.89-9.08-6.57-13.98-3.74l-29.74,17.17h5.91l10.45,12.37,10.48-12.37h5.98l-14.29,16.65v10.19h-4.69v-10.19l-14.11-16.49c-4.72,2.88-6.31,9.02-3.53,13.84l17.2,29.79c2.83,4.89,9.08,6.57,13.98,3.74l29.79-17.2c1.53-.88,2.74-2.1,3.6-3.5h-5.21l-4.02-6.75Z"/>
          <path class="cls-10" d="M877.91,21.57h-.4l.14.16c.07-.04.14-.09.22-.13l.05-.03Z"/>
          <path class="cls-10" d="M938.89,48.03c-.07.12-.14.25-.22.37h.44l-.22-.37Z"/>
        </g>
        <path class="cls-14" d="M947.92,47.69v-25.43c0-.47.24-.71.71-.71h10.27c2.03,0,3.63.56,4.78,1.69,1.15,1.13,1.73,2.72,1.73,4.78v13.91c0,2.03-.58,3.62-1.73,4.76-1.16,1.14-2.75,1.71-4.78,1.71h-10.27c-.47,0-.71-.24-.71-.71ZM952.43,44.85h5.89c2,0,3.01-1.03,3.01-3.09v-13.57c0-2.06-1-3.09-3.01-3.09h-5.89c-.31,0-.46.14-.46.42v18.88c0,.31.15.46.46.46Z"/>
        <path class="cls-10" d="M970.89,23.56v-3.8c0-.45.22-.67.67-.67h2.71c.45,0,.67.22.67.67v3.8c0,.47-.22.71-.67.71h-2.71c-.45,0-.67-.24-.67-.71Z"/>
        <path class="cls-14" d="M970.89,47.69v-19.88c0-.47.22-.71.67-.71h2.67c.47,0,.71.24.71.71v19.88c0,.28-.05.47-.15.56-.1.1-.27.15-.52.15h-2.67c-.47,0-.71-.24-.71-.71Z"/>
        <path class="cls-14" d="M983.75,48.4h-2.63c-.47,0-.71-.24-.71-.71v-19.88c0-.47.24-.71.71-.71h2.63c.47,0,.71.24.71.71v1.5h.17c.67-1.48,2.07-2.21,4.22-2.21h1.84c2.03,0,3.59.56,4.68,1.67,1.09,1.11,1.63,2.71,1.63,4.8v14.12c0,.47-.25.71-.75.71h-2.63c-.47,0-.71-.24-.71-.71v-13.95c0-2.06-1.02-3.09-3.05-3.09h-1.96c-2.28,0-3.42,1.18-3.42,3.55v13.49c0,.47-.24.71-.71.71Z"/>
        <path class="cls-14" d="M1017.07,48.4h-9.02c-2.06,0-3.65-.57-4.78-1.71-1.13-1.14-1.69-2.73-1.69-4.76v-8.35c0-2.06.56-3.65,1.69-4.78,1.13-1.13,2.72-1.69,4.78-1.69h3.42c2.06,0,3.66.56,4.8,1.69,1.14,1.13,1.71,2.72,1.71,4.78v5.3c0,.5-.25.75-.75.75h-11.19c-.31,0-.46.14-.46.42v1.8c0,2.03,1.02,3.05,3.05,3.05h8.44c.5,0,.75.25.75.75v2.09c0,.45-.25.67-.75.67ZM1006.05,36.79h7.48c.28,0,.42-.14.42-.42v-2.67c0-1.06-.24-1.83-.71-2.32-.47-.49-1.24-.73-2.3-.73h-2.3c-1.06,0-1.82.24-2.3.73-.47.49-.71,1.26-.71,2.32v2.67c0,.28.14.42.42.42Z"/>
        <path class="cls-14" d="M1025.93,48.4h-2.63c-.47,0-.71-.24-.71-.71v-19.88c0-.47.24-.71.71-.71h2.63c.47,0,.71.24.71.71v1.59h.17c.28-.7.81-1.25,1.61-1.67.79-.42,1.68-.63,2.65-.63h1.55c.47,0,.71.24.71.71v2.17c0,.53-.24.75-.71.67h-2.51c-2.31,0-3.47,1.27-3.47,3.8v13.24c0,.47-.24.71-.71.71Z"/>
        <path class="cls-14" d="M1046.3,48.4h-3.68c-2.06,0-3.65-.57-4.78-1.71-1.13-1.14-1.69-2.73-1.69-4.76v-8.35c0-2.06.56-3.65,1.69-4.78,1.13-1.13,2.72-1.69,4.78-1.69h3.68c2.03,0,3.63.56,4.78,1.69,1.15,1.13,1.73,2.72,1.73,4.78v8.35c0,2.03-.58,3.62-1.73,4.76-1.16,1.14-2.75,1.71-4.78,1.71ZM1043.21,44.85h2.55c2,0,3.01-1.02,3.01-3.05v-8.1c0-2.03-1-3.05-3.01-3.05h-2.55c-1.06,0-1.82.24-2.3.73-.47.49-.71,1.26-.71,2.32v8.1c0,1.06.24,1.83.71,2.32.47.49,1.24.73,2.3.73Z"/>
        <g>
          <path class="cls-13" d="M952.51,65.1h-2.08c-.8,0-1.42-.23-1.88-.67-.46-.45-.68-1.08-.68-1.89v-6c0-.81.23-1.44.68-1.89s1.08-.68,1.88-.68h2.08c.8,0,1.42.23,1.88.68.46.45.68,1.08.68,1.89v.85c0,.16-.08.24-.24.24h-.78c-.16,0-.24-.08-.24-.24v-.8c0-1-.48-1.51-1.45-1.51h-1.78c-.96,0-1.44.5-1.44,1.51v5.9c0,1,.48,1.51,1.44,1.51h1.78c.97,0,1.45-.5,1.45-1.51v-.8c0-.16.08-.24.24-.24h.78c.16,0,.24.08.24.24v.85c0,.81-.23,1.44-.68,1.89-.46.45-1.08.67-1.88.67Z"/>
          <path class="cls-13" d="M958.25,65.1h-.78c-.16,0-.24-.08-.24-.24v-8.34c0-.16.08-.24.24-.24h.78c.16,0,.24.08.24.24v.69h.07c.12-.25.33-.47.66-.66s.7-.28,1.14-.28h.68c.15,0,.22.08.22.24v.64c0,.08-.02.14-.05.18-.03.04-.09.05-.17.04h-.93c-.52,0-.92.16-1.19.47-.28.31-.42.74-.42,1.28v5.73c0,.16-.08.24-.24.24Z"/>
          <path class="cls-13" d="M968.88,65.1h-3.67c-.8,0-1.42-.23-1.88-.67-.46-.45-.68-1.08-.68-1.89v-3.7c0-.81.23-1.44.68-1.89.46-.45,1.08-.67,1.88-.67h1.45c.8,0,1.42.23,1.87.67.45.45.67,1.08.67,1.89v2.2c0,.17-.08.26-.24.26h-4.9c-.12,0-.17.05-.17.16v1.06c0,1,.48,1.51,1.45,1.51h3.53c.16,0,.24.08.24.24v.62c0,.15-.08.23-.24.23ZM964.07,60.38h3.74c.12,0,.17-.06.17-.17v-1.33c0-.99-.48-1.49-1.45-1.49h-1.18c-.97,0-1.45.5-1.45,1.49v1.33c0,.12.06.17.17.17ZM966.71,52.94h1.04c.08,0,.13.02.16.07.02.05.01.1-.03.17l-1.51,1.82c-.12.12-.23.17-.35.17h-.57c-.16,0-.2-.08-.1-.24l1-1.77c.07-.15.19-.22.36-.22Z"/>
          <path class="cls-13" d="M974.67,65.1h-1.02c-.78,0-1.4-.23-1.83-.67-.44-.45-.66-1.08-.66-1.89v-3.7c0-.81.22-1.44.66-1.89.44-.45,1.05-.67,1.83-.67h1.02c.9,0,1.49.31,1.78.92h.07v-4.01c0-.16.07-.24.23-.24h.8c.15,0,.23.08.23.24v11.68c0,.16-.08.24-.23.24h-.8c-.15,0-.23-.08-.23-.24v-.67h-.07c-.29.61-.88.92-1.78.92ZM976.52,62.41v-3.43c0-.51-.14-.9-.42-1.18-.28-.28-.67-.42-1.19-.42h-1.06c-.96,0-1.44.5-1.44,1.51v3.6c0,1,.48,1.51,1.44,1.51h1.06c.52,0,.92-.14,1.19-.42.28-.28.42-.67.42-1.18Z"/>
          <path class="cls-13" d="M980.24,54.83v-1.63c0-.16.07-.24.23-.24h.8c.16,0,.24.08.24.24v1.63c0,.16-.08.24-.24.24h-.8c-.15,0-.23-.08-.23-.24ZM980.24,64.86v-8.34c0-.16.07-.24.23-.24h.8c.16,0,.24.08.24.24v8.34c0,.16-.08.24-.24.24h-.78c-.16,0-.24-.08-.24-.24Z"/>
          <path class="cls-13" d="M984.31,57.39h-.95c-.16,0-.24-.07-.24-.23v-.64c0-.16.08-.24.24-.24h.95c.12,0,.17-.05.17-.16v-1.49c0-.16.08-.24.24-.24h.78c.15,0,.23.08.23.24v1.49c0,.1.06.16.19.16h1.83c.17,0,.26.08.26.24v.64c0,.15-.09.23-.26.23h-1.83c-.13,0-.19.05-.19.16v4.98c0,.98.51,1.47,1.52,1.47h.67c.17,0,.26.08.26.24v.64c0,.15-.09.23-.26.23h-.83c-.8,0-1.43-.22-1.9-.67-.47-.44-.71-1.06-.71-1.86v-5.04c0-.1-.06-.16-.17-.16Z"/>
          <path class="cls-13" d="M993.9,65.1h-1.49c-.8,0-1.42-.23-1.88-.67-.46-.45-.68-1.08-.68-1.89v-3.7c0-.81.23-1.44.68-1.89.46-.45,1.08-.67,1.88-.67h1.49c.8,0,1.42.23,1.88.67.46.45.68,1.08.68,1.89v3.7c0,.81-.23,1.44-.68,1.89-.46.45-1.08.67-1.88.67ZM992.55,64h1.21c.97,0,1.45-.5,1.45-1.49v-3.63c0-.99-.48-1.49-1.45-1.49h-1.21c-.97,0-1.45.5-1.45,1.49v3.63c0,.99.48,1.49,1.45,1.49Z"/>
          <path class="cls-13" d="M1001.67,65.1h-3.08c-.16,0-.24-.08-.24-.24v-.61c0-.15.08-.23.24-.23h2.91c.9,0,1.35-.33,1.35-1v-.33c0-.61-.29-1.03-.88-1.26l-2.04-.87c-.59-.24-1.01-.53-1.26-.86-.25-.33-.38-.76-.38-1.31,0-1.42.78-2.13,2.34-2.13h2.84c.16,0,.24.08.24.24v.61c0,.15-.08.23-.24.23h-2.61c-.42,0-.73.09-.94.26-.21.17-.32.37-.32.61v.29c0,.48.33.85.99,1.11l2.04.92c.6.23,1.01.54,1.22.92.21.38.32.91.32,1.57,0,1.38-.83,2.08-2.47,2.08Z"/>
          <path class="cls-13" d="M1015.18,65.1h-2.06c-.8,0-1.42-.23-1.88-.67-.46-.45-.68-1.08-.68-1.89v-6c0-.81.23-1.44.68-1.89s1.08-.68,1.88-.68h2.06c.8,0,1.42.23,1.88.68.46.46.68,1.08.68,1.88v6c0,.8-.23,1.42-.68,1.88-.46.46-1.08.68-1.88.68ZM1013.26,64h1.76c.97,0,1.45-.5,1.45-1.51v-5.9c0-1-.48-1.51-1.45-1.51h-1.76c-.96,0-1.44.5-1.44,1.51v5.9c0,1,.48,1.51,1.44,1.51Z"/>
          <path class="cls-13" d="M1021.15,65.1h-.78c-.16,0-.24-.08-.24-.24v-8.34c0-.16.08-.24.24-.24h.78c.16,0,.24.08.24.24v.68h.07c.29-.61.88-.92,1.76-.92h.97c.78,0,1.4.23,1.83.67.44.45.66,1.08.66,1.89v6.02c0,.16-.08.24-.24.24h-.78c-.16,0-.24-.08-.24-.24v-5.97c0-1-.48-1.51-1.45-1.51h-.97c-.52,0-.92.14-1.19.42-.28.28-.42.67-.42,1.18v5.88c0,.16-.08.24-.24.24Z"/>
          <path class="cls-13" d="M1030.1,65.1h-.78c-.16,0-.24-.08-.24-.24v-11.68c0-.16.08-.24.24-.24h.78c.16,0,.24.08.24.24v11.68c0,.16-.08.24-.24.24Z"/>
          <path class="cls-13" d="M1032.9,54.83v-1.63c0-.16.07-.24.23-.24h.8c.16,0,.24.08.24.24v1.63c0,.16-.08.24-.24.24h-.8c-.15,0-.23-.08-.23-.24ZM1032.9,64.86v-8.34c0-.16.07-.24.23-.24h.8c.16,0,.24.08.24.24v8.34c0,.16-.08.24-.24.24h-.78c-.16,0-.24-.08-.24-.24Z"/>
          <path class="cls-13" d="M1037.66,65.1h-.78c-.16,0-.24-.08-.24-.24v-8.34c0-.16.08-.24.24-.24h.78c.16,0,.24.08.24.24v.68h.07c.29-.61.88-.92,1.76-.92h.97c.78,0,1.4.23,1.83.67.44.45.66,1.08.66,1.89v6.02c0,.16-.08.24-.24.24h-.78c-.16,0-.24-.08-.24-.24v-5.97c0-1-.48-1.51-1.45-1.51h-.97c-.52,0-.92.14-1.19.42-.28.28-.42.67-.42,1.18v5.88c0,.16-.08.24-.24.24Z"/>
          <path class="cls-13" d="M1051.56,65.1h-3.67c-.8,0-1.42-.23-1.88-.67-.46-.45-.68-1.08-.68-1.89v-3.7c0-.81.23-1.44.68-1.89.46-.45,1.08-.67,1.88-.67h1.45c.8,0,1.42.23,1.87.67.45.45.67,1.08.67,1.89v2.2c0,.17-.08.26-.24.26h-4.9c-.12,0-.17.05-.17.16v1.06c0,1,.48,1.51,1.45,1.51h3.53c.16,0,.24.08.24.24v.62c0,.15-.08.23-.24.23ZM1046.75,60.38h3.74c.12,0,.17-.06.17-.17v-1.33c0-.99-.48-1.49-1.45-1.49h-1.18c-.97,0-1.45.5-1.45,1.49v1.33c0,.12.06.17.17.17Z"/>
        </g>
        <path class="cls-14" d="M1055.5,11.69c.41.18.82.35,1.23.52s.82.35,1.23.52c.5.2.99,0,1.19-.49.2-.47,0-.97-.47-1.18-.82-.36-1.65-.71-2.48-1.05-.48-.2-.97,0-1.17.48-.2.48,0,.98.48,1.2Z"/>
        <path class="cls-10" d="M1073.22,14.34c-.17-2.68-3.03-3.78-5-2.56-1.24.76-2.49,1.49-3.74,2.23-2.43,1.44-4.86,2.87-7.29,4.31-1,.59-1.99,1.18-3.07,1.82.17-.72.28-1.32.45-1.91.72-2.6-.36-4.92-2.74-5.81-1.41-.53-2.71.17-2.98,1.55-.11.55-.28,1.09-.43,1.64-.55,2.08-1.1,4.16-1.65,6.24-.2.78-.4,1.56-.6,2.34h.13c.51,0,.99.04,1.47.09.32-1.26.65-2.52.98-3.78.56-2.09,1.13-4.18,1.68-6.28.11-.41.38-.46.7-.38,1.3.32,2.28,1.79,2.05,3.13-.18,1.05-.45,2.08-.68,3.12-.1.44-.18.89-.29,1.32-.1.39,0,.71.31.95.33.25.67.16,1-.03,1.17-.69,2.34-1.38,3.51-2.07,3.2-1.89,6.4-3.78,9.59-5.67.81-.48,1.61-.95,2.41-1.45.85-.52,1.84-.33,2.38.5.51.78.29,1.81-.55,2.32-2.28,1.38-4.58,2.73-6.88,4.1-.9.54-1.82,1.06-2.72,1.6-.22.13-.46.26-.53.54-.09.34-.05.66.23.89.26.21.58.24.86.08.74-.41,1.46-.84,2.18-1.26.67-.38,1.33-.39,1.95.08,1,.74.81,2.21-.36,2.91-.93.55-1.87,1.09-2.8,1.64-.2.12-.42.24-.56.45-.2.3-.18.61.03.86.2.25.48.45.85.28.77-.35,1.47-.81,2.19-1.25.67-.41,1.35-.46,2.01-.03.65.42.82,1.05.68,1.78-.09.51-.44.82-.84,1.07-1,.62-2.03,1.21-3.04,1.82-.56.34-.69.73-.42,1.2.22.38.67.47,1.19.18.5-.27.97-.58,1.47-.85.91-.51,1.9-.28,2.37.54.48.83.18,1.86-.69,2.38-1.93,1.14-3.87,2.27-5.8,3.42-1.06.62-2.08,1.3-3.19,1.83-1.08.5-2.18.78-3.3.85v.88c0,.24-.02.47-.03.7.86-.04,1.72-.2,2.56-.44,1.42-.4,2.65-1.17,3.89-1.92,2.25-1.35,4.54-2.66,6.79-4.03,1.15-.7,1.67-1.78,1.55-3.12-.08-.97-.51-1.75-1.34-2.3-.26-.17-.49-.32-.17-.69.4-.46.6-1.06.63-1.65.08-1.39-.5-2.48-1.74-3.15-.27-.15-.21-.24-.12-.43.79-1.56.48-3.15-.88-4.2-.36-.28-.25-.37.06-.55,1.6-.94,3.21-1.88,4.79-2.86,1.09-.67,1.58-1.72,1.51-2.95Z"/>
        <path class="cls-14" d="M1063.78,10.38c.48.2.97,0,1.19-.5.17-.4.34-.8.51-1.2s.34-.8.51-1.2c.21-.52.02-1.02-.46-1.22-.49-.21-.98,0-1.2.51-.34.8-.68,1.6-1.02,2.4-.21.51,0,1.02.48,1.22Z"/>
        <path class="cls-14" d="M1059.65,9.29c.21.5.75.72,1.21.53.46-.19.69-.72.49-1.23-.29-.76-.61-1.51-.91-2.26-.1-.24-.26-.43-.39-.48-.47-.2-.81-.16-1.09.11-.3.29-.39.65-.23,1.04.3.76.61,1.53.92,2.28Z"/>
      </g>
      <g>
        <g>
          <path class="cls-2" d="M612.64,42.56c0-4.28-3.49-7.77-7.77-7.77h-20.64c-4.28,0-7.77,3.49-7.77,7.77v27.48h5.49v-27.48c0-1.25,1.02-2.27,2.27-2.27h20.64c1.25,0,2.27,1.02,2.27,2.27v27.3h5.49v-27.3h0Z"/>
          <path class="cls-2" d="M570.38,42.49s0-.09-.01-.14c-.01-.16-.03-.31-.05-.46,0-.03,0-.06-.01-.08-.03-.18-.06-.37-.1-.54,0-.03-.01-.05-.02-.08-.04-.16-.08-.32-.12-.47,0-.02,0-.04-.01-.05h0c-.82-2.8-3.04-5-5.84-5.81h0s-.05-.01-.07-.02c-.14-.04-.27-.07-.41-.1-.04,0-.07-.02-.11-.02-.17-.04-.34-.06-.51-.09-.05,0-.09-.01-.14-.02-.13-.02-.27-.03-.4-.04-.05,0-.1,0-.16-.01-.18-.01-.36-.02-.54-.02h-25.93c-.29,0-.58.01-.87.04-4.29.44-7.65,4.07-7.65,8.48h0v18.33h0c0,.19,0,.37.02.55,0,.05,0,.09.01.14.01.16.03.31.05.47,0,.03,0,.06.01.08.03.18.06.37.1.55,0,.03.01.05.02.08.04.16.08.32.12.47,0,.02,0,.04.01.05h0c.82,2.8,3.04,5,5.84,5.81h0s.05.01.07.02c.14.04.27.07.41.1.04,0,.07.02.11.02.17.04.34.06.51.09.05,0,.09.01.14.02.13.02.27.03.4.04.05,0,.1,0,.16.01.18.01.36.02.54.02h25.93c.29,0,.58-.01.87-.04,4.29-.44,7.65-4.07,7.65-8.48h0v-18.33h0c0-.19,0-.37-.02-.55ZM535.94,63.87c-1.38,0-2.5-1.12-2.5-2.5v-2.94h0v-15.39c0-.26.04-.51.11-.74.32-1.01,1.27-1.75,2.38-1.75h22.78s3.16,0,3.16,0c1.38,0,2.5,1.12,2.5,2.5v2.94h0v15.39c0,.26-.04.51-.11.74-.32,1.01-1.27,1.75-2.38,1.75h-22.78s-3.16,0-3.16,0Z"/>
        </g>
        <g>
          <path class="cls-4" d="M488.48,27.45h-2.69c-.48,0-.73-.24-.73-.73V.73c0-.48.24-.73.73-.73h9.99c2.08,0,3.71.59,4.89,1.77,1.18,1.18,1.77,2.81,1.77,4.89v3.59c0,3.27-1.35,5.34-4.06,6.19v.17l4.74,9.99c.31.57.13.85-.56.85h-2.65c-.68,0-1.12-.24-1.32-.73l-4.57-9.82h-4.31c-.34,0-.51.14-.51.43v9.39c0,.48-.24.73-.73.73ZM489.68,13.49h5.42c2.11,0,3.16-1.04,3.16-3.12v-3.59c0-2.11-1.05-3.16-3.16-3.16h-5.42c-.31,0-.47.14-.47.43v9.01c0,.28.16.43.47.43Z"/>
          <path class="cls-4" d="M515.84,27.45h-1.92c-2.05,0-3.62-.58-4.72-1.73-1.1-1.15-1.64-2.78-1.64-4.89V6.4c0-.48.24-.73.73-.73h2.69c.48,0,.73.24.73.73v14.26c0,2.11,1.02,3.16,3.07,3.16h2.05c2.33,0,3.5-1.21,3.5-3.63V6.4c0-.48.24-.73.73-.73h2.69c.51,0,.77.24.77.73v20.32c0,.48-.26.73-.77.73h-2.69c-.48,0-.73-.24-.73-.73v-1.54h-.17c-.68,1.51-2.12,2.26-4.31,2.26Z"/>
          <path class="cls-4" d="M530.48,9.31h-2.05c-.28,0-.48-.05-.58-.15-.1-.1-.15-.28-.15-.53v-2.22c0-.48.24-.73.73-.73h2.05c.28,0,.43-.14.43-.43V1.41c0-.48.26-.73.77-.73h2.69c.48,0,.73.24.73.73v3.84c0,.28.16.43.47.43h3.97c.51,0,.77.24.77.73v2.22c0,.46-.26.68-.77.68h-3.97c-.31,0-.47.14-.47.43v10.97c0,2.08,1.07,3.12,3.2,3.12h1.66c.51,0,.77.24.77.73v2.22c0,.46-.26.68-.77.68h-2.3c-2.11,0-3.76-.57-4.95-1.71-1.2-1.14-1.79-2.75-1.79-4.82v-11.18c0-.28-.14-.43-.43-.43Z"/>
          <path class="cls-4" d="M552.68,27.45h-1.66c-2.11,0-3.74-.58-4.89-1.75-1.15-1.17-1.73-2.79-1.73-4.87v-8.54c0-2.11.58-3.74,1.73-4.89,1.15-1.15,2.78-1.73,4.89-1.73h9.56c.51,0,.77.24.77.73v20.32c0,.48-.26.73-.77.73h-2.69c-.48,0-.73-.24-.73-.73v-1.54h-.17c-.68,1.51-2.12,2.26-4.31,2.26ZM557.16,20.19v-10.46c0-.28-.16-.43-.47-.43h-5.08c-2.05,0-3.07,1.05-3.07,3.16v8.2c0,2.11,1.02,3.16,3.07,3.16h2.05c2.33,0,3.5-1.21,3.5-3.63Z"/>
          <path class="cls-4" d="M574.45,27.45h-7.85c-.48,0-.73-.24-.73-.73v-2.09c0-.46.24-.68.73-.68h7.17c1.85,0,2.77-.64,2.77-1.92v-.51c0-1.14-.67-2.01-2.01-2.6l-4.65-2.22c-1.45-.68-2.5-1.44-3.16-2.26-.66-.82-.98-1.91-.98-3.24,0-3.67,2.03-5.51,6.1-5.51h7.09c.45,0,.68.24.68.73v2.09c0,.48-.23.73-.68.73h-6.23c-.85,0-1.51.15-1.96.45-.46.3-.68.69-.68,1.17v.47c0,.91.73,1.71,2.18,2.39l4.7,2.39c1.48.66,2.5,1.43,3.05,2.33.56.9.83,2.06.83,3.48,0,3.7-2.12,5.55-6.36,5.55Z"/>
        </g>
        <g>
          <path class="cls-2" d="M479.33,73.5c.24-.38.61-.74.69-1.15.11-.56-.42-1.02-1.06-1.05-.69-.03-1.38,0-2.07-.01-.55,0-.99.2-1.16.74-.18.55,0,1.02.5,1.33.05.03.08.09.12.14,1,0,1.99,0,2.99,0Z"/>
          <path class="cls-2" d="M505.81,73.5c.58-.29.93-.7.78-1.39-.13-.55-.57-.81-1.37-.82-.48,0-.95,0-1.43,0-.64-.02-1.24.04-1.49.76-.24.68.17,1.09.65,1.46.95,0,1.9,0,2.86,0Z"/>
          <path class="cls-2" d="M499.19,73.5c.55-.31.95-.73.75-1.41-.2-.67-.75-.83-1.39-.8-.47.02-.95.01-1.43,0-.64-.02-1.23.06-1.47.77-.24.69.19,1.08.68,1.44.95,0,1.9,0,2.86,0Z"/>
          <path class="cls-2" d="M492.57,73.5c.84-.6,1.01-1.3.46-1.87-.49-.5-3.29-.5-3.78,0-.55.57-.38,1.27.46,1.87.95,0,1.9,0,2.86,0Z"/>
          <path class="cls-2" d="M485.95,73.5c.41-.3.79-.62.74-1.19-.05-.58-.5-.99-1.15-1.01-.6-.02-1.21,0-1.81-.01-.64-.02-1.19.13-1.38.81-.2.68.19,1.1.75,1.41h2.86Z"/>
          <path class="cls-2" d="M472.58,73.5c.58-.29.93-.7.78-1.39-.13-.55-.57-.81-1.37-.82-.48,0-.95.01-1.42,0-.63-.02-1.2.09-1.44.74-.25.64.1,1.11.6,1.48.95,0,1.9,0,2.86,0Z"/>
          <path class="cls-5" d="M509.23,70.44c-3.02-3.42-6.05-6.83-9.07-10.25-1.24-1.41-2.21-2.98-2.88-4.74-2.36-6.22-.72-13.64,4.39-17.89,4.42-3.67,11.06-3.75,15.49-.09,5.98,4.94,7.43,14.17,3.15,20.66-1.05,1.59-2.38,3.01-3.64,4.46-2.35,2.71-4.75,5.38-7.25,8.21-.1-.17-.14-.28-.21-.36ZM517.93,57.73c4.32-5.45,3.26-14.05-2.09-18.48-4.28-3.55-10.6-2.87-14.25,1.52-4.17,5.01-4.29,12.43-.15,17.46,2.57,3.12,5.32,6.08,8.06,9.2,2.86-3.27,5.79-6.37,8.43-9.7Z"/>
          <path class="cls-5" d="M462.03,25.89c-3.69-4.42-3.65-10.85-.02-15.3,3.17-3.89,8.56-4.66,12.69-1.82,4.8,3.31,6.21,10.8,2.87,15.83-1.1,1.66-2.53,3.11-3.85,4.63-1.43,1.65-2.89,3.26-4.39,4.96-2.49-2.81-4.97-5.5-7.31-8.3ZM475.32,24.01c2.73-3.48,2.44-8.88-.48-12.17-3.31-3.72-8.77-3.34-11.62.82-2.47,3.59-2.29,8.48.5,11.82,1.8,2.15,3.71,4.21,5.64,6.4,2.04-2.33,4.12-4.51,5.97-6.86Z"/>
          <path class="cls-2" d="M457.42,47.6c.07.43.13.99.26,1.53.15.6.74.95,1.27.83.6-.14.94-.68.87-1.31-.06-.59-.1-1.19-.12-1.79-.02-.71-.41-1.21-1.03-1.26-.62-.05-1.09.39-1.17,1.11-.03.26-.05.51-.09.9Z"/>
          <path class="cls-2" d="M488.62,31.3c-.66.14-1.14.5-1.24,1.04-.1.57.19,1.04.77,1.25.64.23,1.29.45,1.94.68.57.2,1.14,0,1.4-.47.27-.5.18-1.13-.35-1.42-.8-.43-1.67-.73-2.51-1.08Z"/>
          <path class="cls-2" d="M462.88,41.29c-.78.29-1.58.54-2.33.9-.6.29-.76.95-.47,1.49.27.51.83.68,1.45.46.57-.2,1.14-.38,1.72-.54.67-.19,1.05-.68.96-1.26-.1-.61-.57-.95-1.33-1.05Z"/>
          <path class="cls-2" d="M484.44,61.77c-.01.91.66,1.45,1.36,1.23,1-.31,1.8-.94,2.39-1.79.32-.46.21-1.08-.21-1.4-.44-.33-.91-.37-1.37-.02-.57.43-1.15.84-1.69,1.3-.24.21-.39.54-.49.68Z"/>
          <path class="cls-2" d="M465.1,64.48c.2.25.38.67.67.78.32.12.83.08,1.13-.1.64-.39,1.2-.91,1.77-1.4.43-.37.53-.85.24-1.34-.28-.47-.72-.71-1.26-.5-.98.37-1.74,1.02-2.33,1.88-.1.15-.12.36-.22.68Z"/>
          <path class="cls-2" d="M486.33,54.28c.08.32.09.47.15.61.29.69.58,1.38.9,2.06.24.52.67.72,1.22.6.55-.12.89-.5.84-1.06-.09-1.05-.5-2-1.21-2.78-.31-.34-.77-.47-1.17-.2-.31.21-.53.55-.72.77Z"/>
          <path class="cls-2" d="M488.14,43.59c.36-.07,1.07-.17,1.75-.36.68-.18,1.01-.79.84-1.39-.16-.57-.74-.86-1.4-.73-.55.1-1.1.2-1.66.26-.83.09-1.29.5-1.26,1.17.04.66.57,1.07,1.72,1.05Z"/>
          <path class="cls-2" d="M475.97,53.52c.41,0,.82.03,1.23,0,.56-.06.97-.52.95-1.05-.02-.55-.29-1.01-.86-1.05-.9-.06-1.81-.07-2.71.01-.56.05-.84.52-.82,1.07.03.56.34.94.91,1.01.43.05.86,0,1.29,0,0,0,0,0,0,0Z"/>
          <path class="cls-2" d="M464.24,68.71c.18.89.55,1.85,1.32,2.59.38.37.88.39,1.31.08.45-.32.62-.78.38-1.31-.3-.69-.63-1.37-.97-2.04-.25-.51-.69-.72-1.24-.58-.54.14-.82.53-.81,1.25Z"/>
          <path class="cls-2" d="M482.93,33.62c.39,0,.78.04,1.16,0,.64-.08,1.04-.56,1.02-1.14-.03-.59-.45-1.02-1.11-1.04-.73-.03-1.47-.03-2.2,0-.63.03-1.03.43-1.07,1-.04.6.32,1.07.97,1.16.4.05.82.01,1.23.01,0,0,0,0,0,0Z"/>
          <path class="cls-2" d="M491.83,37.34c-.08.44-.15.89-.24,1.33-.14.72.2,1.33.82,1.46.62.13,1.16-.23,1.31-.95.13-.63.23-1.28.24-1.92.01-.98-.43-1.5-1.16-1.49-.71.01-1.06.53-.99,1.56Z"/>
          <path class="cls-2" d="M475.31,41.36c-.43.02-.87.01-1.29.07-.58.08-.88.48-.89,1.03-.01.55.27,1.02.84,1.06.9.06,1.81.07,2.71,0,.57-.04.85-.51.83-1.07-.02-.56-.33-.94-.9-1.02-.43-.06-.86-.05-1.29-.07Z"/>
          <path class="cls-2" d="M463.3,53.55c.21,0,.43,0,.64-.03.57-.09.88-.47.9-1.02.02-.53-.23-.94-.76-1.06-.8-.18-1.6-.33-2.41-.44-.53-.08-1.04.32-1.14.85-.11.59.14,1.05.68,1.24.67.23,1.37.36,2.05.54l.02-.07Z"/>
          <path class="cls-2" d="M482.59,53.53c.41,0,.82.03,1.23,0,.58-.06.96-.48.96-1.03,0-.57-.27-1.02-.83-1.06-.9-.07-1.81-.07-2.71,0-.57.04-.84.51-.85,1.06-.01.53.4.98.97,1.04.41.04.82,0,1.23,0,0,0,0,0,0,0Z"/>
          <path class="cls-2" d="M480.07,63.51c.37,0,.74.02,1.1,0,.62-.04,1.03-.43,1.09-.99.05-.55-.31-1.1-.9-1.15-.86-.07-1.73-.07-2.58,0-.61.05-.93.56-.89,1.15.04.55.43.92,1.02.99.04,0,.09,0,.13,0,.35,0,.69,0,1.04,0,0,0,0,0,0,0Z"/>
          <path class="cls-2" d="M481.91,41.41c-.39,0-.78-.02-1.17,0-.61.05-.92.45-.98,1.02-.06.52.33,1.05.89,1.09.88.06,1.77.06,2.65,0,.57-.04.84-.48.85-1.05,0-.56-.36-.98-.94-1.05-.43-.05-.86,0-1.29,0h0Z"/>
          <path class="cls-2" d="M468.66,41.42c-.41,0-.82-.04-1.23,0-.58.06-.95.49-.95,1.04,0,.57.29,1.01.85,1.05.9.07,1.81.07,2.71,0,.57-.05.85-.52.82-1.07-.03-.55-.34-.94-.91-1.01-.43-.05-.86-.04-1.29-.06,0,.02,0,.03,0,.05Z"/>
          <path class="cls-2" d="M476.26,31.44c-.41,0-.82-.03-1.23,0-.57.06-.9.43-.95.98-.04.55.21,1.05.77,1.1.94.08,1.89.08,2.83,0,.56-.05.81-.54.76-1.11-.05-.57-.39-.91-.95-.97-.41-.04-.82,0-1.23,0Z"/>
          <path class="cls-2" d="M473.46,63.5c.39,0,.78.03,1.17,0,.56-.06.91-.38.97-.96.06-.6-.21-1.09-.8-1.14-.92-.09-1.85-.08-2.77,0-.56.05-.81.53-.8,1.09.02.55.42.94.99,1.01.04,0,.09,0,.13,0,.37,0,.73,0,1.1,0,0,0,0,0,0-.01Z"/>
          <path class="cls-2" d="M469.32,53.52c.41,0,.82.03,1.23,0,.56-.06.98-.51.95-1.04-.02-.55-.28-1.01-.86-1.05-.9-.06-1.81-.07-2.71,0-.56.05-.84.5-.82,1.07.02.57.34.94.91,1.01.43.05.86,0,1.29,0,0,0,0,0,0,0Z"/>
          <path class="cls-5" d="M516.14,47.96c.07,3.56-2.94,6.65-6.53,6.71-3.62.06-6.69-2.9-6.77-6.54-.08-3.6,2.91-6.66,6.57-6.73,3.62-.07,6.66,2.89,6.73,6.56ZM505.06,48.03c0,2.4,2.02,4.42,4.42,4.43,2.42.01,4.46-2.05,4.43-4.47-.04-2.44-2.01-4.39-4.44-4.37-2.43.02-4.42,2.01-4.41,4.42Z"/>
          <path class="cls-5" d="M469.03,11.48c3.27-.05,6.05,2.69,6.13,6.04.07,3.26-2.68,6.07-6.02,6.14-3.28.07-6.07-2.65-6.16-6-.09-3.29,2.69-6.12,6.05-6.18ZM469.07,21.44c2.11,0,3.89-1.79,3.88-3.89-.02-2.09-1.75-3.83-3.85-3.86-2.09-.03-3.89,1.75-3.91,3.86-.01,2.11,1.76,3.89,3.88,3.89Z"/>
        </g>
      </g>
      <g>
        <path class="cls-15" d="M326.57,14.68c-.1-.12-.28-.14-.4-.05l-32.25,25.69c-.12.1-.14.28-.05.4.06.07.14.11.22.11.06,0,.13-.02.18-.06l32.25-25.69c.12-.1.14-.28.05-.4h0Z"/>
        <path class="cls-15" d="M278.62,54.35c1.78,0,3.29-1.13,3.88-2.7h18.54c.79,0,1.43-.64,1.43-1.43s-.64-1.43-1.43-1.43h-18.54c-.58-1.58-2.1-2.7-3.88-2.7-2.28,0-4.13,1.85-4.13,4.13s1.85,4.13,4.13,4.13h0ZM278.62,48.94c.7,0,1.28.57,1.28,1.28s-.57,1.28-1.28,1.28-1.28-.57-1.28-1.28.57-1.28,1.28-1.28Z"/>
        <path class="cls-15" d="M301.37,56h-26.98c-.58-1.58-2.1-2.7-3.88-2.7-2.28,0-4.13,1.85-4.13,4.13s1.85,4.13,4.13,4.13c1.78,0,3.29-1.13,3.88-2.7h26.98c.79,0,1.43-.64,1.43-1.43s-.64-1.43-1.43-1.43h0ZM270.51,58.7c-.7,0-1.28-.57-1.28-1.28s.57-1.28,1.28-1.28,1.28.57,1.28,1.28-.57,1.28-1.28,1.28Z"/>
        <path class="cls-12" d="M397.34,18.41h-26.76c-5.55,0-10.07,4.52-10.07,10.07v35.62h7.12V28.49c0-1.63,1.32-2.95,2.95-2.95h26.76c1.63,0,2.95,1.32,2.95,2.95v35.39h7.12V28.49c0-5.55-4.52-10.07-10.07-10.07h0Z"/>
        <path class="cls-15" d="M341.59,18.07h-14.84l-9.86,7.82h24.7c1.78,0,3.24,1.45,3.24,3.24v23.76c0,1.78-1.45,3.24-3.24,3.24h-33.62c-1.78,0-3.24-1.45-3.24-3.24v-17.36l-7.82,6.19v11.17c0,6.09,4.96,11.05,11.05,11.05h33.62c6.09,0,11.05-4.96,11.05-11.05v-23.76c0-6.09-4.96-11.05-11.05-11.05h0Z"/>
        <path class="cls-1" d="M214.01,33.26V9.71h13.64c1.66,0,3.2.28,4.6.84,1.4.56,2.61,1.35,3.63,2.36,1.01,1.01,1.81,2.23,2.38,3.64.57,1.41.86,2.98.86,4.68s-.29,3.29-.86,4.76c-.57,1.47-1.37,2.74-2.38,3.81-1.01,1.07-2.23,1.91-3.63,2.53-1.4.61-2.94.92-4.6.92h-13.64ZM227.66,29.15c1.06,0,2.03-.19,2.93-.58s1.67-.92,2.33-1.6c.66-.68,1.17-1.49,1.54-2.45.37-.95.55-1.98.55-3.08s-.18-2.12-.55-3.06c-.37-.94-.88-1.74-1.54-2.41-.66-.67-1.43-1.19-2.33-1.57-.89-.38-1.87-.57-2.93-.57h-9.54v15.32h9.54Z"/>
        <path class="cls-1" d="M263.9,33.26l-3.53-5.93h-11.14l1.94-3.34h7.22l-5.25-8.81-10.69,18.08h-4.7l13.54-22.54c.24-.41.52-.73.84-.97s.71-.36,1.17-.36.84.12,1.15.36c.31.24.59.56.83.97l13.57,22.54h-4.96,0Z"/>
        <path class="cls-1" d="M274.75,33.26V13.83h-8.94v-4.11h21.99v4.11h-8.94v19.44h-4.11Z"/>
        <path class="cls-1" d="M295.97,27.33h8.97l4.78-3.85-7.69-12.77c-.24-.41-.51-.73-.83-.97-.31-.24-.7-.36-1.15-.36s-.84.12-1.17.36c-.32.24-.61.56-.84.97l-13.54,22.54h4.7l10.69-18.08,5.25,8.81h-7.22l-1.94,3.34h0Z"/>
      </g>
    </g>
  </g>
</svg>