<svg xmlns="http://www.w3.org/2000/svg" viewBox="0 0 1023.27 79.83"><defs><style>.cls-1{fill:#585c5e;}.cls-2{fill:#609;}.cls-3{fill:#cf9;}.cls-4{fill:#9c3;}.cls-5{fill:#fc3;}.cls-6{fill:#3c9;}.cls-7{fill:#06f;}.cls-8{fill:#f60;}.cls-9{fill:#ffca33;}.cls-10{fill:#f93;}.cls-11{fill:#5eaab1;}.cls-12{fill:#eae8a0;}.cls-13{fill:#add211;}.cls-14{fill:#120740;}</style></defs><g id="Capa_2" data-name="Capa 2"><g id="Capa_1-2" data-name="Capa 1"><path class="cls-1" d="M30.46,42.58V20.9h-10V16.31H45V20.9h-10V42.58Z"/><path class="cls-1" d="M72.45,42.58l-6.65-7.3H56v-4h11a4.93,4.93,0,0,0,3.76-1.36A5.55,5.55,0,0,0,71.94,26a5,5,0,0,0-1.32-3.81,5.18,5.18,0,0,0-3.7-1.25H52.61V42.58H48.06V16.31H66.92a11.43,11.43,0,0,1,4,.67,8.09,8.09,0,0,1,4.88,4.93,11.58,11.58,0,0,1,.65,4A10,10,0,0,1,75,31.4a8,8,0,0,1-4,3.2l7.91,8Z"/><path class="cls-1" d="M90.26,42.58v-10l-14-16.3h6.18L92.71,28.42,103,16.31h5.86l-14,16.3v10Z"/><path class="cls-2" d="M10.35,72.82H5.92a5.83,5.83,0,0,1-4.37-1.57A5.92,5.92,0,0,1,0,66.9V54.19a5.93,5.93,0,0,1,1.55-4.38,5.9,5.9,0,0,1,4.37-1.54h4.43a5.91,5.91,0,0,1,4.35,1.54,5.9,5.9,0,0,1,1.57,4.38V56a.6.6,0,0,1-.69.68H13.17c-.43,0-.65-.22-.65-.68V54.34c0-1.89-.91-2.83-2.75-2.83H6.45c-1.83,0-2.75.94-2.75,2.83V66.75c0,1.88.92,2.82,2.75,2.82H9.77c1.84,0,2.75-.94,2.75-2.82V65.07c0-.46.22-.69.65-.69h2.41a.61.61,0,0,1,.69.69V66.9a5.88,5.88,0,0,1-1.57,4.35A5.85,5.85,0,0,1,10.35,72.82Z"/><path class="cls-2" d="M29.51,72.82H26.15a5.85,5.85,0,0,1-4.37-1.57,5.91,5.91,0,0,1-1.54-4.35V59.26a5.91,5.91,0,0,1,1.54-4.37,5.91,5.91,0,0,1,4.37-1.54h3.36a6,6,0,0,1,4.38,1.54,5.85,5.85,0,0,1,1.58,4.37V66.9a5.85,5.85,0,0,1-1.58,4.35A6,6,0,0,1,29.51,72.82Zm-2.82-3.25H29a2.45,2.45,0,0,0,2.75-2.78V59.38A2.45,2.45,0,0,0,29,56.59H26.69a2.8,2.8,0,0,0-2.1.67,3,3,0,0,0-.65,2.12v7.41a2.94,2.94,0,0,0,.65,2.11A2.8,2.8,0,0,0,26.69,69.57Z"/><path class="cls-2" d="M42.92,72.82H40.51a.58.58,0,0,1-.65-.65V54a.57.57,0,0,1,.65-.64h2.41a.57.57,0,0,1,.65.64v1.38h.15c.61-1.35,1.89-2,3.86-2h1.68a5.69,5.69,0,0,1,4.27,1.52A6,6,0,0,1,55,59.26V72.17c0,.43-.23.65-.69.65h-2.4a.57.57,0,0,1-.65-.65V59.42c0-1.89-.93-2.83-2.79-2.83H46.7q-3.14,0-3.13,3.25V72.17A.58.58,0,0,1,42.92,72.82Z"/><path class="cls-2" d="M60.18,56.59H58.34a.73.73,0,0,1-.51-.13.67.67,0,0,1-.14-.48V54a.57.57,0,0,1,.65-.64h1.84a.34.34,0,0,0,.38-.39V49.53c0-.44.23-.65.68-.65h2.41a.57.57,0,0,1,.65.65V53q0,.39.42.39h3.55c.46,0,.69.21.69.64v2c0,.41-.23.61-.69.61H64.72c-.28,0-.42.13-.42.38v9.82c0,1.85,1,2.78,2.86,2.78h1.49c.46,0,.69.22.69.65v2c0,.4-.23.61-.69.61H66.59a6.16,6.16,0,0,1-4.43-1.53A5.67,5.67,0,0,1,60.56,67V57A.34.34,0,0,0,60.18,56.59Z"/><path class="cls-2" d="M76.06,72.82H73.65a.58.58,0,0,1-.65-.65V54a.57.57,0,0,1,.65-.64h2.41a.57.57,0,0,1,.65.64v1.45h.15a3,3,0,0,1,1.47-1.52,5.15,5.15,0,0,1,2.43-.57h1.41a.57.57,0,0,1,.65.64v2c0,.48-.22.69-.65.61H79.88c-2.12,0-3.17,1.16-3.17,3.48v12.1A.58.58,0,0,1,76.06,72.82Z"/><path class="cls-2" d="M94.69,72.82H91.33A5.85,5.85,0,0,1,87,71.25a5.92,5.92,0,0,1-1.55-4.35V59.26a5.38,5.38,0,0,1,5.92-5.91h3.36a6,6,0,0,1,4.37,1.54,5.82,5.82,0,0,1,1.59,4.37V66.9a5.82,5.82,0,0,1-1.59,4.35A5.91,5.91,0,0,1,94.69,72.82Zm-2.82-3.25H94.2a2.44,2.44,0,0,0,2.74-2.78V59.38c0-1.86-.91-2.79-2.74-2.79H91.87a2.8,2.8,0,0,0-2.1.67,2.91,2.91,0,0,0-.65,2.12v7.41a2.9,2.9,0,0,0,.65,2.11A2.8,2.8,0,0,0,91.87,69.57Z"/><path class="cls-2" d="M108.28,72.82h-2.4a.58.58,0,0,1-.65-.65V46.62a.57.57,0,0,1,.65-.64h2.4a.57.57,0,0,1,.65.64V72.17A.57.57,0,0,1,108.28,72.82Z"/><path class="cls-2" d="M117.18,72.82h-2.4a.57.57,0,0,1-.65-.65V46.62a.57.57,0,0,1,.65-.64h2.4a.57.57,0,0,1,.65.64V72.17A.58.58,0,0,1,117.18,72.82Z"/><path class="cls-2" d="M136.62,72.82h-8.25a5.42,5.42,0,0,1-5.92-5.92V59.26a5.38,5.38,0,0,1,5.92-5.91h3.13a6,6,0,0,1,4.39,1.54,5.89,5.89,0,0,1,1.57,4.37v4.85a.61.61,0,0,1-.69.69H126.53c-.28,0-.42.13-.42.38v1.64a2.47,2.47,0,0,0,2.79,2.79h7.72a.61.61,0,0,1,.68.69v1.91C137.3,72.61,137.07,72.82,136.62,72.82ZM126.53,62.2h6.84a.33.33,0,0,0,.38-.38V59.38a3,3,0,0,0-.65-2.12,2.8,2.8,0,0,0-2.1-.67h-2.1a2.8,2.8,0,0,0-2.1.67,3,3,0,0,0-.65,2.12v2.44A.33.33,0,0,0,126.53,62.2Z"/><path class="cls-2" d="M144.71,72.82H142.3a.58.58,0,0,1-.65-.65V54a.57.57,0,0,1,.65-.64h2.41a.57.57,0,0,1,.65.64v1.45h.15A3,3,0,0,1,147,53.92a5.15,5.15,0,0,1,2.43-.57h1.41a.57.57,0,0,1,.65.64v2c0,.48-.22.69-.65.61h-2.29c-2.12,0-3.17,1.16-3.17,3.48v12.1A.58.58,0,0,1,144.71,72.82Z"/><path class="cls-3" d="M137.77,24.54a4.41,4.41,0,1,0,4.32-4.49A4.42,4.42,0,0,0,137.77,24.54Z"/><path class="cls-2" d="M147.25,7.26a11.27,11.27,0,0,1-1.71,3.38l-.14.22A14,14,0,1,1,131.15,33l-2.24,3.48A17.92,17.92,0,1,0,147.25,7.26Z"/><path class="cls-4" d="M142.77,4.87a4.89,4.89,0,0,0-1.49,1.3L133.9,15.1l-7.76,9.35-1.76,2.12-.9,1.09c-.42.51-.42.51-.85,0l-5.15-6a3.64,3.64,0,0,0-6,.55,3.71,3.71,0,0,0,.6,4.37c1.78,2.05,3.53,4.12,5.3,6.18,1,1.21,2.06,2.42,3.11,3.62a3.57,3.57,0,0,0,2.59,1.31A3.5,3.5,0,0,0,126.4,36l.94-1.46q1.2-1.86,2.39-3.72,6.54-10.14,13.05-20.29l.4-.62a12.55,12.55,0,0,0,1.73-3.15s0-.08,0-.13a1.85,1.85,0,0,0,0-1.08C144.49,4.35,143.59,4.46,142.77,4.87Z"/><path class="cls-1" d="M449.25,59.76V38.22h-9.91V33.66h24.37v4.56h-9.9V59.76Z"/><path class="cls-1" d="M491,59.76l-6.6-7.25h-9.76v-4h10.87a4.88,4.88,0,0,0,3.74-1.35,5.53,5.53,0,0,0,1.25-3.89,5,5,0,0,0-1.31-3.79,5.12,5.12,0,0,0-3.68-1.24H471.25V59.76h-4.52V33.66h18.73a11.09,11.09,0,0,1,4,.67,8.15,8.15,0,0,1,3,1.9,8.28,8.28,0,0,1,1.86,3,11.38,11.38,0,0,1,.65,3.94,9.9,9.9,0,0,1-1.42,5.48,7.91,7.91,0,0,1-4,3.17l7.86,7.94Z"/><path class="cls-1" d="M508.65,59.76V49.85L494.79,33.66h6.14l10.16,12,10.19-12h5.82L513.21,49.85v9.91Z"/><circle class="cls-5" cx="510.76" cy="25.5" r="4.14"/><path class="cls-6" d="M523.43,13.16a17.9,17.9,0,0,0-29.85,17.67h5.34a12.86,12.86,0,1,1,23.69,0H528A17.93,17.93,0,0,0,523.43,13.16Z"/><path class="cls-6" d="M535.08,60h-1.85a6,6,0,0,1-4.55-1.66,6.6,6.6,0,0,1-1.58-4.72v-7.2a6.3,6.3,0,0,1,1.69-4.71A6.37,6.37,0,0,1,533.48,40h9.22c.49,0,.74.23.74.7V61.11a6.22,6.22,0,0,1-1.71,4.67A6.47,6.47,0,0,1,537,67.45h-7.74c-.47,0-.7-.22-.7-.66V64.65a.62.62,0,0,1,.7-.7h7.12c2,0,3-1,3-3.05V57.77h-.17C538.55,59.25,537.17,60,535.08,60Zm4.33-7V43.94c0-.27-.16-.41-.46-.41h-4.9c-1.94,0-2.92,1-2.92,3v6.83c0,2,1,3,2.92,3h2Q539.41,56.45,539.41,53Z"/><path class="cls-6" d="M551.88,66.83h-2.6a.62.62,0,0,1-.7-.7V40.73a.62.62,0,0,1,.7-.7h2.6a.62.62,0,0,1,.7.7v1.48h.16q1-2.18,4.16-2.18H559a6,6,0,0,1,4.55,1.65,6.56,6.56,0,0,1,1.58,4.73v8.23a6.62,6.62,0,0,1-1.58,4.72A6,6,0,0,1,559,61h-2.1c-2.11,0-3.5-.72-4.16-2.18h-.16v7.29A.62.62,0,0,1,551.88,66.83Zm4.07-9.3h2.18q3,0,3-3.05v-7.9c0-2-1-3-3-3H556q-3.37,0-3.37,3.5v7Q552.58,57.53,556,57.53Z"/><path class="cls-6" d="M577.4,61h-7.57a.62.62,0,0,1-.7-.7v-2c0-.44.23-.66.7-.66h6.91c1.78,0,2.68-.62,2.68-1.85v-.5a2.74,2.74,0,0,0-1.94-2.51L573,50.65a8.39,8.39,0,0,1-3-2.18,4.91,4.91,0,0,1-1-3.13Q569,40,574.89,40h6.83c.44,0,.66.23.66.7v2c0,.46-.22.7-.66.7h-6a3.43,3.43,0,0,0-1.89.43,1.3,1.3,0,0,0-.66,1.13v.45q0,1.32,2.1,2.31l4.53,2.3a6.42,6.42,0,0,1,2.94,2.25,6.23,6.23,0,0,1,.8,3.35Q583.53,61,577.4,61Z"/><path class="cls-1" d="M238.89,38.59V17.12H229V12.58h24.3v4.54h-9.88V38.59Z"/><path class="cls-1" d="M280.46,38.59l-6.58-7.23h-9.73v-4H275A4.84,4.84,0,0,0,278.71,26,5.5,5.5,0,0,0,280,22.13a5,5,0,0,0-1.31-3.78A5.13,5.13,0,0,0,275,17.12H260.82V38.59h-4.51v-26H275a11.2,11.2,0,0,1,4,.66,8.13,8.13,0,0,1,3,1.89,8.32,8.32,0,0,1,1.86,3,11.35,11.35,0,0,1,.64,3.94A9.88,9.88,0,0,1,283,27.51a7.87,7.87,0,0,1-3.95,3.17l7.83,7.91Z"/><path class="cls-1" d="M298.1,38.59V28.71L284.29,12.58h6.12l10.12,12,10.16-12h5.8L302.64,28.71v9.88Z"/><path class="cls-7" d="M229.25,72.49H226.8c-.47,0-.7-.22-.7-.66V51.17a.34.34,0,0,0-.39-.39h-4.9c-.47,0-.71-.22-.71-.66v-2c0-.44.24-.66.71-.66h14.43c.47,0,.7.22.7.66v2c0,.44-.23.66-.7.66h-4.9c-.29,0-.43.13-.43.39V71.83A.58.58,0,0,1,229.25,72.49Z"/><path class="cls-7" d="M239.1,49.34V45.8a.54.54,0,0,1,.62-.62h2.53a.55.55,0,0,1,.62.62v3.54c0,.44-.21.66-.62.66h-2.53C239.3,50,239.1,49.78,239.1,49.34Zm0,22.49V53.31c0-.44.2-.66.62-.66h2.49a.58.58,0,0,1,.66.66V71.83a.72.72,0,0,1-.14.53.67.67,0,0,1-.48.13h-2.49A.58.58,0,0,1,239.1,71.83Z"/><path class="cls-7" d="M262,72.49h-8.41a5.51,5.51,0,0,1-6-6V58.68a5.48,5.48,0,0,1,6-6h3.19a6.12,6.12,0,0,1,4.48,1.57,6,6,0,0,1,1.59,4.46v4.94a.62.62,0,0,1-.7.7H251.74q-.42,0-.42.39v1.68a2.51,2.51,0,0,0,2.84,2.84H262a.62.62,0,0,1,.7.7v1.94C262.72,72.29,262.48,72.49,262,72.49ZM251.74,61.68h7a.34.34,0,0,0,.39-.39V58.8a3,3,0,0,0-.66-2.16A2.86,2.86,0,0,0,256.3,56h-2.14a2.85,2.85,0,0,0-2.14.68,3,3,0,0,0-.67,2.16v2.49A.34.34,0,0,0,251.74,61.68Z"/><path class="cls-7" d="M270.27,72.49h-2.45a.59.59,0,0,1-.67-.66V53.31a.59.59,0,0,1,.67-.66h2.45a.58.58,0,0,1,.66.66v1.4h.15c.63-1.37,1.94-2.06,3.94-2.06h1.71a5.86,5.86,0,0,1,4.36,1.55,6.16,6.16,0,0,1,1.51,4.48V71.83c0,.44-.23.66-.7.66h-2.45a.58.58,0,0,1-.66-.66v-13c0-1.92-1-2.88-2.84-2.88h-1.83q-3.19,0-3.19,3.3V71.83A.58.58,0,0,1,270.27,72.49Z"/><path class="cls-7" d="M294.67,72.49h-2a5.66,5.66,0,0,1-4.3-1.57,6.21,6.21,0,0,1-1.49-4.46V58.68a6.2,6.2,0,0,1,1.49-4.48,5.73,5.73,0,0,1,4.3-1.55h2c2,0,3.29.69,3.89,2.06h.16V45.8a.58.58,0,0,1,.66-.66h2.49a.58.58,0,0,1,.66.66v26a.58.58,0,0,1-.66.66h-2.49a.58.58,0,0,1-.66-.66v-1.4h-.16C298,71.81,296.67,72.49,294.67,72.49Zm4.05-6.61V59.26q0-3.3-3.2-3.3h-2.06c-1.87,0-2.8,1-2.8,2.88v7.47c0,1.92.93,2.88,2.8,2.88h2.06C297.65,69.19,298.72,68.08,298.72,65.88Z"/><path class="cls-7" d="M314.59,72.49h-1.51a5.51,5.51,0,0,1-6-6V58.68a5.48,5.48,0,0,1,6-6h8.71c.47,0,.7.22.7.66V71.83c0,.44-.23.66-.7.66h-2.45a.58.58,0,0,1-.66-.66v-1.4h-.16C317.9,71.81,316.59,72.49,314.59,72.49Zm4.09-6.61V56.34c0-.25-.14-.38-.43-.38h-4.63c-1.87,0-2.8,1-2.8,2.88v7.47c0,1.92.93,2.88,2.8,2.88h1.87C317.62,69.19,318.68,68.08,318.68,65.88Z"/><path class="cls-7" d="M334.44,72.49h-7.16a.58.58,0,0,1-.66-.66v-1.9q0-.63.66-.63h6.54c1.68,0,2.53-.58,2.53-1.75v-.46a2.6,2.6,0,0,0-1.83-2.38l-4.24-2a7.8,7.8,0,0,1-2.88-2.06,4.62,4.62,0,0,1-.9-3q0-5,5.57-5h6.46c.41,0,.62.22.62.66v1.91c0,.44-.21.66-.62.66h-5.68a3.18,3.18,0,0,0-1.79.41,1.23,1.23,0,0,0-.63,1.07v.42c0,.84.66,1.56,2,2.18l4.28,2.18a6,6,0,0,1,2.78,2.12,5.94,5.94,0,0,1,.76,3.18Q340.24,72.5,334.44,72.49Z"/><path class="cls-7" d="M377.71,20.33q-3.15-3.31-6.33-6.59c-.29-.29-.22-.24-.9-1l-44.55-.14c-.7.7-1.25,1.37-1.8,1.94-1.83,1.87-3.62,3.79-5.42,5.68s-1.79,1.87-1.77,4.47a7.17,7.17,0,0,0,5.27,6.94,7.66,7.66,0,0,0,3.89,0,6.81,6.81,0,0,0,3.67-2.38c.4-.5.54-.33.85,0a7.24,7.24,0,0,0,11.1,0c.32-.38.48-.47.86,0a7.21,7.21,0,0,0,11.22-.07c.27-.31.41-.34.7,0a7.2,7.2,0,0,0,11.33,0c.25-.29.35-.33.61,0a7.06,7.06,0,0,0,3.74,2.48.73.73,0,0,1,.64.85c0,1.64,0,13.49,0,15.14a3.39,3.39,0,0,0,0,.45l2.45.74a1.33,1.33,0,0,0,.11-.54c0-1.88,0-14,0-15.87a.65.65,0,0,1,.58-.75,7.15,7.15,0,0,0,4.35-3.21,10.13,10.13,0,0,0,1-2.54V22.13A15.49,15.49,0,0,0,377.71,20.33Zm-52.92,9a4.63,4.63,0,0,1-5.24-4c-.19-1.38-.19-1.38,1.16-1.38h3.47c1.37,0,2.75,0,4.13,0,.41,0,.57.11.59.55A4.73,4.73,0,0,1,324.79,29.28Zm4.87-8.41c-.15.29-.3.49-.68.49h-7.54s-.07,0-.2-.08l5.27-5.56a.91.91,0,0,1,.72-.24c1.58,0,3.16,0,4.74,0,.48,0,.57.11.33.55C331.4,17.62,330.53,19.25,329.66,20.87Zm7.22,8.41a4.71,4.71,0,0,1-5.31-3.69c-.34-1.53-.19-1.71,1.33-1.71h3.29c1.32,0,2.64,0,4,0,.59,0,.72.21.71.75A4.72,4.72,0,0,1,336.88,29.28ZM342.29,16c-.36,1.62-.72,3.24-1.05,4.87-.08.41-.3.51-.68.5-1.27,0-2.55,0-3.83,0s-2.55,0-3.83,0c-.45,0-.52-.11-.3-.51.9-1.63,1.78-3.28,2.65-4.92a.77.77,0,0,1,.76-.47c1.95,0,3.9,0,5.84,0C342.26,15.46,342.39,15.56,342.29,16Zm1.59,4.78c.37-1.6.7-3.21,1-4.81a.54.54,0,0,1,.63-.5q2.61,0,5.22,0c.42,0,.57.18.65.56.32,1.56.64,3.13,1,4.69.14.56-.06.66-.56.65-1.23,0-2.47,0-3.71,0s-2.51,0-3.77,0C344,21.37,343.76,21.28,343.88,20.77Zm4.32,8.53a4.68,4.68,0,0,1-4.76-4.79c0-.51.18-.65.67-.64,1.36,0,2.72,0,4.07,0s2.72,0,4.08,0c.48,0,.62.16.62.63A4.68,4.68,0,0,1,348.2,29.3Zm6.87-8.48c-.33-1.61-.68-3.22-1-4.82-.09-.4,0-.54.43-.54,1.93,0,3.86,0,5.78,0a.71.71,0,0,1,.69.4q1.4,2.54,2.8,5.05c.21.37.09.45-.28.45h-3.9c-1.26,0-2.52,0-3.77,0A.6.6,0,0,1,355.07,20.82Zm5,8.48a4.63,4.63,0,0,1-4.65-4.87c0-.43.18-.56.59-.56h8.22c.42,0,.55.16.57.57A4.64,4.64,0,0,1,360.11,29.3Zm6.53-8.41q-1.33-2.46-2.71-4.9c-.26-.45-.12-.53.34-.53,1.6,0,3.2,0,4.81,0a.94.94,0,0,1,.77.27c1.72,1.83,3.45,3.65,5.32,5.62h-2.46c-1.75,0-3.49,0-5.24,0A.81.81,0,0,1,366.64,20.89Zm5.51,8.41a4.66,4.66,0,0,1-4.72-4.86c0-.42.15-.57.57-.57h8.33c.33,0,.53.06.54.46A4.71,4.71,0,0,1,372.15,29.3Z"/><path class="cls-8" d="M354.29,46.07a1.06,1.06,0,0,0-1.44,1,2,2,0,0,0,.16.73q.93,3.13,1.88,6.27l4.24,14.14a1.09,1.09,0,0,0,.9.88,1.11,1.11,0,0,0,1.17-.59l3.16-4.74c.16-.26.26-.27.47-.05l4.93,4.93a1.15,1.15,0,0,0,1.87,0l3.84-3.85a1.15,1.15,0,0,0,0-1.89L370.54,58c-.2-.2-.21-.32,0-.45a.34.34,0,0,0,.11-.07l4.71-3.14a1.07,1.07,0,0,0,.53-1.11,1,1,0,0,0-.81-.89l-.38-.12-16.2-4.86C357.13,46.91,355.71,46.48,354.29,46.07Z"/><path class="cls-9" d="M354.64,41V37.93a1.06,1.06,0,0,0-1.07-1.12,1,1,0,0,0-1.08,1.1c0,1,0,2.07,0,3.1a1.08,1.08,0,1,0,2.15,0Z"/><path class="cls-9" d="M348.29,47.38a1.08,1.08,0,0,0,0-2.15h-3.19a1,1,0,0,0-1.06,1.07,1.06,1.06,0,0,0,1.08,1.08h3.15Z"/><path class="cls-9" d="M348.56,42.84a1.09,1.09,0,1,0,1.53-1.55c-.67-.69-1.36-1.36-2-2a1,1,0,0,0-.65-.34,1.09,1.09,0,0,0-1.14.62,1.05,1.05,0,0,0,.23,1.24Q347.51,41.82,348.56,42.84Z"/><path class="cls-9" d="M358.49,42.9c.76-.72,1.49-1.46,2.21-2.21a1.08,1.08,0,0,0-.81-1.78,1,1,0,0,0-.72.26c-.74.73-1.49,1.45-2.2,2.2a1.08,1.08,0,0,0,1.52,1.53Z"/><path class="cls-9" d="M348.59,49.73l-.67.67c-.48.48-1,1-1.44,1.45a1.05,1.05,0,0,0-.23,1.21,1,1,0,0,0,1,.64,1,1,0,0,0,.75-.28c.73-.72,1.46-1.43,2.16-2.16a1.09,1.09,0,0,0,0-1.52A1.11,1.11,0,0,0,348.59,49.73Z"/><path class="cls-1" d="M647.45,14.33h5.48l11.66,19.8,11.63-19.8h5.17l-14.82,24.6a3.21,3.21,0,0,1-.92,1.06,2,2,0,0,1-1.23.39,2.11,2.11,0,0,1-1.28-.39,3.19,3.19,0,0,1-.91-1.06Z"/><path class="cls-1" d="M684.39,40V21.26h4.49V40Z"/><path class="cls-10" d="M684.39,18.39V14.33h4.49v4.06Z"/><path class="cls-1" d="M693.55,40V14.33h18.8a12.89,12.89,0,0,1,3.41.42A7.89,7.89,0,0,1,718.4,16a5.61,5.61,0,0,1,1.69,2.08A6.64,6.64,0,0,1,720.7,21a7.26,7.26,0,0,1-.29,2.15,5.29,5.29,0,0,1-.77,1.58,5.07,5.07,0,0,1-2.51,1.75A5.73,5.73,0,0,1,720,28.51a6,6,0,0,1,1.14,3.74,8.37,8.37,0,0,1-.59,3.2,6.9,6.9,0,0,1-1.66,2.46,7.25,7.25,0,0,1-2.62,1.57,10,10,0,0,1-3.41.55Zm7.74-11.17V25.08h11.1a4.66,4.66,0,0,0,2.83-.71,2.85,2.85,0,0,0,.92-2.4,3.05,3.05,0,0,0-.39-1.65,2.5,2.5,0,0,0-1.12-.95,5.28,5.28,0,0,0-1.73-.44,19.18,19.18,0,0,0-2.24-.11H698V35.58h13a12.83,12.83,0,0,0,2.23-.18,5.75,5.75,0,0,0,1.77-.58,3.17,3.17,0,0,0,1.15-1,2.89,2.89,0,0,0,.4-1.59,3.09,3.09,0,0,0-1-2.45,4.29,4.29,0,0,0-2.9-.87Z"/><path class="cls-1" d="M725.33,40V21.26h4.49V40Z"/><path class="cls-10" d="M725.33,18.39V14.33h4.49v4.06Z"/><path class="cls-10" d="M643.53,66.9V65.82a.63.63,0,0,1,.71-.71h2.65a.63.63,0,0,1,.71.71v.74a3.46,3.46,0,0,0,.76,2.51,3.52,3.52,0,0,0,2.55.77h2.86a3.46,3.46,0,0,0,2.57-.81,3.66,3.66,0,0,0,.79-2.63v-1a2.49,2.49,0,0,0-1-2.09,5.48,5.48,0,0,0-2.51-1c-1-.16-2.09-.37-3.28-.65a27.17,27.17,0,0,1-3.27-1,5.15,5.15,0,0,1-2.51-2,6.64,6.64,0,0,1-1-3.82V53.17A6,6,0,0,1,650,46.7h4.4a6.52,6.52,0,0,1,4.79,1.72,6.45,6.45,0,0,1,1.72,4.75v.91a.63.63,0,0,1-.71.71h-2.65a.63.63,0,0,1-.71-.71v-.54a3.55,3.55,0,0,0-.76-2.55,3.55,3.55,0,0,0-2.55-.76h-2.62a3.39,3.39,0,0,0-2.55.81,3.93,3.93,0,0,0-.76,2.75v1.29c0,1.24.89,2.09,2.69,2.53.8.19,1.68.36,2.63.5a20.17,20.17,0,0,1,2.89.62,11.63,11.63,0,0,1,2.65,1.1,5,5,0,0,1,1.95,2.07,7,7,0,0,1,.74,3.38V66.9a6,6,0,0,1-6.46,6.46H650a6.49,6.49,0,0,1-4.77-1.72A6.36,6.36,0,0,1,643.53,66.9Z"/><path class="cls-10" d="M681.31,73.36h-9a5.87,5.87,0,0,1-6.43-6.42v-8.3a5.85,5.85,0,0,1,6.43-6.42h3.4a6.51,6.51,0,0,1,4.77,1.68,6.38,6.38,0,0,1,1.7,4.74v5.27a.66.66,0,0,1-.75.75H670.36c-.31,0-.46.14-.46.41v1.78a2.68,2.68,0,0,0,3,3h8.38a.66.66,0,0,1,.74.75V72.7C682.05,73.14,681.8,73.36,681.31,73.36ZM670.36,61.84h7.42a.37.37,0,0,0,.42-.42V58.77a3.2,3.2,0,0,0-.71-2.3,3,3,0,0,0-2.28-.73h-2.28a3,3,0,0,0-2.28.73,3.2,3.2,0,0,0-.71,2.3v2.65A.37.37,0,0,0,670.36,61.84Z"/><path class="cls-10" d="M694.49,72.33h-1.87A6,6,0,0,1,688,70.65a6.64,6.64,0,0,1-1.59-4.75V58.64a6.34,6.34,0,0,1,1.7-4.74,6.42,6.42,0,0,1,4.72-1.68h9.29c.5,0,.75.23.75.7V73.45a6.3,6.3,0,0,1-1.72,4.7,6.51,6.51,0,0,1-4.75,1.68h-7.8c-.47,0-.7-.22-.7-.66V77a.62.62,0,0,1,.7-.7h7.18c2,0,3-1,3-3.07V70.09h-.16Q697.65,72.32,694.49,72.33Zm4.35-7V56.16q0-.42-.45-.42h-4.94q-2.94,0-2.94,3.07v6.88q0,3.07,2.94,3.07h2Q698.85,68.76,698.84,65.28Z"/><path class="cls-10" d="M715.93,73.36h-1.87a6,6,0,0,1-4.58-1.68,6.59,6.59,0,0,1-1.6-4.74v-14a.62.62,0,0,1,.71-.7h2.61a.62.62,0,0,1,.7.7V66.77q0,3.08,3,3.07h2c2.27,0,3.4-1.18,3.4-3.52V52.92a.62.62,0,0,1,.71-.7h2.61c.5,0,.74.23.74.7V72.66c0,.47-.24.7-.74.7H721a.62.62,0,0,1-.71-.7V71.17h-.17Q719.12,73.36,715.93,73.36Z"/><path class="cls-10" d="M732.84,73.36h-2.61a.62.62,0,0,1-.7-.7V52.92a.62.62,0,0,1,.7-.7h2.61a.62.62,0,0,1,.71.7V54.5h.16a3.25,3.25,0,0,1,1.6-1.66,5.52,5.52,0,0,1,2.63-.62h1.54a.62.62,0,0,1,.7.7v2.16c0,.52-.23.74-.7.66H737q-3.43,0-3.44,3.77V72.66A.62.62,0,0,1,732.84,73.36Z"/><path class="cls-10" d="M753.08,73.36h-3.65A5.87,5.87,0,0,1,743,66.94v-8.3a5.85,5.85,0,0,1,6.43-6.42h3.65a6.49,6.49,0,0,1,4.74,1.68,6.32,6.32,0,0,1,1.73,4.74v8.3a6.31,6.31,0,0,1-1.73,4.72A6.42,6.42,0,0,1,753.08,73.36ZM750,69.84h2.53q3,0,3-3v-8q0-3-3-3H750a3,3,0,0,0-2.28.73,3.2,3.2,0,0,0-.71,2.3v8a3.2,3.2,0,0,0,.71,2.3A3,3,0,0,0,750,69.84Z"/><path class="cls-10" d="M771.86,73.36h-7.63a.62.62,0,0,1-.7-.7v-2c0-.44.23-.67.7-.67h7c1.79,0,2.69-.62,2.69-1.86v-.5a2.75,2.75,0,0,0-1.95-2.53l-4.52-2.16a8.32,8.32,0,0,1-3.06-2.19,4.89,4.89,0,0,1-1-3.15q0-5.35,5.93-5.35h6.88c.45,0,.67.23.67.7v2c0,.47-.22.71-.67.71h-6.05a3.49,3.49,0,0,0-1.91.43,1.31,1.31,0,0,0-.66,1.14v.46c0,.89.7,1.66,2.11,2.32l4.56,2.32a6.43,6.43,0,0,1,3,2.26A6.36,6.36,0,0,1,778,68C778,71.57,776,73.36,771.86,73.36Z"/><path class="cls-11" d="M755.2,39.33a1.76,1.76,0,0,1-1-.3,1.74,1.74,0,0,1-.47-2.42,21.25,21.25,0,0,0-32-27.52,1.74,1.74,0,1,1-2.36-2.57,24.74,24.74,0,0,1,37.25,32A1.75,1.75,0,0,1,755.2,39.33Z"/><path class="cls-10" d="M736.13,40.12a1.09,1.09,0,0,1,0-2.17,13.22,13.22,0,1,0,0-26.43,1.09,1.09,0,0,1,0-2.17,15.39,15.39,0,1,1,0,30.77Z"/><path class="cls-12" d="M736.13,32.93a1,1,0,0,1,0-2.09,6.11,6.11,0,1,0,0-12.21,1,1,0,0,1,0-2.09,8.2,8.2,0,1,1,0,16.39Z"/><path class="cls-13" d="M890.42,44.91H878.69l2-3.51h7.6l-5.52-9.28-11.26,19h-4.94l14.25-23.74a3.31,3.31,0,0,1,.89-1A2,2,0,0,1,883,26a1.94,1.94,0,0,1,1.21.37,3.4,3.4,0,0,1,.87,1l14.08,23.4a9.43,9.43,0,0,0-.07-9.34L883.2,14a9.46,9.46,0,0,0-12.92-3.46L842.81,26.36h5.46l9.65,11.42,9.69-11.42h5.52l-13.2,15.38v9.41H855.6V41.74l-13-15.23a9.43,9.43,0,0,0-3.25,12.78l15.88,27.52a9.46,9.46,0,0,0,12.92,3.46l27.51-15.88A9.33,9.33,0,0,0,899,51.15h-4.81Z"/><path class="cls-13" d="M842.81,26.36h-.37l.12.15.21-.13Z"/><path class="cls-13" d="M899.15,50.81l-.2.34h.41Z"/><path class="cls-14" d="M907.49,50.5V27a.58.58,0,0,1,.66-.66h9.49a6,6,0,0,1,4.41,1.57,5.87,5.87,0,0,1,1.61,4.41V45.17a5.89,5.89,0,0,1-1.61,4.4,6,6,0,0,1-4.41,1.58h-9.49A.58.58,0,0,1,907.49,50.5Zm4.17-2.63h5.44c1.85,0,2.77-.95,2.77-2.85V32.48c0-1.91-.92-2.86-2.77-2.86h-5.44c-.29,0-.43.13-.43.39V47.45A.37.37,0,0,0,911.66,47.87Z"/><path class="cls-13" d="M928.71,28.19V24.68a.54.54,0,0,1,.62-.61h2.51a.54.54,0,0,1,.61.61v3.51c0,.44-.2.66-.61.66h-2.51C928.92,28.85,928.71,28.63,928.71,28.19Z"/><path class="cls-14" d="M928.71,50.5V32.13c0-.44.21-.66.62-.66h2.47a.58.58,0,0,1,.65.66V50.5a.76.76,0,0,1-.13.52.67.67,0,0,1-.48.13h-2.47A.58.58,0,0,1,928.71,50.5Z"/><path class="cls-14" d="M940.59,51.15h-2.43a.57.57,0,0,1-.65-.65V32.13a.58.58,0,0,1,.65-.66h2.43a.58.58,0,0,1,.66.66v1.39h.15c.62-1.36,1.92-2.05,3.9-2.05H947A5.75,5.75,0,0,1,951.32,33a6.11,6.11,0,0,1,1.5,4.43v13c0,.43-.23.65-.69.65H949.7a.58.58,0,0,1-.66-.65V37.61c0-1.9-.94-2.86-2.81-2.86h-1.82c-2.11,0-3.16,1.1-3.16,3.28V50.5A.58.58,0,0,1,940.59,51.15Z"/><path class="cls-14" d="M971.38,51.15h-8.33a5.46,5.46,0,0,1-6-6V37.45a5.44,5.44,0,0,1,6-6h3.16A6.06,6.06,0,0,1,970.65,33a5.93,5.93,0,0,1,1.58,4.41v4.9a.61.61,0,0,1-.69.7H961.2c-.29,0-.43.13-.43.39v1.65a2.49,2.49,0,0,0,2.82,2.82h7.79a.62.62,0,0,1,.7.7v1.92C972.08,51,971.85,51.15,971.38,51.15ZM961.2,40.43h6.9a.34.34,0,0,0,.39-.39V37.57a3,3,0,0,0-.66-2.14,2.84,2.84,0,0,0-2.12-.68h-2.12a2.84,2.84,0,0,0-2.12.68,3,3,0,0,0-.66,2.14V40A.34.34,0,0,0,961.2,40.43Z"/><path class="cls-14" d="M979.56,51.15h-2.43a.57.57,0,0,1-.65-.65V32.13a.58.58,0,0,1,.65-.66h2.43a.58.58,0,0,1,.66.66V33.6h.15a3,3,0,0,1,1.49-1.55,5.24,5.24,0,0,1,2.45-.58h1.43a.58.58,0,0,1,.65.66v2c0,.49-.22.69-.65.61h-2.32q-3.2,0-3.2,3.51V50.5A.58.58,0,0,1,979.56,51.15Z"/><path class="cls-14" d="M998.39,51.15H995a5.47,5.47,0,0,1-6-6V37.45a5.46,5.46,0,0,1,6-6h3.39a6.07,6.07,0,0,1,4.42,1.57,5.86,5.86,0,0,1,1.6,4.41v7.72a5.89,5.89,0,0,1-1.6,4.4A6,6,0,0,1,998.39,51.15Zm-2.85-3.28h2.35a2.47,2.47,0,0,0,2.78-2.81V37.57c0-1.88-.93-2.82-2.78-2.82h-2.35a2.88,2.88,0,0,0-2.13.68,3,3,0,0,0-.65,2.14v7.49a3,3,0,0,0,.65,2.14A2.88,2.88,0,0,0,995.54,47.87Z"/><path class="cls-1" d="M911.73,66.58h-1.92a2.38,2.38,0,0,1-1.73-.62,2.32,2.32,0,0,1-.64-1.74V58.67a2.29,2.29,0,0,1,.64-1.74,2.34,2.34,0,0,1,1.73-.63h1.92a2.19,2.19,0,0,1,2.37,2.37v.78a.21.21,0,0,1-.23.23h-.72c-.15,0-.22-.08-.22-.23v-.73c0-.93-.45-1.39-1.34-1.39h-1.65c-.89,0-1.33.46-1.33,1.39v5.45c0,.93.44,1.39,1.33,1.39h1.65c.89,0,1.34-.46,1.34-1.39v-.74a.19.19,0,0,1,.22-.22h.72c.15,0,.23.07.23.22v.79a2.18,2.18,0,0,1-2.37,2.36Z"/><path class="cls-1" d="M917,66.58h-.72c-.15,0-.23-.07-.23-.22V58.65c0-.15.08-.22.23-.22H917a.19.19,0,0,1,.22.22v.64h.07a1.33,1.33,0,0,1,.6-.6,2,2,0,0,1,1.06-.26h.62c.14,0,.21.07.21.22v.59a.25.25,0,0,1-.05.17s-.08.05-.16,0h-.86a1.45,1.45,0,0,0-1.11.43,1.77,1.77,0,0,0-.38,1.19v5.29A.19.19,0,0,1,917,66.58Z"/><path class="cls-1" d="M926.85,66.58h-3.39a2.38,2.38,0,0,1-1.73-.62,2.35,2.35,0,0,1-.63-1.74V60.8a2.17,2.17,0,0,1,2.36-2.37h1.35a2.17,2.17,0,0,1,2.35,2.37v2a.21.21,0,0,1-.23.24h-4.52c-.11,0-.16,0-.16.14v1c0,.93.45,1.4,1.34,1.4h3.26c.15,0,.23.07.23.22v.57C927.08,66.51,927,66.58,926.85,66.58Zm-4.44-4.36h3.45a.14.14,0,0,0,.16-.16V60.83a1.2,1.2,0,0,0-1.34-1.38h-1.09a1.2,1.2,0,0,0-1.34,1.38v1.23A.14.14,0,0,0,922.41,62.22Zm2.45-6.88h.95c.08,0,.13,0,.15.07s0,.09,0,.16l-1.39,1.68a.51.51,0,0,1-.32.16h-.53c-.15,0-.18-.08-.1-.23l.93-1.63A.34.34,0,0,1,924.86,55.34Z"/><path class="cls-1" d="M932.21,66.58h-.94a2.29,2.29,0,0,1-1.7-.62,2.42,2.42,0,0,1-.61-1.74V60.8a2.43,2.43,0,0,1,.61-1.75,2.29,2.29,0,0,1,1.7-.62h.94a1.64,1.64,0,0,1,1.65.85h.06V55.57c0-.15.07-.23.21-.23h.73c.14,0,.21.08.21.23V66.36c0,.15-.07.22-.21.22h-.73c-.14,0-.21-.07-.21-.22v-.62h-.06A1.65,1.65,0,0,1,932.21,66.58Zm1.71-2.49V60.92a1.46,1.46,0,0,0-.38-1.08,1.5,1.5,0,0,0-1.11-.39h-1c-.89,0-1.33.47-1.33,1.39v3.33c0,.93.44,1.39,1.33,1.39h1a1.54,1.54,0,0,0,1.11-.38A1.5,1.5,0,0,0,933.92,64.09Z"/><path class="cls-1" d="M937.36,57.09V55.58c0-.15.07-.22.21-.22h.73a.19.19,0,0,1,.22.22v1.51a.19.19,0,0,1-.22.22h-.73C937.43,57.31,937.36,57.24,937.36,57.09Zm0,9.27V58.65c0-.15.07-.22.21-.22h.73a.19.19,0,0,1,.22.22v7.71a.19.19,0,0,1-.22.22h-.72A.19.19,0,0,1,937.36,66.36Z"/><path class="cls-1" d="M941.11,59.45h-.87c-.15,0-.23-.07-.23-.21v-.59c0-.15.08-.22.23-.22h.87c.11,0,.16,0,.16-.15V56.91c0-.15.08-.22.23-.22h.72c.14,0,.21.07.21.22v1.37c0,.1.05.15.17.15h1.7c.16,0,.24.07.24.22v.59q0,.21-.24.21h-1.7c-.12,0-.17,0-.17.15v4.6a1.22,1.22,0,0,0,1.4,1.36h.63c.16,0,.24.07.24.22v.59q0,.21-.24.21h-.77a2.46,2.46,0,0,1-1.76-.61,2.25,2.25,0,0,1-.66-1.72V59.6C941.27,59.5,941.22,59.45,941.11,59.45Z"/><path class="cls-1" d="M950,66.58H948.6a2.39,2.39,0,0,1-1.74-.62,2.35,2.35,0,0,1-.63-1.74V60.8a2.36,2.36,0,0,1,.63-1.75,2.39,2.39,0,0,1,1.74-.62H950a2.39,2.39,0,0,1,1.74.62,2.36,2.36,0,0,1,.63,1.75v3.42a2.35,2.35,0,0,1-.63,1.74A2.39,2.39,0,0,1,950,66.58Zm-1.25-1h1.12a1.21,1.21,0,0,0,1.35-1.38V60.83a1.21,1.21,0,0,0-1.35-1.38h-1.12a1.2,1.2,0,0,0-1.34,1.38v3.35A1.2,1.2,0,0,0,948.72,65.56Z"/><path class="cls-1" d="M957.15,66.58H954.3a.19.19,0,0,1-.22-.22V65.8c0-.14.07-.21.22-.21H957c.83,0,1.25-.31,1.25-.93v-.3a1.17,1.17,0,0,0-.82-1.17l-1.88-.8a2.63,2.63,0,0,1-1.17-.79,1.86,1.86,0,0,1-.35-1.2c0-1.32.72-2,2.15-2h2.63a.19.19,0,0,1,.22.22v.56c0,.14-.07.21-.22.21h-2.42a1.37,1.37,0,0,0-.87.24.7.7,0,0,0-.29.56v.27c0,.45.3.79.91,1l1.88.85a2.12,2.12,0,0,1,1.13.85,3,3,0,0,1,.3,1.45C959.44,65.94,958.67,66.58,957.15,66.58Z"/><path class="cls-1" d="M969.64,66.58h-1.91A2.38,2.38,0,0,1,966,66a2.35,2.35,0,0,1-.63-1.74V58.67a2.18,2.18,0,0,1,2.36-2.37h1.91a2.34,2.34,0,0,1,1.73.63,2.37,2.37,0,0,1,.63,1.74v5.55a2.18,2.18,0,0,1-2.36,2.36Zm-1.78-1h1.63a1.21,1.21,0,0,0,1.35-1.39V58.72a1.21,1.21,0,0,0-1.35-1.39h-1.63c-.88,0-1.33.46-1.33,1.39v5.45C966.53,65.1,967,65.56,967.86,65.56Z"/><path class="cls-1" d="M975.15,66.58h-.72a.19.19,0,0,1-.22-.22V58.65a.19.19,0,0,1,.22-.22h.72c.15,0,.23.07.23.22v.63h.06a1.61,1.61,0,0,1,1.63-.85h.9a2.27,2.27,0,0,1,1.69.62,2.39,2.39,0,0,1,.61,1.75v5.56c0,.15-.08.22-.23.22h-.71c-.15,0-.23-.07-.23-.22V60.84a1.21,1.21,0,0,0-1.34-1.39h-.9a1.48,1.48,0,0,0-1.1.39,1.42,1.42,0,0,0-.38,1.08v5.44C975.38,66.51,975.3,66.58,975.15,66.58Z"/><path class="cls-1" d="M983.42,66.58h-.72c-.15,0-.23-.07-.23-.22V55.57a.21.21,0,0,1,.23-.23h.72c.15,0,.22.08.22.23V66.36A.19.19,0,0,1,983.42,66.58Z"/><path class="cls-1" d="M986,57.09V55.58c0-.15.07-.22.21-.22H987c.15,0,.23.07.23.22v1.51c0,.15-.08.22-.23.22h-.73C986.08,57.31,986,57.24,986,57.09Zm0,9.27V58.65c0-.15.07-.22.21-.22H987c.15,0,.23.07.23.22v7.71c0,.15-.08.22-.23.22h-.72A.19.19,0,0,1,986,66.36Z"/><path class="cls-1" d="M990.4,66.58h-.71c-.15,0-.23-.07-.23-.22V58.65c0-.15.08-.22.23-.22h.71c.15,0,.23.07.23.22v.63h.06a1.61,1.61,0,0,1,1.63-.85h.9a2.27,2.27,0,0,1,1.69.62,2.39,2.39,0,0,1,.61,1.75v5.56a.19.19,0,0,1-.22.22h-.72c-.15,0-.23-.07-.23-.22V60.84c0-.92-.44-1.39-1.34-1.39h-.89a1.5,1.5,0,0,0-1.11.39,1.46,1.46,0,0,0-.38,1.08v5.44C990.63,66.51,990.55,66.58,990.4,66.58Z"/><path class="cls-1" d="M1003.24,66.58h-3.39a2.38,2.38,0,0,1-1.73-.62,2.35,2.35,0,0,1-.63-1.74V60.8a2.17,2.17,0,0,1,2.36-2.37h1.35a2.17,2.17,0,0,1,2.35,2.37v2a.21.21,0,0,1-.23.24H998.8c-.11,0-.16,0-.16.14v1c0,.93.45,1.4,1.34,1.4h3.26c.15,0,.23.07.23.22v.57C1003.47,66.51,1003.39,66.58,1003.24,66.58Zm-4.44-4.36h3.45a.14.14,0,0,0,.16-.16V60.83a1.2,1.2,0,0,0-1.34-1.38H1000a1.2,1.2,0,0,0-1.34,1.38v1.23A.14.14,0,0,0,998.8,62.22Z"/><path class="cls-14" d="M1006.88,17.23l1.14.49,1.13.47a.83.83,0,0,0,.66-1.53c-.76-.33-1.52-.66-2.29-1a.8.8,0,0,0-1.08.44A.82.82,0,0,0,1006.88,17.23Z"/><path class="cls-13" d="M1023.26,19.68a3,3,0,0,0-4.62-2.37c-1.14.71-2.3,1.38-3.46,2.07l-6.74,4L1005.61,25c.15-.67.26-1.22.41-1.77a4.22,4.22,0,0,0-2.53-5.37,2,2,0,0,0-2.75,1.44c-.1.51-.26,1-.4,1.51q-.75,2.88-1.52,5.77c-.19.72-.37,1.44-.55,2.16h.12a12,12,0,0,1,1.36.08c.3-1.16.59-2.33.9-3.49.52-1.93,1.05-3.86,1.56-5.8a.46.46,0,0,1,.65-.35,2.66,2.66,0,0,1,1.89,2.89c-.17,1-.42,1.92-.63,2.89-.09.4-.17.82-.27,1.22a.76.76,0,0,0,1.2.85l3.24-1.92,8.86-5.24c.75-.44,1.49-.88,2.23-1.34a1.55,1.55,0,0,1,2.19.46,1.51,1.51,0,0,1-.5,2.14c-2.11,1.28-4.24,2.53-6.36,3.79l-2.51,1.48c-.2.12-.42.24-.49.5a.75.75,0,0,0,.22.82.71.71,0,0,0,.8.07c.68-.38,1.34-.78,2-1.17a1.55,1.55,0,0,1,1.81.08,1.6,1.6,0,0,1-.34,2.69c-.86.51-1.73,1-2.58,1.51a1.4,1.4,0,0,0-.52.42.64.64,0,0,0,0,.79.63.63,0,0,0,.79.26,17.51,17.51,0,0,0,2-1.15,1.64,1.64,0,0,1,1.86,0,1.49,1.49,0,0,1,.63,1.65,1.47,1.47,0,0,1-.78,1c-.93.58-1.87,1.12-2.81,1.69-.52.31-.64.67-.38,1.11s.62.43,1.1.17.9-.53,1.35-.79a1.56,1.56,0,0,1,2.2.5,1.61,1.61,0,0,1-.64,2.2l-5.37,3.15a33.07,33.07,0,0,1-3,1.69,8.14,8.14,0,0,1-3,.78v.81c0,.22,0,.43,0,.64a10.5,10.5,0,0,0,2.36-.4,15.06,15.06,0,0,0,3.6-1.77c2.08-1.25,4.19-2.46,6.27-3.72a2.88,2.88,0,0,0,1.43-2.89,2.66,2.66,0,0,0-1.24-2.12c-.24-.16-.45-.29-.16-.63a2.58,2.58,0,0,0,.59-1.53,2.92,2.92,0,0,0-1.61-2.91c-.25-.14-.2-.22-.11-.4a3,3,0,0,0-.82-3.88c-.34-.26-.23-.34.05-.51,1.48-.87,3-1.74,4.43-2.64A2.85,2.85,0,0,0,1023.26,19.68Z"/><path class="cls-14" d="M1014.54,16a.8.8,0,0,0,1.09-.46c.17-.37.32-.74.48-1.11s.31-.74.47-1.11a.83.83,0,0,0-.43-1.13.8.8,0,0,0-1.11.47c-.32.73-.63,1.47-.94,2.22A.82.82,0,0,0,1014.54,16Z"/><path class="cls-14" d="M1010.72,15a.85.85,0,1,0,1.57-.65c-.27-.7-.56-1.39-.84-2.09a.83.83,0,0,0-.36-.44.86.86,0,0,0-1,.1.83.83,0,0,0-.22,1C1010.14,13.61,1010.42,14.32,1010.72,15Z"/></g></g></svg>